<svg width="170" height="50" viewBox="0 0 170 50" fill="none" xmlns="http://www.w3.org/2000/svg">
<g clip-path="url(#clip0_119_185)">
<path d="M64.3685 9.12402C66.7289 9.12402 69.8611 9.35099 71.813 11.3483C73.2203 12.7555 73.4926 14.4805 73.4926 15.6607C73.4926 18.7929 71.9946 20.0185 71.3591 20.5633C72.267 20.9718 73.3111 21.6073 74.2643 23.1053C74.9906 24.4218 75.263 25.6474 75.263 27.0092C75.263 29.7782 74.1735 31.5486 73.0387 32.6834C70.9506 34.8169 68.4085 35.0893 66.0934 35.0893H50.2056V9.12402H64.3685ZM64.8224 18.8383C65.5941 18.8383 66.6835 18.7475 67.2737 18.339C67.6822 18.112 68.2723 17.5219 68.2723 16.2055C68.2723 15.6607 68.2269 14.8436 67.2737 14.2989C66.6835 14.0266 65.8211 13.845 65.2309 13.845H64.8224H55.2897V18.8383H64.8224ZM65.4125 30.323C66.5474 30.323 67.9092 30.323 68.7263 29.5967C69.4526 29.0065 69.8611 27.8263 69.8611 26.873C69.8611 25.375 69.1348 24.6487 68.9532 24.5125C68.2269 23.877 66.8651 23.6501 65.8211 23.6501H55.2897V30.3684H65.4125V30.323Z" fill="#2C3E4C"/>
<path d="M81.9814 9.12402H102.817V14.072H87.1109V18.8383H96.6437V23.7862H87.1109V30.1414H103.816V35.0893H81.9814V9.12402Z" fill="#2C3E4C"/>
<path d="M122.563 25.9651L115.119 35.0893H108.854L119.431 22.0613L108.945 9.12402H115.391L136.636 35.0439H129.963L122.563 25.9651Z" fill="#2C3E4C"/>
<path d="M161.148 28.6434H149.346L146.259 35.0439H140.585L153.295 9.12402H157.154L169.955 35.0439H164.326L161.148 28.6434ZM151.797 23.6955H158.697L155.202 16.7502L151.797 23.6955Z" fill="#2C3E4C"/>
<path class="decor" d="M123.29 18.112L130.598 9.12402H136.998L129.554 18.112H123.29Z" fill="#14A8F2"/>
<path d="M33.2737 23.4686V33.5007L30.1415 35.6342V14.4352L26.9186 15.8425V16.024V19.2924V37.7223L23.7864 39.8558V6.6275L20.5634 8.03471V16.024V19.2924V41.9439L18.2483 43.5327L17.3858 42.9426V0L12.6195 2.13351V7.17223L14.2083 8.17089V40.8545L11.0307 38.721V6.6275L6.26435 8.71562V15.0708L7.85314 16.024V36.5875L4.76636 34.5447V14.1175L0 16.251V31.3672V33.3191V37.223L18.2483 49.3431L36.4967 37.223V35.8611V31.3672V22.0614L33.2737 23.4686Z" fill="#14A8F2"/>
</g>
<defs>
<clipPath id="clip0_119_185">
<rect width="170" height="49.3431" fill="white"/>
</clipPath>
</defs>
</svg>
