<svg width="60" height="60" viewBox="0 0 60 60" fill="none" xmlns="http://www.w3.org/2000/svg">
<path d="M14.0625 41.25C14.5803 41.25 15 40.8303 15 40.3125C15 39.7947 14.5803 39.375 14.0625 39.375C13.5447 39.375 13.125 39.7947 13.125 40.3125C13.125 40.8303 13.5447 41.25 14.0625 41.25Z" fill="white"/>
<path d="M6.5625 46.875H17.8125C18.5584 46.875 19.2738 46.5787 19.8012 46.0512C20.3287 45.5238 20.625 44.8084 20.625 44.0625V36.5625C20.625 35.8166 20.3287 35.1012 19.8012 34.5738C19.2738 34.0463 18.5584 33.75 17.8125 33.75H6.5625C5.81658 33.75 5.10121 34.0463 4.57376 34.5738C4.04632 35.1012 3.75 35.8166 3.75 36.5625V44.0625C3.75 44.8084 4.04632 45.5238 4.57376 46.0512C5.10121 46.5787 5.81658 46.875 6.5625 46.875ZM14.0625 37.5C14.6188 37.5 15.1625 37.665 15.625 37.974C16.0876 38.283 16.448 38.7223 16.6609 39.2362C16.8738 39.7501 16.9295 40.3156 16.821 40.8612C16.7124 41.4068 16.4446 41.9079 16.0512 42.3012C15.6579 42.6946 15.1568 42.9624 14.6112 43.071C14.0656 43.1795 13.5001 43.1238 12.9862 42.9109C12.4723 42.698 12.033 42.3376 11.724 41.875C11.415 41.4125 11.25 40.8688 11.25 40.3125C11.25 39.5666 11.5463 38.8512 12.0738 38.3238C12.6012 37.7963 13.3166 37.5 14.0625 37.5Z" fill="white"/>
<path d="M51.5625 24.375H12.1875C10.9448 24.3765 9.75334 24.8708 8.87458 25.7496C7.99583 26.6283 7.50149 27.8198 7.5 29.0625V31.875H17.8125C19.0552 31.8765 20.2467 32.3708 21.1254 33.2496C22.0042 34.1283 22.4985 35.3198 22.5 36.5625V44.0625C22.4985 45.3052 22.0042 46.4967 21.1254 47.3754C20.2467 48.2542 19.0552 48.7485 17.8125 48.75H7.5V51.5625C7.50149 52.8052 7.99583 53.9967 8.87458 54.8754C9.75334 55.7542 10.9448 56.2485 12.1875 56.25H51.5625C52.8052 56.2485 53.9967 55.7542 54.8754 54.8754C55.7542 53.9967 56.2485 52.8052 56.25 51.5625V29.0625C56.2485 27.8198 55.7542 26.6283 54.8754 25.7496C53.9967 24.8708 52.8052 24.3765 51.5625 24.375ZM45.9375 52.5H40.3125C40.0639 52.5 39.8254 52.4012 39.6496 52.2254C39.4738 52.0496 39.375 51.8111 39.375 51.5625C39.375 51.3139 39.4738 51.0754 39.6496 50.8996C39.8254 50.7238 40.0639 50.625 40.3125 50.625H45.9375C46.1861 50.625 46.4246 50.7238 46.6004 50.8996C46.7762 51.0754 46.875 51.3139 46.875 51.5625C46.875 51.8111 46.7762 52.0496 46.6004 52.2254C46.4246 52.4012 46.1861 52.5 45.9375 52.5ZM51.5625 52.5H49.6875C49.4389 52.5 49.2004 52.4012 49.0246 52.2254C48.8488 52.0496 48.75 51.8111 48.75 51.5625C48.75 51.3139 48.8488 51.0754 49.0246 50.8996C49.2004 50.7238 49.4389 50.625 49.6875 50.625H51.5625C51.8111 50.625 52.0496 50.7238 52.2254 50.8996C52.4012 51.0754 52.5 51.3139 52.5 51.5625C52.5 51.8111 52.4012 52.0496 52.2254 52.2254C52.0496 52.4012 51.8111 52.5 51.5625 52.5Z" fill="white"/>
<path d="M14.168 22.5004H23.0114C25.2727 19.9824 27.3473 17.3028 29.2186 14.4829C30.6433 12.3201 31.945 10.0787 33.1177 7.76948L23.4886 5.64979C23.2424 5.59264 22.9846 5.61093 22.7489 5.70229C22.6657 5.73777 22.589 5.78688 22.522 5.8476C22.4337 5.93015 22.3654 6.0318 22.3223 6.14479C21.965 7.5665 21.5341 8.9687 21.0314 10.3457C20.8355 10.882 20.212 12.5442 19.2717 14.4707C17.8709 17.3268 16.1593 20.0196 14.168 22.5004Z" fill="white"/>
<path d="M49.9392 22.5003C53.3771 16.594 55.8324 12.2543 56.1267 11.5587C56.2525 11.3045 56.2776 11.0122 56.1971 10.7403C56.1472 10.6049 56.0684 10.4821 55.9662 10.3802C55.8641 10.2784 55.741 10.2 55.6055 10.1506L38.0367 3.80556C37.8356 3.73602 37.6176 3.73165 37.4137 3.79308C37.2099 3.85451 37.0307 3.97861 36.9014 4.14775C35.21 8.1149 33.1622 11.9205 30.7833 15.5178C29.167 17.9513 27.4028 20.2832 25.5005 22.5003H49.9392Z" fill="white"/>
</svg>
