<svg width="26" height="26" viewBox="0 0 26 26" fill="none" xmlns="http://www.w3.org/2000/svg">
<path fill-rule="evenodd" clip-rule="evenodd" d="M6.36396 6.63604C6.50461 6.49539 6.69538 6.41637 6.89429 6.41637C7.0932 6.41637 7.28397 6.49539 7.42462 6.63604L12.7279 11.9393L18.0312 6.63604C18.1719 6.49539 18.3626 6.41637 18.5616 6.41637C18.7605 6.41637 18.9512 6.49539 19.0919 6.63604C19.2325 6.77669 19.3116 6.96746 19.3116 7.16637C19.3116 7.36528 19.2325 7.55605 19.0919 7.6967L13.7886 13L19.0919 18.3033C19.2325 18.444 19.3116 18.6347 19.3116 18.8336C19.3116 19.0325 19.2325 19.2233 19.0919 19.364C18.9512 19.5046 18.7605 19.5836 18.5616 19.5836C18.3626 19.5836 18.1719 19.5046 18.0312 19.364L12.7279 14.0607L7.42462 19.364C7.28397 19.5046 7.0932 19.5836 6.89429 19.5836C6.69538 19.5836 6.50461 19.5046 6.36396 19.364C6.22331 19.2233 6.14429 19.0325 6.14429 18.8336C6.14429 18.6347 6.22331 18.444 6.36396 18.3033L11.6673 13L6.36396 7.6967C6.22331 7.55605 6.14429 7.36528 6.14429 7.16637C6.14429 6.96746 6.22331 6.77669 6.36396 6.63604Z" fill="#EB001B"/>
</svg>
