<svg width="24" height="24" viewBox="0 0 24 24" fill="none" xmlns="http://www.w3.org/2000/svg">
<path d="M22.9996 3.71875H1.00042C0.450172 3.71875 0 4.16905 0 4.7191V19.2805C0 19.8307 0.450172 20.2809 1.00042 20.2809H22.9996C23.5498 20.2809 24 19.8307 24 19.2805V4.7191C24 4.16899 23.5498 3.71875 22.9996 3.71875ZM15.6558 12.6947C17.5122 13.9464 22.3091 17.6597 22.3091 17.6597C22.5002 17.7891 22.5138 18.121 22.4182 18.3188C22.3226 18.5166 22.0237 18.637 21.8327 18.5076C21.8327 18.5076 16.7265 14.8209 14.7726 13.4834C14.6645 13.4094 14.5687 13.4982 14.5687 13.4982L12.4263 15.2076C12.3092 15.3037 12.1547 15.3567 11.9917 15.3567C11.8287 15.3567 11.6743 15.3037 11.557 15.2076L9.38995 13.4781C9.38995 13.4781 9.31533 13.4131 9.23047 13.4719C7.29909 14.8126 2.21516 18.5076 2.21516 18.5076C2.02416 18.637 1.66073 18.5166 1.56516 18.3187C1.4696 18.121 1.48326 17.7891 1.67426 17.6596C1.67426 17.6596 6.47724 13.9579 8.30402 12.7127C8.40835 12.6416 8.29887 12.537 8.29887 12.537L1.52476 6.43783C1.27847 6.23594 1.20476 5.87437 1.3569 5.61462C1.44724 5.46009 1.60641 5.36781 1.78245 5.36781C1.90643 5.36781 2.03151 5.4144 2.13468 5.49895L11.7685 13.9421C11.8254 13.9887 11.9067 14.0155 11.9917 14.0155C12.0767 14.0155 12.158 13.9887 12.215 13.9421L21.8487 5.49895C21.9519 5.41434 22.0769 5.36781 22.201 5.36781C22.377 5.36781 22.5361 5.46009 22.6265 5.61462C22.7786 5.87437 22.7049 6.236 22.4587 6.43783L15.6666 12.556C15.6665 12.5561 15.5708 12.6373 15.6558 12.6947Z" fill="#14A8F2"/>
</svg>
