<svg width="20" height="20" viewBox="0 0 20 20" fill="none" xmlns="http://www.w3.org/2000/svg">
<path d="M19.1892 16.2156H0.810798C0.739117 16.2156 0.670373 16.1872 0.619688 16.1365C0.569002 16.0858 0.540527 16.017 0.540527 15.9454V4.05347C0.540527 3.98179 0.569002 3.91305 0.619688 3.86236C0.670373 3.81168 0.739117 3.7832 0.810798 3.7832H19.1892C19.2609 3.7832 19.3296 3.81168 19.3803 3.86236C19.431 3.91305 19.4594 3.98179 19.4594 4.05347V15.9454C19.4594 16.017 19.431 16.0858 19.3803 16.1365C19.3296 16.1872 19.2609 16.2156 19.1892 16.2156ZM1.08107 15.6751H18.9189V4.32374H1.08107V15.6751Z" fill="#2C3E4C"/>
<path d="M9.99988 11.7058C9.25862 11.7051 8.54436 11.4275 7.99717 10.9274L0.629607 4.25444C0.600883 4.23137 0.577178 4.20268 0.559948 4.17012C0.542718 4.13756 0.532326 4.10182 0.529412 4.06509C0.526497 4.02837 0.531121 3.99144 0.542999 3.95656C0.554877 3.92169 0.573758 3.88962 0.598484 3.86231C0.623209 3.835 0.653257 3.81303 0.68678 3.79776C0.720304 3.78249 0.756596 3.77423 0.793428 3.77349C0.83026 3.77275 0.866853 3.77955 0.900961 3.79348C0.935069 3.8074 0.965971 3.82814 0.991769 3.85444L8.35934 10.5409C8.80759 10.9504 9.39276 11.1775 9.99988 11.1775C10.607 11.1775 11.1922 10.9504 11.6404 10.5409L19.008 3.85444C19.0617 3.81129 19.1299 3.7903 19.1986 3.79575C19.2673 3.8012 19.3313 3.83269 19.3776 3.88377C19.4238 3.93486 19.4488 4.00168 19.4474 4.07058C19.4461 4.13948 19.4184 4.20525 19.3701 4.25444L12.0026 10.9274C11.4554 11.4275 10.7411 11.7051 9.99988 11.7058V11.7058Z" fill="#2C3E4C"/>
<path d="M0.810833 16.2155C0.753877 16.2161 0.698195 16.1986 0.651738 16.1657C0.60528 16.1327 0.570423 16.0859 0.552141 16.032C0.533859 15.978 0.533088 15.9197 0.549938 15.8653C0.566788 15.8109 0.600398 15.7632 0.645968 15.729L7.7757 10.2966C7.80401 10.2747 7.83638 10.2587 7.87093 10.2494C7.90548 10.2402 7.94152 10.2379 7.97696 10.2427C8.01241 10.2474 8.04656 10.2592 8.07743 10.2773C8.10829 10.2953 8.13526 10.3194 8.15678 10.3479C8.17878 10.3761 8.19499 10.4083 8.20446 10.4428C8.21393 10.4772 8.21648 10.5132 8.21195 10.5486C8.20743 10.5841 8.19592 10.6182 8.1781 10.6492C8.16028 10.6802 8.1365 10.7073 8.10813 10.729L0.975698 16.1614C0.927492 16.1958 0.869996 16.2146 0.810833 16.2155V16.2155Z" fill="#2C3E4C"/>
<path d="M19.1892 16.2168C19.1301 16.2159 19.0726 16.1971 19.0244 16.1628L11.8919 10.7303C11.8346 10.6866 11.797 10.6219 11.7873 10.5504C11.7777 10.4789 11.7969 10.4066 11.8406 10.3492C11.8843 10.2919 11.949 10.2543 12.0205 10.2446C12.092 10.235 12.1643 10.2541 12.2217 10.2979L19.3541 15.7303C19.3997 15.7645 19.4333 15.8122 19.4501 15.8666C19.467 15.921 19.4662 15.9794 19.4479 16.0333C19.4296 16.0872 19.3948 16.134 19.3483 16.167C19.3019 16.1999 19.2462 16.2174 19.1892 16.2168V16.2168Z" fill="#2C3E4C"/>
</svg>
