<svg width="20" height="20" viewBox="0 0 20 20" fill="none" xmlns="http://www.w3.org/2000/svg">
<g clip-path="url(#clip0_101_899)">
<path d="M53.693 4.58203H42.747V-65.168C40.1119 -62.6545 36.6457 -60.1409 32.3484 -57.6274C28.0916 -55.1139 24.2605 -53.2288 20.8551 -51.972V-62.5531C26.9767 -65.4315 32.3281 -68.918 36.9092 -73.0126C41.4903 -77.1072 44.7335 -81.0801 46.6389 -84.9315H53.693V4.58203ZM83.4294 -16.0328L93.9497 -17.0058C94.8416 -12.0599 96.5443 -8.47202 99.0578 -6.24229C101.571 -4.01256 104.794 -2.8977 108.727 -2.8977C112.092 -2.8977 115.031 -3.66797 117.544 -5.20851C120.098 -6.74905 122.186 -8.79635 123.808 -11.3504C125.429 -13.945 126.788 -17.4315 127.882 -21.8099C128.977 -26.1882 129.524 -30.6477 129.524 -35.1882C129.524 -35.6747 129.504 -36.4045 129.463 -37.3774C127.274 -33.8909 124.274 -31.0531 120.463 -28.8639C116.693 -26.7153 112.598 -25.6409 108.179 -25.6409C100.801 -25.6409 94.5578 -28.3166 89.4497 -33.668C84.3416 -39.0193 81.7876 -46.0734 81.7876 -54.8301C81.7876 -63.8707 84.443 -71.1477 89.7538 -76.6612C95.1051 -82.1747 101.794 -84.9315 109.821 -84.9315C115.619 -84.9315 120.909 -83.3707 125.693 -80.2491C130.517 -77.1274 134.166 -72.668 136.639 -66.8707C139.152 -61.1139 140.409 -52.7626 140.409 -41.8166C140.409 -30.4247 139.173 -21.3436 136.7 -14.5734C134.227 -7.84364 130.538 -2.71527 125.632 0.811761C120.767 4.33879 115.051 6.1023 108.484 6.1023C101.511 6.1023 95.8146 4.17663 91.3957 0.325274C86.9767 -3.56662 84.3213 -9.01932 83.4294 -16.0328ZM128.247 -55.3774C128.247 -61.6612 126.565 -66.6477 123.2 -70.3369C119.875 -74.0261 115.862 -75.8707 111.159 -75.8707C106.294 -75.8707 102.058 -73.8842 98.4497 -69.9112C94.8416 -65.9382 93.0376 -60.7896 93.0376 -54.4653C93.0376 -48.7896 94.7403 -44.168 98.1457 -40.6004C101.592 -37.0734 105.828 -35.3099 110.855 -35.3099C115.923 -35.3099 120.078 -37.0734 123.321 -40.6004C126.605 -44.168 128.247 -49.0936 128.247 -55.3774ZM208.639 -5.93824V4.58203H149.713C149.632 1.9469 150.058 -0.586888 150.99 -3.01932C152.49 -7.03283 154.882 -10.9855 158.166 -14.8774C161.49 -18.7693 166.274 -23.2693 172.517 -28.3774C182.206 -36.3234 188.754 -42.6072 192.159 -47.2288C195.565 -51.8909 197.267 -56.2896 197.267 -60.4247C197.267 -64.7626 195.706 -68.4112 192.585 -71.3707C189.504 -74.3707 185.47 -75.8707 180.484 -75.8707C175.213 -75.8707 170.997 -74.2896 167.835 -71.1274C164.673 -67.9653 163.071 -63.5869 163.031 -57.9923L151.781 -59.1477C152.551 -67.5396 155.45 -73.9247 160.477 -78.3031C165.504 -82.722 172.254 -84.9315 180.727 -84.9315C189.281 -84.9315 196.051 -82.5599 201.038 -77.8166C206.024 -73.0734 208.517 -67.195 208.517 -60.1815C208.517 -56.6139 207.788 -53.1072 206.328 -49.6612C204.869 -46.2153 202.436 -42.5869 199.031 -38.7761C195.666 -34.9653 190.051 -29.7355 182.186 -23.0869C175.619 -17.5734 171.402 -13.8234 169.538 -11.8369C167.673 -9.89094 166.132 -7.92473 164.916 -5.93824H208.639ZM14.1051 126.967L24.6254 125.994C25.5173 130.94 27.22 134.528 29.7335 136.758C32.247 138.987 35.47 140.102 39.4024 140.102C42.7673 140.102 45.7065 139.332 48.22 137.791C50.774 136.251 52.8619 134.204 54.4835 131.65C56.1051 129.055 57.4632 125.569 58.5578 121.19C59.6524 116.812 60.1997 112.352 60.1997 107.812C60.1997 107.325 60.1794 106.596 60.1389 105.623C57.9497 109.109 54.9497 111.947 51.1389 114.136C47.3686 116.285 43.274 117.359 38.8551 117.359C31.4767 117.359 25.2335 114.683 20.1254 109.332C15.0173 103.981 12.4632 96.9266 12.4632 88.1699C12.4632 79.1293 15.1186 71.8523 20.4294 66.3388C25.7808 60.8253 32.47 58.0685 40.497 58.0685C46.2943 58.0685 51.5849 59.6293 56.3686 62.7509C61.193 65.8726 64.8416 70.332 67.3146 76.1293C69.8281 81.8861 71.0849 90.2374 71.0849 101.183C71.0849 112.575 69.8484 121.656 67.3754 128.427C64.9024 135.156 61.2132 140.285 56.3078 143.812C51.443 147.339 45.7267 149.102 39.1592 149.102C32.1862 149.102 26.4903 147.177 22.0713 143.325C17.6524 139.433 14.997 133.981 14.1051 126.967ZM58.9227 87.6226C58.9227 81.3388 57.2403 76.3523 53.8754 72.6631C50.5511 68.9739 46.5376 67.1293 41.8349 67.1293C36.97 67.1293 32.7335 69.1158 29.1254 73.0888C25.5173 77.0618 23.7132 82.2104 23.7132 88.5347C23.7132 94.2104 25.4159 98.832 28.8213 102.4C32.2673 105.927 36.5038 107.69 41.5308 107.69C46.5984 107.69 50.7538 105.927 53.997 102.4C57.2808 98.832 58.9227 93.9064 58.9227 87.6226ZM81.8484 124.048L92.7943 122.589C94.0511 128.791 96.1794 133.271 99.1794 136.028C102.22 138.744 105.909 140.102 110.247 140.102C115.396 140.102 119.734 138.319 123.261 134.751C126.828 131.183 128.612 126.764 128.612 121.494C128.612 116.467 126.97 112.332 123.686 109.089C120.402 105.805 116.227 104.163 111.159 104.163C109.092 104.163 106.517 104.569 103.436 105.379L104.652 95.7712C105.382 95.8523 105.97 95.8928 106.416 95.8928C111.078 95.8928 115.274 94.6766 119.004 92.2442C122.734 89.8118 124.598 86.0618 124.598 80.9942C124.598 76.9807 123.24 73.6564 120.524 71.0212C117.808 68.3861 114.301 67.0685 110.004 67.0685C105.747 67.0685 102.2 68.4064 99.3619 71.082C96.524 73.7577 94.6997 77.7712 93.8889 83.1226L82.943 81.1766C84.2808 73.8388 87.3213 68.1631 92.0646 64.1496C96.8078 60.0955 102.706 58.0685 109.761 58.0685C114.625 58.0685 119.105 59.1226 123.2 61.2307C127.294 63.2982 130.416 66.1361 132.565 69.7442C134.754 73.3523 135.848 77.1834 135.848 81.2374C135.848 85.0888 134.815 88.5955 132.747 91.7577C130.679 94.9199 127.619 97.4334 123.565 99.2982C128.835 100.514 132.929 103.048 135.848 106.9C138.767 110.71 140.227 115.494 140.227 121.251C140.227 129.035 137.389 135.643 131.713 141.075C126.038 146.467 118.862 149.163 110.186 149.163C102.362 149.163 95.8551 146.832 90.6659 142.17C85.5173 137.508 82.5781 131.467 81.8484 124.048ZM152.754 126.967L163.274 125.994C164.166 130.94 165.869 134.528 168.382 136.758C170.896 138.987 174.119 140.102 178.051 140.102C181.416 140.102 184.355 139.332 186.869 137.791C189.423 136.251 191.511 134.204 193.132 131.65C194.754 129.055 196.112 125.569 197.206 121.19C198.301 116.812 198.848 112.352 198.848 107.812C198.848 107.325 198.828 106.596 198.788 105.623C196.598 109.109 193.598 111.947 189.788 114.136C186.017 116.285 181.923 117.359 177.504 117.359C170.125 117.359 163.882 114.683 158.774 109.332C153.666 103.981 151.112 96.9266 151.112 88.1699C151.112 79.1293 153.767 71.8523 159.078 66.3388C164.429 60.8253 171.119 58.0685 179.146 58.0685C184.943 58.0685 190.234 59.6293 195.017 62.7509C199.842 65.8726 203.49 70.332 205.963 76.1293C208.477 81.8861 209.734 90.2374 209.734 101.183C209.734 112.575 208.497 121.656 206.024 128.427C203.551 135.156 199.862 140.285 194.956 143.812C190.092 147.339 184.375 149.102 177.808 149.102C170.835 149.102 165.139 147.177 160.72 143.325C156.301 139.433 153.646 133.981 152.754 126.967ZM197.571 87.6226C197.571 81.3388 195.889 76.3523 192.524 72.6631C189.2 68.9739 185.186 67.1293 180.484 67.1293C175.619 67.1293 171.382 69.1158 167.774 73.0888C164.166 77.0618 162.362 82.2104 162.362 88.5347C162.362 94.2104 164.065 98.832 167.47 102.4C170.916 105.927 175.152 107.69 180.179 107.69C185.247 107.69 189.402 105.927 192.646 102.4C195.929 98.832 197.571 93.9064 197.571 87.6226ZM47.5511 290.582V269.237H8.87539V259.204L49.5578 201.433H58.497V259.204H70.5376V269.237H58.497V290.582H47.5511ZM47.5511 259.204V219.008L19.6389 259.204H47.5511ZM83.4294 269.967L93.9497 268.994C94.8416 273.94 96.5443 277.528 99.0578 279.758C101.571 281.987 104.794 283.102 108.727 283.102C112.092 283.102 115.031 282.332 117.544 280.791C120.098 279.251 122.186 277.204 123.808 274.65C125.429 272.055 126.788 268.569 127.882 264.19C128.977 259.812 129.524 255.352 129.524 250.812C129.524 250.325 129.504 249.596 129.463 248.623C127.274 252.109 124.274 254.947 120.463 257.136C116.693 259.285 112.598 260.359 108.179 260.359C100.801 260.359 94.5578 257.683 89.4497 252.332C84.3416 246.981 81.7876 239.927 81.7876 231.17C81.7876 222.129 84.443 214.852 89.7538 209.339C95.1051 203.825 101.794 201.069 109.821 201.069C115.619 201.069 120.909 202.629 125.693 205.751C130.517 208.873 134.166 213.332 136.639 219.129C139.152 224.886 140.409 233.237 140.409 244.183C140.409 255.575 139.173 264.656 136.7 271.427C134.227 278.156 130.538 283.285 125.632 286.812C120.767 290.339 115.051 292.102 108.484 292.102C101.511 292.102 95.8146 290.177 91.3957 286.325C86.9767 282.433 84.3213 276.981 83.4294 269.967ZM128.247 230.623C128.247 224.339 126.565 219.352 123.2 215.663C119.875 211.974 115.862 210.129 111.159 210.129C106.294 210.129 102.058 212.116 98.4497 216.089C94.8416 220.062 93.0376 225.21 93.0376 231.535C93.0376 237.21 94.7403 241.832 98.1457 245.4C101.592 248.927 105.828 250.69 110.855 250.69C115.923 250.69 120.078 248.927 123.321 245.4C126.605 241.832 128.247 236.906 128.247 230.623ZM151.112 267.231L162.605 266.258C163.456 271.852 165.423 276.069 168.504 278.906C171.625 281.704 175.375 283.102 179.754 283.102C185.024 283.102 189.484 281.116 193.132 277.143C196.781 273.17 198.605 267.9 198.605 261.332C198.605 255.089 196.842 250.163 193.315 246.555C189.828 242.947 185.247 241.143 179.571 241.143C176.044 241.143 172.862 241.954 170.024 243.575C167.186 245.156 164.956 247.224 163.335 249.778L153.058 248.44L161.693 202.65H206.024V213.109H170.45L165.646 237.069C170.997 233.339 176.612 231.474 182.49 231.474C190.274 231.474 196.842 234.17 202.193 239.562C207.544 244.954 210.22 251.886 210.22 260.359C210.22 268.427 207.869 275.4 203.166 281.278C197.45 288.494 189.646 292.102 179.754 292.102C171.646 292.102 165.017 289.832 159.869 285.291C154.761 280.751 151.842 274.731 151.112 267.231ZM14.1051 412.967L24.6254 411.994C25.5173 416.94 27.22 420.528 29.7335 422.758C32.247 424.987 35.47 426.102 39.4024 426.102C42.7673 426.102 45.7065 425.332 48.22 423.791C50.774 422.251 52.8619 420.204 54.4835 417.65C56.1051 415.055 57.4632 411.569 58.5578 407.19C59.6524 402.812 60.1997 398.352 60.1997 393.812C60.1997 393.325 60.1794 392.596 60.1389 391.623C57.9497 395.109 54.9497 397.947 51.1389 400.136C47.3686 402.285 43.274 403.359 38.8551 403.359C31.4767 403.359 25.2335 400.683 20.1254 395.332C15.0173 389.981 12.4632 382.927 12.4632 374.17C12.4632 365.129 15.1186 357.852 20.4294 352.339C25.7808 346.825 32.47 344.069 40.497 344.069C46.2943 344.069 51.5849 345.629 56.3686 348.751C61.193 351.873 64.8416 356.332 67.3146 362.129C69.8281 367.886 71.0849 376.237 71.0849 387.183C71.0849 398.575 69.8484 407.656 67.3754 414.427C64.9024 421.156 61.2132 426.285 56.3078 429.812C51.443 433.339 45.7267 435.102 39.1592 435.102C32.1862 435.102 26.4903 433.177 22.0713 429.325C17.6524 425.433 14.997 419.981 14.1051 412.967ZM58.9227 373.623C58.9227 367.339 57.2403 362.352 53.8754 358.663C50.5511 354.974 46.5376 353.129 41.8349 353.129C36.97 353.129 32.7335 355.116 29.1254 359.089C25.5173 363.062 23.7132 368.21 23.7132 374.535C23.7132 380.21 25.4159 384.832 28.8213 388.4C32.2673 391.927 36.5038 393.69 41.5308 393.69C46.5984 393.69 50.7538 391.927 53.997 388.4C57.2808 384.832 58.9227 379.906 58.9227 373.623ZM138.585 366.264L127.7 367.116C126.727 362.819 125.348 359.697 123.565 357.751C120.605 354.629 116.956 353.069 112.619 353.069C109.132 353.069 106.071 354.041 103.436 355.987C99.9903 358.501 97.274 362.17 95.2876 366.994C93.3011 371.819 92.2673 378.69 92.1862 387.609C94.8213 383.596 98.0443 380.616 101.855 378.67C105.666 376.724 109.659 375.751 113.835 375.751C121.132 375.751 127.335 378.447 132.443 383.839C137.592 389.19 140.166 396.123 140.166 404.636C140.166 410.231 138.95 415.44 136.517 420.264C134.125 425.048 130.821 428.717 126.605 431.271C122.389 433.825 117.605 435.102 112.254 435.102C103.132 435.102 95.693 431.758 89.9362 425.069C84.1794 418.339 81.3011 407.271 81.3011 391.866C81.3011 374.636 84.4835 362.109 90.8484 354.285C96.4024 347.474 103.882 344.069 113.288 344.069C120.301 344.069 126.038 346.035 130.497 349.967C134.997 353.9 137.693 359.332 138.585 366.264ZM93.8889 404.697C93.8889 408.467 94.6794 412.075 96.2605 415.521C97.8822 418.967 100.132 421.602 103.011 423.427C105.889 425.21 108.909 426.102 112.071 426.102C116.693 426.102 120.666 424.237 123.99 420.508C127.315 416.778 128.977 411.71 128.977 405.305C128.977 399.143 127.335 394.298 124.051 390.771C120.767 387.204 116.632 385.42 111.646 385.42C106.7 385.42 102.504 387.204 99.0578 390.771C95.6119 394.298 93.8889 398.94 93.8889 404.697ZM152.754 412.967L163.274 411.994C164.166 416.94 165.869 420.528 168.382 422.758C170.896 424.987 174.119 426.102 178.051 426.102C181.416 426.102 184.355 425.332 186.869 423.791C189.423 422.251 191.511 420.204 193.132 417.65C194.754 415.055 196.112 411.569 197.206 407.19C198.301 402.812 198.848 398.352 198.848 393.812C198.848 393.325 198.828 392.596 198.788 391.623C196.598 395.109 193.598 397.947 189.788 400.136C186.017 402.285 181.923 403.359 177.504 403.359C170.125 403.359 163.882 400.683 158.774 395.332C153.666 389.981 151.112 382.927 151.112 374.17C151.112 365.129 153.767 357.852 159.078 352.339C164.429 346.825 171.119 344.069 179.146 344.069C184.943 344.069 190.234 345.629 195.017 348.751C199.842 351.873 203.49 356.332 205.963 362.129C208.477 367.886 209.734 376.237 209.734 387.183C209.734 398.575 208.497 407.656 206.024 414.427C203.551 421.156 199.862 426.285 194.956 429.812C190.092 433.339 184.375 435.102 177.808 435.102C170.835 435.102 165.139 433.177 160.72 429.325C156.301 425.433 153.646 419.981 152.754 412.967ZM197.571 373.623C197.571 367.339 195.889 362.352 192.524 358.663C189.2 354.974 185.186 353.129 180.484 353.129C175.619 353.129 171.382 355.116 167.774 359.089C164.166 363.062 162.362 368.21 162.362 374.535C162.362 380.21 164.065 384.832 167.47 388.4C170.916 391.927 175.152 393.69 180.179 393.69C185.247 393.69 189.402 391.927 192.646 388.4C195.929 384.832 197.571 379.906 197.571 373.623ZM13.193 499.109V488.589H70.9024V497.102C65.2267 503.143 59.5916 511.17 53.997 521.183C48.443 531.197 44.1457 541.494 41.1051 552.075C38.9159 559.535 37.5173 567.704 36.9092 576.582H25.6592C25.7808 569.569 27.1592 561.096 29.7943 551.163C32.4294 541.231 36.1997 531.663 41.1051 522.46C46.0511 513.217 51.3011 505.433 56.8551 499.109H13.193ZM83.4294 555.967L93.9497 554.994C94.8416 559.94 96.5443 563.528 99.0578 565.758C101.571 567.987 104.794 569.102 108.727 569.102C112.092 569.102 115.031 568.332 117.544 566.791C120.098 565.251 122.186 563.204 123.808 560.65C125.429 558.055 126.788 554.569 127.882 550.19C128.977 545.812 129.524 541.352 129.524 536.812C129.524 536.325 129.504 535.596 129.463 534.623C127.274 538.109 124.274 540.947 120.463 543.136C116.693 545.285 112.598 546.359 108.179 546.359C100.801 546.359 94.5578 543.683 89.4497 538.332C84.3416 532.981 81.7876 525.927 81.7876 517.17C81.7876 508.129 84.443 500.852 89.7538 495.339C95.1051 489.825 101.794 487.069 109.821 487.069C115.619 487.069 120.909 488.629 125.693 491.751C130.517 494.873 134.166 499.332 136.639 505.129C139.152 510.886 140.409 519.237 140.409 530.183C140.409 541.575 139.173 550.656 136.7 557.427C134.227 564.156 130.538 569.285 125.632 572.812C120.767 576.339 115.051 578.102 108.484 578.102C101.511 578.102 95.8146 576.177 91.3957 572.325C86.9767 568.433 84.3213 562.981 83.4294 555.967ZM128.247 516.623C128.247 510.339 126.565 505.352 123.2 501.663C119.875 497.974 115.862 496.129 111.159 496.129C106.294 496.129 102.058 498.116 98.4497 502.089C94.8416 506.062 93.0376 511.21 93.0376 517.535C93.0376 523.21 94.7403 527.832 98.1457 531.4C101.592 534.927 105.828 536.69 110.855 536.69C115.923 536.69 120.078 534.927 123.321 531.4C126.605 527.832 128.247 522.906 128.247 516.623ZM167.956 528.237C163.416 526.575 160.051 524.204 157.862 521.123C155.673 518.041 154.578 514.352 154.578 510.055C154.578 503.569 156.909 498.116 161.571 493.697C166.234 489.278 172.436 487.069 180.179 487.069C187.963 487.069 194.227 489.339 198.97 493.879C203.713 498.379 206.085 503.873 206.085 510.359C206.085 514.494 204.99 518.102 202.801 521.183C200.652 524.224 197.369 526.575 192.95 528.237C198.423 530.021 202.578 532.9 205.416 536.873C208.294 540.846 209.734 545.589 209.734 551.102C209.734 558.724 207.038 565.129 201.646 570.319C196.254 575.508 189.159 578.102 180.362 578.102C171.565 578.102 164.47 575.508 159.078 570.319C153.686 565.089 150.99 558.582 150.99 550.798C150.99 545.001 152.45 540.156 155.369 536.264C158.328 532.332 162.524 529.656 167.956 528.237ZM165.767 509.69C165.767 513.906 167.125 517.352 169.842 520.028C172.558 522.704 176.085 524.041 180.423 524.041C184.639 524.041 188.085 522.724 190.761 520.089C193.477 517.413 194.835 514.15 194.835 510.298C194.835 506.285 193.436 502.92 190.639 500.204C187.882 497.447 184.436 496.069 180.301 496.069C176.125 496.069 172.659 497.406 169.902 500.082C167.146 502.758 165.767 505.96 165.767 509.69ZM162.24 550.859C162.24 553.981 162.97 557.001 164.429 559.92C165.929 562.839 168.139 565.109 171.058 566.731C173.977 568.312 177.119 569.102 180.484 569.102C185.713 569.102 190.031 567.42 193.436 564.055C196.842 560.69 198.544 556.413 198.544 551.224C198.544 545.954 196.781 541.596 193.254 538.15C189.767 534.704 185.389 532.981 180.119 532.981C174.97 532.981 170.693 534.683 167.288 538.089C163.923 541.494 162.24 545.751 162.24 550.859ZM14.1051 698.967L24.6254 697.994C25.5173 702.94 27.22 706.528 29.7335 708.758C32.247 710.987 35.47 712.102 39.4024 712.102C42.7673 712.102 45.7065 711.332 48.22 709.791C50.774 708.251 52.8619 706.204 54.4835 703.65C56.1051 701.055 57.4632 697.569 58.5578 693.19C59.6524 688.812 60.1997 684.352 60.1997 679.812C60.1997 679.325 60.1794 678.596 60.1389 677.623C57.9497 681.109 54.9497 683.947 51.1389 686.136C47.3686 688.285 43.274 689.359 38.8551 689.359C31.4767 689.359 25.2335 686.683 20.1254 681.332C15.0173 675.981 12.4632 668.927 12.4632 660.17C12.4632 651.129 15.1186 643.852 20.4294 638.339C25.7808 632.825 32.47 630.069 40.497 630.069C46.2943 630.069 51.5849 631.629 56.3686 634.751C61.193 637.873 64.8416 642.332 67.3146 648.129C69.8281 653.886 71.0849 662.237 71.0849 673.183C71.0849 684.575 69.8484 693.656 67.3754 700.427C64.9024 707.156 61.2132 712.285 56.3078 715.812C51.443 719.339 45.7267 721.102 39.1592 721.102C32.1862 721.102 26.4903 719.177 22.0713 715.325C17.6524 711.433 14.997 705.981 14.1051 698.967ZM58.9227 659.623C58.9227 653.339 57.2403 648.352 53.8754 644.663C50.5511 640.974 46.5376 639.129 41.8349 639.129C36.97 639.129 32.7335 641.116 29.1254 645.089C25.5173 649.062 23.7132 654.21 23.7132 660.535C23.7132 666.21 25.4159 670.832 28.8213 674.4C32.2673 677.927 36.5038 679.69 41.5308 679.69C46.5984 679.69 50.7538 677.927 53.997 674.4C57.2808 670.832 58.9227 665.906 58.9227 659.623ZM83.4294 698.967L93.9497 697.994C94.8416 702.94 96.5443 706.528 99.0578 708.758C101.571 710.987 104.794 712.102 108.727 712.102C112.092 712.102 115.031 711.332 117.544 709.791C120.098 708.251 122.186 706.204 123.808 703.65C125.429 701.055 126.788 697.569 127.882 693.19C128.977 688.812 129.524 684.352 129.524 679.812C129.524 679.325 129.504 678.596 129.463 677.623C127.274 681.109 124.274 683.947 120.463 686.136C116.693 688.285 112.598 689.359 108.179 689.359C100.801 689.359 94.5578 686.683 89.4497 681.332C84.3416 675.981 81.7876 668.927 81.7876 660.17C81.7876 651.129 84.443 643.852 89.7538 638.339C95.1051 632.825 101.794 630.069 109.821 630.069C115.619 630.069 120.909 631.629 125.693 634.751C130.517 637.873 134.166 642.332 136.639 648.129C139.152 653.886 140.409 662.237 140.409 673.183C140.409 684.575 139.173 693.656 136.7 700.427C134.227 707.156 130.538 712.285 125.632 715.812C120.767 719.339 115.051 721.102 108.484 721.102C101.511 721.102 95.8146 719.177 91.3957 715.325C86.9767 711.433 84.3213 705.981 83.4294 698.967ZM128.247 659.623C128.247 653.339 126.565 648.352 123.2 644.663C119.875 640.974 115.862 639.129 111.159 639.129C106.294 639.129 102.058 641.116 98.4497 645.089C94.8416 649.062 93.0376 654.21 93.0376 660.535C93.0376 666.21 94.7403 670.832 98.1457 674.4C101.592 677.927 105.828 679.69 110.855 679.69C115.923 679.69 120.078 677.927 123.321 674.4C126.605 670.832 128.247 665.906 128.247 659.623ZM152.754 698.967L163.274 697.994C164.166 702.94 165.869 706.528 168.382 708.758C170.896 710.987 174.119 712.102 178.051 712.102C181.416 712.102 184.355 711.332 186.869 709.791C189.423 708.251 191.511 706.204 193.132 703.65C194.754 701.055 196.112 697.569 197.206 693.19C198.301 688.812 198.848 684.352 198.848 679.812C198.848 679.325 198.828 678.596 198.788 677.623C196.598 681.109 193.598 683.947 189.788 686.136C186.017 688.285 181.923 689.359 177.504 689.359C170.125 689.359 163.882 686.683 158.774 681.332C153.666 675.981 151.112 668.927 151.112 660.17C151.112 651.129 153.767 643.852 159.078 638.339C164.429 632.825 171.119 630.069 179.146 630.069C184.943 630.069 190.234 631.629 195.017 634.751C199.842 637.873 203.49 642.332 205.963 648.129C208.477 653.886 209.734 662.237 209.734 673.183C209.734 684.575 208.497 693.656 206.024 700.427C203.551 707.156 199.862 712.285 194.956 715.812C190.092 719.339 184.375 721.102 177.808 721.102C170.835 721.102 165.139 719.177 160.72 715.325C156.301 711.433 153.646 705.981 152.754 698.967ZM197.571 659.623C197.571 653.339 195.889 648.352 192.524 644.663C189.2 640.974 185.186 639.129 180.484 639.129C175.619 639.129 171.382 641.116 167.774 645.089C164.166 649.062 162.362 654.21 162.362 660.535C162.362 666.21 164.065 670.832 167.47 674.4C170.916 677.927 175.152 679.69 180.179 679.69C185.247 679.69 189.402 677.927 192.646 674.4C195.929 670.832 197.571 665.906 197.571 659.623ZM53.693 862.582H42.747V792.832C40.1119 795.346 36.6457 797.859 32.3484 800.373C28.0916 802.886 24.2605 804.771 20.8551 806.028V795.447C26.9767 792.569 32.3281 789.082 36.9092 784.987C41.4903 780.893 44.7335 776.92 46.6389 773.069H53.693V862.582ZM81.7876 818.616C81.7876 808.075 82.8619 799.602 85.0105 793.197C87.1997 786.751 90.4227 781.785 94.6794 778.298C98.9767 774.812 104.369 773.069 110.855 773.069C115.639 773.069 119.835 774.041 123.443 775.987C127.051 777.893 130.031 780.67 132.382 784.319C134.734 787.927 136.578 792.346 137.916 797.575C139.254 802.764 139.923 809.778 139.923 818.616C139.923 829.075 138.848 837.528 136.7 843.974C134.551 850.379 131.328 855.346 127.031 858.873C122.774 862.359 117.382 864.102 110.855 864.102C102.261 864.102 95.5105 861.021 90.6051 854.859C84.7267 847.44 81.7876 835.359 81.7876 818.616ZM93.0376 818.616C93.0376 833.251 94.7403 843.001 98.1457 847.866C101.592 852.69 105.828 855.102 110.855 855.102C115.882 855.102 120.098 852.67 123.504 847.805C126.95 842.94 128.673 833.21 128.673 818.616C128.673 803.94 126.95 794.19 123.504 789.366C120.098 784.541 115.842 782.129 110.734 782.129C105.706 782.129 101.693 784.258 98.693 788.514C94.9227 793.947 93.0376 803.981 93.0376 818.616ZM152.754 841.967L163.274 840.994C164.166 845.94 165.869 849.528 168.382 851.758C170.896 853.987 174.119 855.102 178.051 855.102C181.416 855.102 184.355 854.332 186.869 852.791C189.423 851.251 191.511 849.204 193.132 846.65C194.754 844.055 196.112 840.569 197.206 836.19C198.301 831.812 198.848 827.352 198.848 822.812C198.848 822.325 198.828 821.596 198.788 820.623C196.598 824.109 193.598 826.947 189.788 829.136C186.017 831.285 181.923 832.359 177.504 832.359C170.125 832.359 163.882 829.683 158.774 824.332C153.666 818.981 151.112 811.927 151.112 803.17C151.112 794.129 153.767 786.852 159.078 781.339C164.429 775.825 171.119 773.069 179.146 773.069C184.943 773.069 190.234 774.629 195.017 777.751C199.842 780.873 203.49 785.332 205.963 791.129C208.477 796.886 209.734 805.237 209.734 816.183C209.734 827.575 208.497 836.656 206.024 843.427C203.551 850.156 199.862 855.285 194.956 858.812C190.092 862.339 184.375 864.102 177.808 864.102C170.835 864.102 165.139 862.177 160.72 858.325C156.301 854.433 153.646 848.981 152.754 841.967ZM197.571 802.623C197.571 796.339 195.889 791.352 192.524 787.663C189.2 783.974 185.186 782.129 180.484 782.129C175.619 782.129 171.382 784.116 167.774 788.089C164.166 792.062 162.362 797.21 162.362 803.535C162.362 809.21 164.065 813.832 167.47 817.4C170.916 820.927 175.152 822.69 180.179 822.69C185.247 822.69 189.402 820.927 192.646 817.4C195.929 813.832 197.571 808.906 197.571 802.623ZM53.693 1005.58H42.747V935.832C40.1119 938.346 36.6457 940.859 32.3484 943.373C28.0916 945.886 24.2605 947.771 20.8551 949.028V938.447C26.9767 935.569 32.3281 932.082 36.9092 927.987C41.4903 923.893 44.7335 919.92 46.6389 916.069H53.693V1005.58ZM113.774 1005.58H102.828V935.832C100.193 938.346 96.7267 940.859 92.4294 943.373C88.1727 945.886 84.3416 947.771 80.9362 949.028V938.447C87.0578 935.569 92.4092 932.082 96.9903 927.987C101.571 923.893 104.815 919.92 106.72 916.069H113.774V1005.58ZM143.511 984.967L154.031 983.994C154.923 988.94 156.625 992.528 159.139 994.758C161.652 996.987 164.875 998.102 168.808 998.102C172.173 998.102 175.112 997.332 177.625 995.791C180.179 994.251 182.267 992.204 183.889 989.65C185.511 987.055 186.869 983.569 187.963 979.19C189.058 974.812 189.605 970.352 189.605 965.812C189.605 965.325 189.585 964.596 189.544 963.623C187.355 967.109 184.355 969.947 180.544 972.136C176.774 974.285 172.679 975.359 168.261 975.359C160.882 975.359 154.639 972.683 149.531 967.332C144.423 961.981 141.869 954.927 141.869 946.17C141.869 937.129 144.524 929.852 149.835 924.339C155.186 918.825 161.875 916.069 169.902 916.069C175.7 916.069 180.99 917.629 185.774 920.751C190.598 923.873 194.247 928.332 196.72 934.129C199.234 939.886 200.49 948.237 200.49 959.183C200.49 970.575 199.254 979.656 196.781 986.427C194.308 993.156 190.619 998.285 185.713 1001.81C180.848 1005.34 175.132 1007.1 168.565 1007.1C161.592 1007.1 155.896 1005.18 151.477 1001.33C147.058 997.433 144.402 991.981 143.511 984.967ZM188.328 945.623C188.328 939.339 186.646 934.352 183.281 930.663C179.956 926.974 175.943 925.129 171.24 925.129C166.375 925.129 162.139 927.116 158.531 931.089C154.923 935.062 153.119 940.21 153.119 946.535C153.119 952.21 154.821 956.832 158.227 960.4C161.673 963.927 165.909 965.69 170.936 965.69C176.004 965.69 180.159 963.927 183.402 960.4C186.686 956.832 188.328 951.906 188.328 945.623ZM53.693 1148.58H42.747V1078.83C40.1119 1081.35 36.6457 1083.86 32.3484 1086.37C28.0916 1088.89 24.2605 1090.77 20.8551 1092.03V1081.45C26.9767 1078.57 32.3281 1075.08 36.9092 1070.99C41.4903 1066.89 44.7335 1062.92 46.6389 1059.07H53.693V1148.58ZM139.315 1138.06V1148.58H80.3889C80.3078 1145.95 80.7335 1143.41 81.6659 1140.98C83.1659 1136.97 85.5578 1133.01 88.8416 1129.12C92.1659 1125.23 96.9497 1120.73 103.193 1115.62C112.882 1107.68 119.429 1101.39 122.835 1096.77C126.24 1092.11 127.943 1087.71 127.943 1083.58C127.943 1079.24 126.382 1075.59 123.261 1072.63C120.179 1069.63 116.146 1068.13 111.159 1068.13C105.889 1068.13 101.673 1069.71 98.5105 1072.87C95.3484 1076.03 93.747 1080.41 93.7065 1086.01L82.4565 1084.85C83.2267 1076.46 86.1254 1070.08 91.1524 1065.7C96.1794 1061.28 102.929 1059.07 111.402 1059.07C119.956 1059.07 126.727 1061.44 131.713 1066.18C136.7 1070.93 139.193 1076.81 139.193 1083.82C139.193 1087.39 138.463 1090.89 137.004 1094.34C135.544 1097.78 133.112 1101.41 129.706 1105.22C126.342 1109.03 120.727 1114.26 112.862 1120.91C106.294 1126.43 102.078 1130.18 100.213 1132.16C98.3484 1134.11 96.8078 1136.08 95.5916 1138.06H139.315ZM152.754 1127.97L163.274 1126.99C164.166 1131.94 165.869 1135.53 168.382 1137.76C170.896 1139.99 174.119 1141.1 178.051 1141.1C181.416 1141.1 184.355 1140.33 186.869 1138.79C189.423 1137.25 191.511 1135.2 193.132 1132.65C194.754 1130.06 196.112 1126.57 197.206 1122.19C198.301 1117.81 198.848 1113.35 198.848 1108.81C198.848 1108.33 198.828 1107.6 198.788 1106.62C196.598 1110.11 193.598 1112.95 189.788 1115.14C186.017 1117.28 181.923 1118.36 177.504 1118.36C170.125 1118.36 163.882 1115.68 158.774 1110.33C153.666 1104.98 151.112 1097.93 151.112 1089.17C151.112 1080.13 153.767 1072.85 159.078 1067.34C164.429 1061.83 171.119 1059.07 179.146 1059.07C184.943 1059.07 190.234 1060.63 195.017 1063.75C199.842 1066.87 203.49 1071.33 205.963 1077.13C208.477 1082.89 209.734 1091.24 209.734 1102.18C209.734 1113.58 208.497 1122.66 206.024 1129.43C203.551 1136.16 199.862 1141.28 194.956 1144.81C190.092 1148.34 184.375 1150.1 177.808 1150.1C170.835 1150.1 165.139 1148.18 160.72 1144.33C156.301 1140.43 153.646 1134.98 152.754 1127.97ZM197.571 1088.62C197.571 1082.34 195.889 1077.35 192.524 1073.66C189.2 1069.97 185.186 1068.13 180.484 1068.13C175.619 1068.13 171.382 1070.12 167.774 1074.09C164.166 1078.06 162.362 1083.21 162.362 1089.53C162.362 1095.21 164.065 1099.83 167.47 1103.4C170.916 1106.93 175.152 1108.69 180.179 1108.69C185.247 1108.69 189.402 1106.93 192.646 1103.4C195.929 1099.83 197.571 1094.91 197.571 1088.62ZM53.693 1291.58H42.747V1221.83C40.1119 1224.35 36.6457 1226.86 32.3484 1229.37C28.0916 1231.89 24.2605 1233.77 20.8551 1235.03V1224.45C26.9767 1221.57 32.3281 1218.08 36.9092 1213.99C41.4903 1209.89 44.7335 1205.92 46.6389 1202.07H53.693V1291.58ZM81.8484 1268.05L92.7943 1266.59C94.0511 1272.79 96.1794 1277.27 99.1794 1280.03C102.22 1282.74 105.909 1284.1 110.247 1284.1C115.396 1284.1 119.734 1282.32 123.261 1278.75C126.828 1275.18 128.612 1270.76 128.612 1265.49C128.612 1260.47 126.97 1256.33 123.686 1253.09C120.402 1249.81 116.227 1248.16 111.159 1248.16C109.092 1248.16 106.517 1248.57 103.436 1249.38L104.652 1239.77C105.382 1239.85 105.97 1239.89 106.416 1239.89C111.078 1239.89 115.274 1238.68 119.004 1236.24C122.734 1233.81 124.598 1230.06 124.598 1224.99C124.598 1220.98 123.24 1217.66 120.524 1215.02C117.808 1212.39 114.301 1211.07 110.004 1211.07C105.747 1211.07 102.2 1212.41 99.3619 1215.08C96.524 1217.76 94.6997 1221.77 93.8889 1227.12L82.943 1225.18C84.2808 1217.84 87.3213 1212.16 92.0646 1208.15C96.8078 1204.1 102.706 1202.07 109.761 1202.07C114.625 1202.07 119.105 1203.12 123.2 1205.23C127.294 1207.3 130.416 1210.14 132.565 1213.74C134.754 1217.35 135.848 1221.18 135.848 1225.24C135.848 1229.09 134.815 1232.6 132.747 1235.76C130.679 1238.92 127.619 1241.43 123.565 1243.3C128.835 1244.51 132.929 1247.05 135.848 1250.9C138.767 1254.71 140.227 1259.49 140.227 1265.25C140.227 1273.03 137.389 1279.64 131.713 1285.08C126.038 1290.47 118.862 1293.16 110.186 1293.16C102.362 1293.16 95.8551 1290.83 90.6659 1286.17C85.5173 1281.51 82.5781 1275.47 81.8484 1268.05ZM152.754 1270.97L163.274 1269.99C164.166 1274.94 165.869 1278.53 168.382 1280.76C170.896 1282.99 174.119 1284.1 178.051 1284.1C181.416 1284.1 184.355 1283.33 186.869 1281.79C189.423 1280.25 191.511 1278.2 193.132 1275.65C194.754 1273.06 196.112 1269.57 197.206 1265.19C198.301 1260.81 198.848 1256.35 198.848 1251.81C198.848 1251.33 198.828 1250.6 198.788 1249.62C196.598 1253.11 193.598 1255.95 189.788 1258.14C186.017 1260.28 181.923 1261.36 177.504 1261.36C170.125 1261.36 163.882 1258.68 158.774 1253.33C153.666 1247.98 151.112 1240.93 151.112 1232.17C151.112 1223.13 153.767 1215.85 159.078 1210.34C164.429 1204.83 171.119 1202.07 179.146 1202.07C184.943 1202.07 190.234 1203.63 195.017 1206.75C199.842 1209.87 203.49 1214.33 205.963 1220.13C208.477 1225.89 209.734 1234.24 209.734 1245.18C209.734 1256.58 208.497 1265.66 206.024 1272.43C203.551 1279.16 199.862 1284.28 194.956 1287.81C190.092 1291.34 184.375 1293.1 177.808 1293.1C170.835 1293.1 165.139 1291.18 160.72 1287.33C156.301 1283.43 153.646 1277.98 152.754 1270.97ZM197.571 1231.62C197.571 1225.34 195.889 1220.35 192.524 1216.66C189.2 1212.97 185.186 1211.13 180.484 1211.13C175.619 1211.13 171.382 1213.12 167.774 1217.09C164.166 1221.06 162.362 1226.21 162.362 1232.53C162.362 1238.21 164.065 1242.83 167.47 1246.4C170.916 1249.93 175.152 1251.69 180.179 1251.69C185.247 1251.69 189.402 1249.93 192.646 1246.4C195.929 1242.83 197.571 1237.91 197.571 1231.62ZM53.693 1434.58H42.747V1364.83C40.1119 1367.35 36.6457 1369.86 32.3484 1372.37C28.0916 1374.89 24.2605 1376.77 20.8551 1378.03V1367.45C26.9767 1364.57 32.3281 1361.08 36.9092 1356.99C41.4903 1352.89 44.7335 1348.92 46.6389 1345.07H53.693V1434.58ZM116.875 1434.58V1413.24H78.1997V1403.2L118.882 1345.43H127.821V1403.2H139.862V1413.24H127.821V1434.58H116.875ZM116.875 1403.2V1363.01L88.9632 1403.2H116.875ZM152.754 1413.97L163.274 1412.99C164.166 1417.94 165.869 1421.53 168.382 1423.76C170.896 1425.99 174.119 1427.1 178.051 1427.1C181.416 1427.1 184.355 1426.33 186.869 1424.79C189.423 1423.25 191.511 1421.2 193.132 1418.65C194.754 1416.06 196.112 1412.57 197.206 1408.19C198.301 1403.81 198.848 1399.35 198.848 1394.81C198.848 1394.33 198.828 1393.6 198.788 1392.62C196.598 1396.11 193.598 1398.95 189.788 1401.14C186.017 1403.28 181.923 1404.36 177.504 1404.36C170.125 1404.36 163.882 1401.68 158.774 1396.33C153.666 1390.98 151.112 1383.93 151.112 1375.17C151.112 1366.13 153.767 1358.85 159.078 1353.34C164.429 1347.83 171.119 1345.07 179.146 1345.07C184.943 1345.07 190.234 1346.63 195.017 1349.75C199.842 1352.87 203.49 1357.33 205.963 1363.13C208.477 1368.89 209.734 1377.24 209.734 1388.18C209.734 1399.58 208.497 1408.66 206.024 1415.43C203.551 1422.16 199.862 1427.28 194.956 1430.81C190.092 1434.34 184.375 1436.1 177.808 1436.1C170.835 1436.1 165.139 1434.18 160.72 1430.33C156.301 1426.43 153.646 1420.98 152.754 1413.97ZM197.571 1374.62C197.571 1368.34 195.889 1363.35 192.524 1359.66C189.2 1355.97 185.186 1354.13 180.484 1354.13C175.619 1354.13 171.382 1356.12 167.774 1360.09C164.166 1364.06 162.362 1369.21 162.362 1375.53C162.362 1381.21 164.065 1385.83 167.47 1389.4C170.916 1392.93 175.152 1394.69 180.179 1394.69C185.247 1394.69 189.402 1392.93 192.646 1389.4C195.929 1385.83 197.571 1380.91 197.571 1374.62ZM53.693 1577.58H42.747V1507.83C40.1119 1510.35 36.6457 1512.86 32.3484 1515.37C28.0916 1517.89 24.2605 1519.77 20.8551 1521.03V1510.45C26.9767 1507.57 32.3281 1504.08 36.9092 1499.99C41.4903 1495.89 44.7335 1491.92 46.6389 1488.07H53.693V1577.58ZM81.7876 1554.23L93.2808 1553.26C94.1322 1558.85 96.0984 1563.07 99.1794 1565.91C102.301 1568.7 106.051 1570.1 110.429 1570.1C115.7 1570.1 120.159 1568.12 123.808 1564.14C127.456 1560.17 129.281 1554.9 129.281 1548.33C129.281 1542.09 127.517 1537.16 123.99 1533.56C120.504 1529.95 115.923 1528.14 110.247 1528.14C106.72 1528.14 103.538 1528.95 100.7 1530.58C97.8619 1532.16 95.6322 1534.22 94.0105 1536.78L83.7335 1535.44L92.3686 1489.65H136.7V1500.11H101.125L96.3213 1524.07C101.673 1520.34 107.288 1518.47 113.166 1518.47C120.95 1518.47 127.517 1521.17 132.869 1526.56C138.22 1531.95 140.896 1538.89 140.896 1547.36C140.896 1555.43 138.544 1562.4 133.842 1568.28C128.125 1575.49 120.321 1579.1 110.429 1579.1C102.321 1579.1 95.693 1576.83 90.5443 1572.29C85.4362 1567.75 82.5173 1561.73 81.7876 1554.23ZM152.754 1556.97L163.274 1555.99C164.166 1560.94 165.869 1564.53 168.382 1566.76C170.896 1568.99 174.119 1570.1 178.051 1570.1C181.416 1570.1 184.355 1569.33 186.869 1567.79C189.423 1566.25 191.511 1564.2 193.132 1561.65C194.754 1559.06 196.112 1555.57 197.206 1551.19C198.301 1546.81 198.848 1542.35 198.848 1537.81C198.848 1537.33 198.828 1536.6 198.788 1535.62C196.598 1539.11 193.598 1541.95 189.788 1544.14C186.017 1546.28 181.923 1547.36 177.504 1547.36C170.125 1547.36 163.882 1544.68 158.774 1539.33C153.666 1533.98 151.112 1526.93 151.112 1518.17C151.112 1509.13 153.767 1501.85 159.078 1496.34C164.429 1490.83 171.119 1488.07 179.146 1488.07C184.943 1488.07 190.234 1489.63 195.017 1492.75C199.842 1495.87 203.49 1500.33 205.963 1506.13C208.477 1511.89 209.734 1520.24 209.734 1531.18C209.734 1542.58 208.497 1551.66 206.024 1558.43C203.551 1565.16 199.862 1570.28 194.956 1573.81C190.092 1577.34 184.375 1579.1 177.808 1579.1C170.835 1579.1 165.139 1577.18 160.72 1573.33C156.301 1569.43 153.646 1563.98 152.754 1556.97ZM197.571 1517.62C197.571 1511.34 195.889 1506.35 192.524 1502.66C189.2 1498.97 185.186 1497.13 180.484 1497.13C175.619 1497.13 171.382 1499.12 167.774 1503.09C164.166 1507.06 162.362 1512.21 162.362 1518.53C162.362 1524.21 164.065 1528.83 167.47 1532.4C170.916 1535.93 175.152 1537.69 180.179 1537.69C185.247 1537.69 189.402 1535.93 192.646 1532.4C195.929 1528.83 197.571 1523.91 197.571 1517.62ZM53.693 1720.58H42.747V1650.83C40.1119 1653.35 36.6457 1655.86 32.3484 1658.37C28.0916 1660.89 24.2605 1662.77 20.8551 1664.03V1653.45C26.9767 1650.57 32.3281 1647.08 36.9092 1642.99C41.4903 1638.89 44.7335 1634.92 46.6389 1631.07H53.693V1720.58ZM138.585 1653.26L127.7 1654.12C126.727 1649.82 125.348 1646.7 123.565 1644.75C120.605 1641.63 116.956 1640.07 112.619 1640.07C109.132 1640.07 106.071 1641.04 103.436 1642.99C99.9903 1645.5 97.274 1649.17 95.2876 1653.99C93.3011 1658.82 92.2673 1665.69 92.1862 1674.61C94.8213 1670.6 98.0443 1667.62 101.855 1665.67C105.666 1663.72 109.659 1662.75 113.835 1662.75C121.132 1662.75 127.335 1665.45 132.443 1670.84C137.592 1676.19 140.166 1683.12 140.166 1691.64C140.166 1697.23 138.95 1702.44 136.517 1707.26C134.125 1712.05 130.821 1715.72 126.605 1718.27C122.389 1720.83 117.605 1722.1 112.254 1722.1C103.132 1722.1 95.693 1718.76 89.9362 1712.07C84.1794 1705.34 81.3011 1694.27 81.3011 1678.87C81.3011 1661.64 84.4835 1649.11 90.8484 1641.28C96.4024 1634.47 103.882 1631.07 113.288 1631.07C120.301 1631.07 126.038 1633.03 130.497 1636.97C134.997 1640.9 137.693 1646.33 138.585 1653.26ZM93.8889 1691.7C93.8889 1695.47 94.6794 1699.08 96.2605 1702.52C97.8822 1705.97 100.132 1708.6 103.011 1710.43C105.889 1712.21 108.909 1713.1 112.071 1713.1C116.693 1713.1 120.666 1711.24 123.99 1707.51C127.315 1703.78 128.977 1698.71 128.977 1692.31C128.977 1686.14 127.335 1681.3 124.051 1677.77C120.767 1674.2 116.632 1672.42 111.646 1672.42C106.7 1672.42 102.504 1674.2 99.0578 1677.77C95.6119 1681.3 93.8889 1685.94 93.8889 1691.7ZM152.754 1699.97L163.274 1698.99C164.166 1703.94 165.869 1707.53 168.382 1709.76C170.896 1711.99 174.119 1713.1 178.051 1713.1C181.416 1713.1 184.355 1712.33 186.869 1710.79C189.423 1709.25 191.511 1707.2 193.132 1704.65C194.754 1702.06 196.112 1698.57 197.206 1694.19C198.301 1689.81 198.848 1685.35 198.848 1680.81C198.848 1680.33 198.828 1679.6 198.788 1678.62C196.598 1682.11 193.598 1684.95 189.788 1687.14C186.017 1689.28 181.923 1690.36 177.504 1690.36C170.125 1690.36 163.882 1687.68 158.774 1682.33C153.666 1676.98 151.112 1669.93 151.112 1661.17C151.112 1652.13 153.767 1644.85 159.078 1639.34C164.429 1633.83 171.119 1631.07 179.146 1631.07C184.943 1631.07 190.234 1632.63 195.017 1635.75C199.842 1638.87 203.49 1643.33 205.963 1649.13C208.477 1654.89 209.734 1663.24 209.734 1674.18C209.734 1685.58 208.497 1694.66 206.024 1701.43C203.551 1708.16 199.862 1713.28 194.956 1716.81C190.092 1720.34 184.375 1722.1 177.808 1722.1C170.835 1722.1 165.139 1720.18 160.72 1716.33C156.301 1712.43 153.646 1706.98 152.754 1699.97ZM197.571 1660.62C197.571 1654.34 195.889 1649.35 192.524 1645.66C189.2 1641.97 185.186 1640.13 180.484 1640.13C175.619 1640.13 171.382 1642.12 167.774 1646.09C164.166 1650.06 162.362 1655.21 162.362 1661.53C162.362 1667.21 164.065 1671.83 167.47 1675.4C170.916 1678.93 175.152 1680.69 180.179 1680.69C185.247 1680.69 189.402 1678.93 192.646 1675.4C195.929 1671.83 197.571 1666.91 197.571 1660.62ZM53.693 1863.58H42.747V1793.83C40.1119 1796.35 36.6457 1798.86 32.3484 1801.37C28.0916 1803.89 24.2605 1805.77 20.8551 1807.03V1796.45C26.9767 1793.57 32.3281 1790.08 36.9092 1785.99C41.4903 1781.89 44.7335 1777.92 46.6389 1774.07H53.693V1863.58ZM82.5173 1786.11V1775.59H140.227V1784.1C134.551 1790.14 128.916 1798.17 123.321 1808.18C117.767 1818.2 113.47 1828.49 110.429 1839.08C108.24 1846.53 106.842 1854.7 106.234 1863.58H94.9835C95.1051 1856.57 96.4835 1848.1 99.1186 1838.16C101.754 1828.23 105.524 1818.66 110.429 1809.46C115.375 1800.22 120.625 1792.43 126.179 1786.11H82.5173ZM152.754 1842.97L163.274 1841.99C164.166 1846.94 165.869 1850.53 168.382 1852.76C170.896 1854.99 174.119 1856.1 178.051 1856.1C181.416 1856.1 184.355 1855.33 186.869 1853.79C189.423 1852.25 191.511 1850.2 193.132 1847.65C194.754 1845.06 196.112 1841.57 197.206 1837.19C198.301 1832.81 198.848 1828.35 198.848 1823.81C198.848 1823.33 198.828 1822.6 198.788 1821.62C196.598 1825.11 193.598 1827.95 189.788 1830.14C186.017 1832.28 181.923 1833.36 177.504 1833.36C170.125 1833.36 163.882 1830.68 158.774 1825.33C153.666 1819.98 151.112 1812.93 151.112 1804.17C151.112 1795.13 153.767 1787.85 159.078 1782.34C164.429 1776.83 171.119 1774.07 179.146 1774.07C184.943 1774.07 190.234 1775.63 195.017 1778.75C199.842 1781.87 203.49 1786.33 205.963 1792.13C208.477 1797.89 209.734 1806.24 209.734 1817.18C209.734 1828.58 208.497 1837.66 206.024 1844.43C203.551 1851.16 199.862 1856.28 194.956 1859.81C190.092 1863.34 184.375 1865.1 177.808 1865.1C170.835 1865.1 165.139 1863.18 160.72 1859.33C156.301 1855.43 153.646 1849.98 152.754 1842.97ZM197.571 1803.62C197.571 1797.34 195.889 1792.35 192.524 1788.66C189.2 1784.97 185.186 1783.13 180.484 1783.13C175.619 1783.13 171.382 1785.12 167.774 1789.09C164.166 1793.06 162.362 1798.21 162.362 1804.53C162.362 1810.21 164.065 1814.83 167.47 1818.4C170.916 1821.93 175.152 1823.69 180.179 1823.69C185.247 1823.69 189.402 1821.93 192.646 1818.4C195.929 1814.83 197.571 1809.91 197.571 1803.62ZM53.693 2006.58H42.747V1936.83C40.1119 1939.35 36.6457 1941.86 32.3484 1944.37C28.0916 1946.89 24.2605 1948.77 20.8551 1950.03V1939.45C26.9767 1936.57 32.3281 1933.08 36.9092 1928.99C41.4903 1924.89 44.7335 1920.92 46.6389 1917.07H53.693V2006.58ZM98.6322 1958.24C94.0916 1956.58 90.7267 1954.2 88.5376 1951.12C86.3484 1948.04 85.2538 1944.35 85.2538 1940.06C85.2538 1933.57 87.5849 1928.12 92.247 1923.7C96.9092 1919.28 103.112 1917.07 110.855 1917.07C118.639 1917.07 124.902 1919.34 129.646 1923.88C134.389 1928.38 136.761 1933.87 136.761 1940.36C136.761 1944.49 135.666 1948.1 133.477 1951.18C131.328 1954.22 128.044 1956.58 123.625 1958.24C129.098 1960.02 133.254 1962.9 136.092 1966.87C138.97 1970.85 140.409 1975.59 140.409 1981.1C140.409 1988.72 137.713 1995.13 132.321 2000.32C126.929 2005.51 119.835 2008.1 111.038 2008.1C102.24 2008.1 95.1457 2005.51 89.7538 2000.32C84.3619 1995.09 81.6659 1988.58 81.6659 1980.8C81.6659 1975 83.1254 1970.16 86.0443 1966.26C89.0038 1962.33 93.1997 1959.66 98.6322 1958.24ZM96.443 1939.69C96.443 1943.91 97.8011 1947.35 100.517 1950.03C103.234 1952.7 106.761 1954.04 111.098 1954.04C115.315 1954.04 118.761 1952.72 121.436 1950.09C124.152 1947.41 125.511 1944.15 125.511 1940.3C125.511 1936.28 124.112 1932.92 121.315 1930.2C118.558 1927.45 115.112 1926.07 110.977 1926.07C106.801 1926.07 103.335 1927.41 100.578 1930.08C97.8213 1932.76 96.443 1935.96 96.443 1939.69ZM92.9159 1980.86C92.9159 1983.98 93.6457 1987 95.1051 1989.92C96.6051 1992.84 98.8146 1995.11 101.734 1996.73C104.652 1998.31 107.794 1999.1 111.159 1999.1C116.389 1999.1 120.706 1997.42 124.112 1994.06C127.517 1990.69 129.22 1986.41 129.22 1981.22C129.22 1975.95 127.456 1971.6 123.929 1968.15C120.443 1964.7 116.065 1962.98 110.794 1962.98C105.646 1962.98 101.369 1964.68 97.9632 1968.09C94.5984 1971.49 92.9159 1975.75 92.9159 1980.86ZM152.754 1985.97L163.274 1984.99C164.166 1989.94 165.869 1993.53 168.382 1995.76C170.896 1997.99 174.119 1999.1 178.051 1999.1C181.416 1999.1 184.355 1998.33 186.869 1996.79C189.423 1995.25 191.511 1993.2 193.132 1990.65C194.754 1988.06 196.112 1984.57 197.206 1980.19C198.301 1975.81 198.848 1971.35 198.848 1966.81C198.848 1966.33 198.828 1965.6 198.788 1964.62C196.598 1968.11 193.598 1970.95 189.788 1973.14C186.017 1975.28 181.923 1976.36 177.504 1976.36C170.125 1976.36 163.882 1973.68 158.774 1968.33C153.666 1962.98 151.112 1955.93 151.112 1947.17C151.112 1938.13 153.767 1930.85 159.078 1925.34C164.429 1919.83 171.119 1917.07 179.146 1917.07C184.943 1917.07 190.234 1918.63 195.017 1921.75C199.842 1924.87 203.49 1929.33 205.963 1935.13C208.477 1940.89 209.734 1949.24 209.734 1960.18C209.734 1971.58 208.497 1980.66 206.024 1987.43C203.551 1994.16 199.862 1999.28 194.956 2002.81C190.092 2006.34 184.375 2008.1 177.808 2008.1C170.835 2008.1 165.139 2006.18 160.72 2002.33C156.301 1998.43 153.646 1992.98 152.754 1985.97ZM197.571 1946.62C197.571 1940.34 195.889 1935.35 192.524 1931.66C189.2 1927.97 185.186 1926.13 180.484 1926.13C175.619 1926.13 171.382 1928.12 167.774 1932.09C164.166 1936.06 162.362 1941.21 162.362 1947.53C162.362 1953.21 164.065 1957.83 167.47 1961.4C170.916 1964.93 175.152 1966.69 180.179 1966.69C185.247 1966.69 189.402 1964.93 192.646 1961.4C195.929 1957.83 197.571 1952.91 197.571 1946.62ZM53.693 2149.58H42.747V2079.83C40.1119 2082.35 36.6457 2084.86 32.3484 2087.37C28.0916 2089.89 24.2605 2091.77 20.8551 2093.03V2082.45C26.9767 2079.57 32.3281 2076.08 36.9092 2071.99C41.4903 2067.89 44.7335 2063.92 46.6389 2060.07H53.693V2149.58ZM83.4294 2128.97L93.9497 2127.99C94.8416 2132.94 96.5443 2136.53 99.0578 2138.76C101.571 2140.99 104.794 2142.1 108.727 2142.1C112.092 2142.1 115.031 2141.33 117.544 2139.79C120.098 2138.25 122.186 2136.2 123.808 2133.65C125.429 2131.06 126.788 2127.57 127.882 2123.19C128.977 2118.81 129.524 2114.35 129.524 2109.81C129.524 2109.33 129.504 2108.6 129.463 2107.62C127.274 2111.11 124.274 2113.95 120.463 2116.14C116.693 2118.28 112.598 2119.36 108.179 2119.36C100.801 2119.36 94.5578 2116.68 89.4497 2111.33C84.3416 2105.98 81.7876 2098.93 81.7876 2090.17C81.7876 2081.13 84.443 2073.85 89.7538 2068.34C95.1051 2062.83 101.794 2060.07 109.821 2060.07C115.619 2060.07 120.909 2061.63 125.693 2064.75C130.517 2067.87 134.166 2072.33 136.639 2078.13C139.152 2083.89 140.409 2092.24 140.409 2103.18C140.409 2114.58 139.173 2123.66 136.7 2130.43C134.227 2137.16 130.538 2142.28 125.632 2145.81C120.767 2149.34 115.051 2151.1 108.484 2151.1C101.511 2151.1 95.8146 2149.18 91.3957 2145.33C86.9767 2141.43 84.3213 2135.98 83.4294 2128.97ZM128.247 2089.62C128.247 2083.34 126.565 2078.35 123.2 2074.66C119.875 2070.97 115.862 2069.13 111.159 2069.13C106.294 2069.13 102.058 2071.12 98.4497 2075.09C94.8416 2079.06 93.0376 2084.21 93.0376 2090.53C93.0376 2096.21 94.7403 2100.83 98.1457 2104.4C101.592 2107.93 105.828 2109.69 110.855 2109.69C115.923 2109.69 120.078 2107.93 123.321 2104.4C126.605 2100.83 128.247 2095.91 128.247 2089.62ZM152.754 2128.97L163.274 2127.99C164.166 2132.94 165.869 2136.53 168.382 2138.76C170.896 2140.99 174.119 2142.1 178.051 2142.1C181.416 2142.1 184.355 2141.33 186.869 2139.79C189.423 2138.25 191.511 2136.2 193.132 2133.65C194.754 2131.06 196.112 2127.57 197.206 2123.19C198.301 2118.81 198.848 2114.35 198.848 2109.81C198.848 2109.33 198.828 2108.6 198.788 2107.62C196.598 2111.11 193.598 2113.95 189.788 2116.14C186.017 2118.28 181.923 2119.36 177.504 2119.36C170.125 2119.36 163.882 2116.68 158.774 2111.33C153.666 2105.98 151.112 2098.93 151.112 2090.17C151.112 2081.13 153.767 2073.85 159.078 2068.34C164.429 2062.83 171.119 2060.07 179.146 2060.07C184.943 2060.07 190.234 2061.63 195.017 2064.75C199.842 2067.87 203.49 2072.33 205.963 2078.13C208.477 2083.89 209.734 2092.24 209.734 2103.18C209.734 2114.58 208.497 2123.66 206.024 2130.43C203.551 2137.16 199.862 2142.28 194.956 2145.81C190.092 2149.34 184.375 2151.1 177.808 2151.1C170.835 2151.1 165.139 2149.18 160.72 2145.33C156.301 2141.43 153.646 2135.98 152.754 2128.97ZM197.571 2089.62C197.571 2083.34 195.889 2078.35 192.524 2074.66C189.2 2070.97 185.186 2069.13 180.484 2069.13C175.619 2069.13 171.382 2071.12 167.774 2075.09C164.166 2079.06 162.362 2084.21 162.362 2090.53C162.362 2096.21 164.065 2100.83 167.47 2104.4C170.916 2107.93 175.152 2109.69 180.179 2109.69C185.247 2109.69 189.402 2107.93 192.646 2104.4C195.929 2100.83 197.571 2095.91 197.571 2089.62ZM69.9903 2282.06V2292.58H11.0646C10.9835 2289.95 11.4092 2287.41 12.3416 2284.98C13.8416 2280.97 16.2335 2277.01 19.5173 2273.12C22.8416 2269.23 27.6254 2264.73 33.8686 2259.62C43.5578 2251.68 50.1051 2245.39 53.5105 2240.77C56.9159 2236.11 58.6186 2231.71 58.6186 2227.58C58.6186 2223.24 57.0578 2219.59 53.9362 2216.63C50.8551 2213.63 46.8213 2212.13 41.8349 2212.13C36.5646 2212.13 32.3484 2213.71 29.1862 2216.87C26.024 2220.03 24.4227 2224.41 24.3821 2230.01L13.1321 2228.85C13.9024 2220.46 16.8011 2214.08 21.8281 2209.7C26.8551 2205.28 33.6051 2203.07 42.0781 2203.07C50.6322 2203.07 57.4024 2205.44 62.3889 2210.18C67.3754 2214.93 69.8686 2220.81 69.8686 2227.82C69.8686 2231.39 69.1389 2234.89 67.6794 2238.34C66.22 2241.78 63.7876 2245.41 60.3822 2249.22C57.0173 2253.03 51.4024 2258.26 43.5376 2264.91C36.97 2270.43 32.7538 2274.18 30.8889 2276.16C29.024 2278.11 27.4835 2280.08 26.2673 2282.06H69.9903ZM81.7876 2248.62C81.7876 2238.08 82.8619 2229.6 85.0105 2223.2C87.1997 2216.75 90.4227 2211.78 94.6794 2208.3C98.9767 2204.81 104.369 2203.07 110.855 2203.07C115.639 2203.07 119.835 2204.04 123.443 2205.99C127.051 2207.89 130.031 2210.67 132.382 2214.32C134.734 2217.93 136.578 2222.35 137.916 2227.58C139.254 2232.76 139.923 2239.78 139.923 2248.62C139.923 2259.08 138.848 2267.53 136.7 2273.97C134.551 2280.38 131.328 2285.35 127.031 2288.87C122.774 2292.36 117.382 2294.1 110.855 2294.1C102.261 2294.1 95.5105 2291.02 90.6051 2284.86C84.7267 2277.44 81.7876 2265.36 81.7876 2248.62ZM93.0376 2248.62C93.0376 2263.25 94.7403 2273 98.1457 2277.87C101.592 2282.69 105.828 2285.1 110.855 2285.1C115.882 2285.1 120.098 2282.67 123.504 2277.81C126.95 2272.94 128.673 2263.21 128.673 2248.62C128.673 2233.94 126.95 2224.19 123.504 2219.37C120.098 2214.54 115.842 2212.13 110.734 2212.13C105.706 2212.13 101.693 2214.26 98.693 2218.51C94.9227 2223.95 93.0376 2233.98 93.0376 2248.62ZM152.754 2271.97L163.274 2270.99C164.166 2275.94 165.869 2279.53 168.382 2281.76C170.896 2283.99 174.119 2285.1 178.051 2285.1C181.416 2285.1 184.355 2284.33 186.869 2282.79C189.423 2281.25 191.511 2279.2 193.132 2276.65C194.754 2274.06 196.112 2270.57 197.206 2266.19C198.301 2261.81 198.848 2257.35 198.848 2252.81C198.848 2252.33 198.828 2251.6 198.788 2250.62C196.598 2254.11 193.598 2256.95 189.788 2259.14C186.017 2261.28 181.923 2262.36 177.504 2262.36C170.125 2262.36 163.882 2259.68 158.774 2254.33C153.666 2248.98 151.112 2241.93 151.112 2233.17C151.112 2224.13 153.767 2216.85 159.078 2211.34C164.429 2205.83 171.119 2203.07 179.146 2203.07C184.943 2203.07 190.234 2204.63 195.017 2207.75C199.842 2210.87 203.49 2215.33 205.963 2221.13C208.477 2226.89 209.734 2235.24 209.734 2246.18C209.734 2257.58 208.497 2266.66 206.024 2273.43C203.551 2280.16 199.862 2285.28 194.956 2288.81C190.092 2292.34 184.375 2294.1 177.808 2294.1C170.835 2294.1 165.139 2292.18 160.72 2288.33C156.301 2284.43 153.646 2278.98 152.754 2271.97ZM197.571 2232.62C197.571 2226.34 195.889 2221.35 192.524 2217.66C189.2 2213.97 185.186 2212.13 180.484 2212.13C175.619 2212.13 171.382 2214.12 167.774 2218.09C164.166 2222.06 162.362 2227.21 162.362 2233.53C162.362 2239.21 164.065 2243.83 167.47 2247.4C170.916 2250.93 175.152 2252.69 180.179 2252.69C185.247 2252.69 189.402 2250.93 192.646 2247.4C195.929 2243.83 197.571 2238.91 197.571 2232.62ZM69.9903 2425.06V2435.58H11.0646C10.9835 2432.95 11.4092 2430.41 12.3416 2427.98C13.8416 2423.97 16.2335 2420.01 19.5173 2416.12C22.8416 2412.23 27.6254 2407.73 33.8686 2402.62C43.5578 2394.68 50.1051 2388.39 53.5105 2383.77C56.9159 2379.11 58.6186 2374.71 58.6186 2370.58C58.6186 2366.24 57.0578 2362.59 53.9362 2359.63C50.8551 2356.63 46.8213 2355.13 41.8349 2355.13C36.5646 2355.13 32.3484 2356.71 29.1862 2359.87C26.024 2363.03 24.4227 2367.41 24.3821 2373.01L13.1321 2371.85C13.9024 2363.46 16.8011 2357.08 21.8281 2352.7C26.8551 2348.28 33.6051 2346.07 42.0781 2346.07C50.6322 2346.07 57.4024 2348.44 62.3889 2353.18C67.3754 2357.93 69.8686 2363.81 69.8686 2370.82C69.8686 2374.39 69.1389 2377.89 67.6794 2381.34C66.22 2384.78 63.7876 2388.41 60.3822 2392.22C57.0173 2396.03 51.4024 2401.26 43.5376 2407.91C36.97 2413.43 32.7538 2417.18 30.8889 2419.16C29.024 2421.11 27.4835 2423.08 26.2673 2425.06H69.9903ZM123.017 2435.58H112.071V2365.83C109.436 2368.35 105.97 2370.86 101.673 2373.37C97.4159 2375.89 93.5849 2377.77 90.1794 2379.03V2368.45C96.3011 2365.57 101.652 2362.08 106.234 2357.99C110.815 2353.89 114.058 2349.92 115.963 2346.07H123.017V2435.58ZM152.754 2414.97L163.274 2413.99C164.166 2418.94 165.869 2422.53 168.382 2424.76C170.896 2426.99 174.119 2428.1 178.051 2428.1C181.416 2428.1 184.355 2427.33 186.869 2425.79C189.423 2424.25 191.511 2422.2 193.132 2419.65C194.754 2417.06 196.112 2413.57 197.206 2409.19C198.301 2404.81 198.848 2400.35 198.848 2395.81C198.848 2395.33 198.828 2394.6 198.788 2393.62C196.598 2397.11 193.598 2399.95 189.788 2402.14C186.017 2404.28 181.923 2405.36 177.504 2405.36C170.125 2405.36 163.882 2402.68 158.774 2397.33C153.666 2391.98 151.112 2384.93 151.112 2376.17C151.112 2367.13 153.767 2359.85 159.078 2354.34C164.429 2348.83 171.119 2346.07 179.146 2346.07C184.943 2346.07 190.234 2347.63 195.017 2350.75C199.842 2353.87 203.49 2358.33 205.963 2364.13C208.477 2369.89 209.734 2378.24 209.734 2389.18C209.734 2400.58 208.497 2409.66 206.024 2416.43C203.551 2423.16 199.862 2428.28 194.956 2431.81C190.092 2435.34 184.375 2437.1 177.808 2437.1C170.835 2437.1 165.139 2435.18 160.72 2431.33C156.301 2427.43 153.646 2421.98 152.754 2414.97ZM197.571 2375.62C197.571 2369.34 195.889 2364.35 192.524 2360.66C189.2 2356.97 185.186 2355.13 180.484 2355.13C175.619 2355.13 171.382 2357.12 167.774 2361.09C164.166 2365.06 162.362 2370.21 162.362 2376.53C162.362 2382.21 164.065 2386.83 167.47 2390.4C170.916 2393.93 175.152 2395.69 180.179 2395.69C185.247 2395.69 189.402 2393.93 192.646 2390.4C195.929 2386.83 197.571 2381.91 197.571 2375.62ZM69.9903 2568.06V2578.58H11.0646C10.9835 2575.95 11.4092 2573.41 12.3416 2570.98C13.8416 2566.97 16.2335 2563.01 19.5173 2559.12C22.8416 2555.23 27.6254 2550.73 33.8686 2545.62C43.5578 2537.68 50.1051 2531.39 53.5105 2526.77C56.9159 2522.11 58.6186 2517.71 58.6186 2513.58C58.6186 2509.24 57.0578 2505.59 53.9362 2502.63C50.8551 2499.63 46.8213 2498.13 41.8349 2498.13C36.5646 2498.13 32.3484 2499.71 29.1862 2502.87C26.024 2506.03 24.4227 2510.41 24.3821 2516.01L13.1321 2514.85C13.9024 2506.46 16.8011 2500.08 21.8281 2495.7C26.8551 2491.28 33.6051 2489.07 42.0781 2489.07C50.6322 2489.07 57.4024 2491.44 62.3889 2496.18C67.3754 2500.93 69.8686 2506.81 69.8686 2513.82C69.8686 2517.39 69.1389 2520.89 67.6794 2524.34C66.22 2527.78 63.7876 2531.41 60.3822 2535.22C57.0173 2539.03 51.4024 2544.26 43.5376 2550.91C36.97 2556.43 32.7538 2560.18 30.8889 2562.16C29.024 2564.11 27.4835 2566.08 26.2673 2568.06H69.9903ZM139.315 2568.06V2578.58H80.3889C80.3078 2575.95 80.7335 2573.41 81.6659 2570.98C83.1659 2566.97 85.5578 2563.01 88.8416 2559.12C92.1659 2555.23 96.9497 2550.73 103.193 2545.62C112.882 2537.68 119.429 2531.39 122.835 2526.77C126.24 2522.11 127.943 2517.71 127.943 2513.58C127.943 2509.24 126.382 2505.59 123.261 2502.63C120.179 2499.63 116.146 2498.13 111.159 2498.13C105.889 2498.13 101.673 2499.71 98.5105 2502.87C95.3484 2506.03 93.747 2510.41 93.7065 2516.01L82.4565 2514.85C83.2267 2506.46 86.1254 2500.08 91.1524 2495.7C96.1794 2491.28 102.929 2489.07 111.402 2489.07C119.956 2489.07 126.727 2491.44 131.713 2496.18C136.7 2500.93 139.193 2506.81 139.193 2513.82C139.193 2517.39 138.463 2520.89 137.004 2524.34C135.544 2527.78 133.112 2531.41 129.706 2535.22C126.342 2539.03 120.727 2544.26 112.862 2550.91C106.294 2556.43 102.078 2560.18 100.213 2562.16C98.3484 2564.11 96.8078 2566.08 95.5916 2568.06H139.315ZM152.754 2557.97L163.274 2556.99C164.166 2561.94 165.869 2565.53 168.382 2567.76C170.896 2569.99 174.119 2571.1 178.051 2571.1C181.416 2571.1 184.355 2570.33 186.869 2568.79C189.423 2567.25 191.511 2565.2 193.132 2562.65C194.754 2560.06 196.112 2556.57 197.206 2552.19C198.301 2547.81 198.848 2543.35 198.848 2538.81C198.848 2538.33 198.828 2537.6 198.788 2536.62C196.598 2540.11 193.598 2542.95 189.788 2545.14C186.017 2547.28 181.923 2548.36 177.504 2548.36C170.125 2548.36 163.882 2545.68 158.774 2540.33C153.666 2534.98 151.112 2527.93 151.112 2519.17C151.112 2510.13 153.767 2502.85 159.078 2497.34C164.429 2491.83 171.119 2489.07 179.146 2489.07C184.943 2489.07 190.234 2490.63 195.017 2493.75C199.842 2496.87 203.49 2501.33 205.963 2507.13C208.477 2512.89 209.734 2521.24 209.734 2532.18C209.734 2543.58 208.497 2552.66 206.024 2559.43C203.551 2566.16 199.862 2571.28 194.956 2574.81C190.092 2578.34 184.375 2580.1 177.808 2580.1C170.835 2580.1 165.139 2578.18 160.72 2574.33C156.301 2570.43 153.646 2564.98 152.754 2557.97ZM197.571 2518.62C197.571 2512.34 195.889 2507.35 192.524 2503.66C189.2 2499.97 185.186 2498.13 180.484 2498.13C175.619 2498.13 171.382 2500.12 167.774 2504.09C164.166 2508.06 162.362 2513.21 162.362 2519.53C162.362 2525.21 164.065 2529.83 167.47 2533.4C170.916 2536.93 175.152 2538.69 180.179 2538.69C185.247 2538.69 189.402 2536.93 192.646 2533.4C195.929 2529.83 197.571 2524.91 197.571 2518.62ZM69.9903 2711.06V2721.58H11.0646C10.9835 2718.95 11.4092 2716.41 12.3416 2713.98C13.8416 2709.97 16.2335 2706.01 19.5173 2702.12C22.8416 2698.23 27.6254 2693.73 33.8686 2688.62C43.5578 2680.68 50.1051 2674.39 53.5105 2669.77C56.9159 2665.11 58.6186 2660.71 58.6186 2656.58C58.6186 2652.24 57.0578 2648.59 53.9362 2645.63C50.8551 2642.63 46.8213 2641.13 41.8349 2641.13C36.5646 2641.13 32.3484 2642.71 29.1862 2645.87C26.024 2649.03 24.4227 2653.41 24.3821 2659.01L13.1321 2657.85C13.9024 2649.46 16.8011 2643.08 21.8281 2638.7C26.8551 2634.28 33.6051 2632.07 42.0781 2632.07C50.6322 2632.07 57.4024 2634.44 62.3889 2639.18C67.3754 2643.93 69.8686 2649.81 69.8686 2656.82C69.8686 2660.39 69.1389 2663.89 67.6794 2667.34C66.22 2670.78 63.7876 2674.41 60.3822 2678.22C57.0173 2682.03 51.4024 2687.26 43.5376 2693.91C36.97 2699.43 32.7538 2703.18 30.8889 2705.16C29.024 2707.11 27.4835 2709.08 26.2673 2711.06H69.9903ZM81.8484 2698.05L92.7943 2696.59C94.0511 2702.79 96.1794 2707.27 99.1794 2710.03C102.22 2712.74 105.909 2714.1 110.247 2714.1C115.396 2714.1 119.734 2712.32 123.261 2708.75C126.828 2705.18 128.612 2700.76 128.612 2695.49C128.612 2690.47 126.97 2686.33 123.686 2683.09C120.402 2679.81 116.227 2678.16 111.159 2678.16C109.092 2678.16 106.517 2678.57 103.436 2679.38L104.652 2669.77C105.382 2669.85 105.97 2669.89 106.416 2669.89C111.078 2669.89 115.274 2668.68 119.004 2666.24C122.734 2663.81 124.598 2660.06 124.598 2654.99C124.598 2650.98 123.24 2647.66 120.524 2645.02C117.808 2642.39 114.301 2641.07 110.004 2641.07C105.747 2641.07 102.2 2642.41 99.3619 2645.08C96.524 2647.76 94.6997 2651.77 93.8889 2657.12L82.943 2655.18C84.2808 2647.84 87.3213 2642.16 92.0646 2638.15C96.8078 2634.1 102.706 2632.07 109.761 2632.07C114.625 2632.07 119.105 2633.12 123.2 2635.23C127.294 2637.3 130.416 2640.14 132.565 2643.74C134.754 2647.35 135.848 2651.18 135.848 2655.24C135.848 2659.09 134.815 2662.6 132.747 2665.76C130.679 2668.92 127.619 2671.43 123.565 2673.3C128.835 2674.51 132.929 2677.05 135.848 2680.9C138.767 2684.71 140.227 2689.49 140.227 2695.25C140.227 2703.03 137.389 2709.64 131.713 2715.08C126.038 2720.47 118.862 2723.16 110.186 2723.16C102.362 2723.16 95.8551 2720.83 90.6659 2716.17C85.5173 2711.51 82.5781 2705.47 81.8484 2698.05ZM152.754 2700.97L163.274 2699.99C164.166 2704.94 165.869 2708.53 168.382 2710.76C170.896 2712.99 174.119 2714.1 178.051 2714.1C181.416 2714.1 184.355 2713.33 186.869 2711.79C189.423 2710.25 191.511 2708.2 193.132 2705.65C194.754 2703.06 196.112 2699.57 197.206 2695.19C198.301 2690.81 198.848 2686.35 198.848 2681.81C198.848 2681.33 198.828 2680.6 198.788 2679.62C196.598 2683.11 193.598 2685.95 189.788 2688.14C186.017 2690.28 181.923 2691.36 177.504 2691.36C170.125 2691.36 163.882 2688.68 158.774 2683.33C153.666 2677.98 151.112 2670.93 151.112 2662.17C151.112 2653.13 153.767 2645.85 159.078 2640.34C164.429 2634.83 171.119 2632.07 179.146 2632.07C184.943 2632.07 190.234 2633.63 195.017 2636.75C199.842 2639.87 203.49 2644.33 205.963 2650.13C208.477 2655.89 209.734 2664.24 209.734 2675.18C209.734 2686.58 208.497 2695.66 206.024 2702.43C203.551 2709.16 199.862 2714.28 194.956 2717.81C190.092 2721.34 184.375 2723.1 177.808 2723.1C170.835 2723.1 165.139 2721.18 160.72 2717.33C156.301 2713.43 153.646 2707.98 152.754 2700.97ZM197.571 2661.62C197.571 2655.34 195.889 2650.35 192.524 2646.66C189.2 2642.97 185.186 2641.13 180.484 2641.13C175.619 2641.13 171.382 2643.12 167.774 2647.09C164.166 2651.06 162.362 2656.21 162.362 2662.53C162.362 2668.21 164.065 2672.83 167.47 2676.4C170.916 2679.93 175.152 2681.69 180.179 2681.69C185.247 2681.69 189.402 2679.93 192.646 2676.4C195.929 2672.83 197.571 2667.91 197.571 2661.62ZM69.9903 2854.06V2864.58H11.0646C10.9835 2861.95 11.4092 2859.41 12.3416 2856.98C13.8416 2852.97 16.2335 2849.01 19.5173 2845.12C22.8416 2841.23 27.6254 2836.73 33.8686 2831.62C43.5578 2823.68 50.1051 2817.39 53.5105 2812.77C56.9159 2808.11 58.6186 2803.71 58.6186 2799.58C58.6186 2795.24 57.0578 2791.59 53.9362 2788.63C50.8551 2785.63 46.8213 2784.13 41.8349 2784.13C36.5646 2784.13 32.3484 2785.71 29.1862 2788.87C26.024 2792.03 24.4227 2796.41 24.3821 2802.01L13.1321 2800.85C13.9024 2792.46 16.8011 2786.08 21.8281 2781.7C26.8551 2777.28 33.6051 2775.07 42.0781 2775.07C50.6322 2775.07 57.4024 2777.44 62.3889 2782.18C67.3754 2786.93 69.8686 2792.81 69.8686 2799.82C69.8686 2803.39 69.1389 2806.89 67.6794 2810.34C66.22 2813.78 63.7876 2817.41 60.3822 2821.22C57.0173 2825.03 51.4024 2830.26 43.5376 2836.91C36.97 2842.43 32.7538 2846.18 30.8889 2848.16C29.024 2850.11 27.4835 2852.08 26.2673 2854.06H69.9903ZM116.875 2864.58V2843.24H78.1997V2833.2L118.882 2775.43H127.821V2833.2H139.862V2843.24H127.821V2864.58H116.875ZM116.875 2833.2V2793.01L88.9632 2833.2H116.875ZM152.754 2843.97L163.274 2842.99C164.166 2847.94 165.869 2851.53 168.382 2853.76C170.896 2855.99 174.119 2857.1 178.051 2857.1C181.416 2857.1 184.355 2856.33 186.869 2854.79C189.423 2853.25 191.511 2851.2 193.132 2848.65C194.754 2846.06 196.112 2842.57 197.206 2838.19C198.301 2833.81 198.848 2829.35 198.848 2824.81C198.848 2824.33 198.828 2823.6 198.788 2822.62C196.598 2826.11 193.598 2828.95 189.788 2831.14C186.017 2833.28 181.923 2834.36 177.504 2834.36C170.125 2834.36 163.882 2831.68 158.774 2826.33C153.666 2820.98 151.112 2813.93 151.112 2805.17C151.112 2796.13 153.767 2788.85 159.078 2783.34C164.429 2777.83 171.119 2775.07 179.146 2775.07C184.943 2775.07 190.234 2776.63 195.017 2779.75C199.842 2782.87 203.49 2787.33 205.963 2793.13C208.477 2798.89 209.734 2807.24 209.734 2818.18C209.734 2829.58 208.497 2838.66 206.024 2845.43C203.551 2852.16 199.862 2857.28 194.956 2860.81C190.092 2864.34 184.375 2866.1 177.808 2866.1C170.835 2866.1 165.139 2864.18 160.72 2860.33C156.301 2856.43 153.646 2850.98 152.754 2843.97ZM197.571 2804.62C197.571 2798.34 195.889 2793.35 192.524 2789.66C189.2 2785.97 185.186 2784.13 180.484 2784.13C175.619 2784.13 171.382 2786.12 167.774 2790.09C164.166 2794.06 162.362 2799.21 162.362 2805.53C162.362 2811.21 164.065 2815.83 167.47 2819.4C170.916 2822.93 175.152 2824.69 180.179 2824.69C185.247 2824.69 189.402 2822.93 192.646 2819.4C195.929 2815.83 197.571 2810.91 197.571 2804.62ZM69.9903 2997.06V3007.58H11.0646C10.9835 3004.95 11.4092 3002.41 12.3416 2999.98C13.8416 2995.97 16.2335 2992.01 19.5173 2988.12C22.8416 2984.23 27.6254 2979.73 33.8686 2974.62C43.5578 2966.68 50.1051 2960.39 53.5105 2955.77C56.9159 2951.11 58.6186 2946.71 58.6186 2942.58C58.6186 2938.24 57.0578 2934.59 53.9362 2931.63C50.8551 2928.63 46.8213 2927.13 41.8349 2927.13C36.5646 2927.13 32.3484 2928.71 29.1862 2931.87C26.024 2935.03 24.4227 2939.41 24.3821 2945.01L13.1321 2943.85C13.9024 2935.46 16.8011 2929.08 21.8281 2924.7C26.8551 2920.28 33.6051 2918.07 42.0781 2918.07C50.6322 2918.07 57.4024 2920.44 62.3889 2925.18C67.3754 2929.93 69.8686 2935.81 69.8686 2942.82C69.8686 2946.39 69.1389 2949.89 67.6794 2953.34C66.22 2956.78 63.7876 2960.41 60.3822 2964.22C57.0173 2968.03 51.4024 2973.26 43.5376 2979.91C36.97 2985.43 32.7538 2989.18 30.8889 2991.16C29.024 2993.11 27.4835 2995.08 26.2673 2997.06H69.9903ZM81.7876 2984.23L93.2808 2983.26C94.1322 2988.85 96.0984 2993.07 99.1794 2995.91C102.301 2998.7 106.051 3000.1 110.429 3000.1C115.7 3000.1 120.159 2998.12 123.808 2994.14C127.456 2990.17 129.281 2984.9 129.281 2978.33C129.281 2972.09 127.517 2967.16 123.99 2963.56C120.504 2959.95 115.923 2958.14 110.247 2958.14C106.72 2958.14 103.538 2958.95 100.7 2960.58C97.8619 2962.16 95.6322 2964.22 94.0105 2966.78L83.7335 2965.44L92.3686 2919.65H136.7V2930.11H101.125L96.3213 2954.07C101.673 2950.34 107.288 2948.47 113.166 2948.47C120.95 2948.47 127.517 2951.17 132.869 2956.56C138.22 2961.95 140.896 2968.89 140.896 2977.36C140.896 2985.43 138.544 2992.4 133.842 2998.28C128.125 3005.49 120.321 3009.1 110.429 3009.1C102.321 3009.1 95.693 3006.83 90.5443 3002.29C85.4362 2997.75 82.5173 2991.73 81.7876 2984.23ZM152.754 2986.97L163.274 2985.99C164.166 2990.94 165.869 2994.53 168.382 2996.76C170.896 2998.99 174.119 3000.1 178.051 3000.1C181.416 3000.1 184.355 2999.33 186.869 2997.79C189.423 2996.25 191.511 2994.2 193.132 2991.65C194.754 2989.06 196.112 2985.57 197.206 2981.19C198.301 2976.81 198.848 2972.35 198.848 2967.81C198.848 2967.33 198.828 2966.6 198.788 2965.62C196.598 2969.11 193.598 2971.95 189.788 2974.14C186.017 2976.28 181.923 2977.36 177.504 2977.36C170.125 2977.36 163.882 2974.68 158.774 2969.33C153.666 2963.98 151.112 2956.93 151.112 2948.17C151.112 2939.13 153.767 2931.85 159.078 2926.34C164.429 2920.83 171.119 2918.07 179.146 2918.07C184.943 2918.07 190.234 2919.63 195.017 2922.75C199.842 2925.87 203.49 2930.33 205.963 2936.13C208.477 2941.89 209.734 2950.24 209.734 2961.18C209.734 2972.58 208.497 2981.66 206.024 2988.43C203.551 2995.16 199.862 3000.28 194.956 3003.81C190.092 3007.34 184.375 3009.1 177.808 3009.1C170.835 3009.1 165.139 3007.18 160.72 3003.33C156.301 2999.43 153.646 2993.98 152.754 2986.97ZM197.571 2947.62C197.571 2941.34 195.889 2936.35 192.524 2932.66C189.2 2928.97 185.186 2927.13 180.484 2927.13C175.619 2927.13 171.382 2929.12 167.774 2933.09C164.166 2937.06 162.362 2942.21 162.362 2948.53C162.362 2954.21 164.065 2958.83 167.47 2962.4C170.916 2965.93 175.152 2967.69 180.179 2967.69C185.247 2967.69 189.402 2965.93 192.646 2962.4C195.929 2958.83 197.571 2953.91 197.571 2947.62ZM69.9903 3140.06V3150.58H11.0646C10.9835 3147.95 11.4092 3145.41 12.3416 3142.98C13.8416 3138.97 16.2335 3135.01 19.5173 3131.12C22.8416 3127.23 27.6254 3122.73 33.8686 3117.62C43.5578 3109.68 50.1051 3103.39 53.5105 3098.77C56.9159 3094.11 58.6186 3089.71 58.6186 3085.58C58.6186 3081.24 57.0578 3077.59 53.9362 3074.63C50.8551 3071.63 46.8213 3070.13 41.8349 3070.13C36.5646 3070.13 32.3484 3071.71 29.1862 3074.87C26.024 3078.03 24.4227 3082.41 24.3821 3088.01L13.1321 3086.85C13.9024 3078.46 16.8011 3072.08 21.8281 3067.7C26.8551 3063.28 33.6051 3061.07 42.0781 3061.07C50.6322 3061.07 57.4024 3063.44 62.3889 3068.18C67.3754 3072.93 69.8686 3078.81 69.8686 3085.82C69.8686 3089.39 69.1389 3092.89 67.6794 3096.34C66.22 3099.78 63.7876 3103.41 60.3822 3107.22C57.0173 3111.03 51.4024 3116.26 43.5376 3122.91C36.97 3128.43 32.7538 3132.18 30.8889 3134.16C29.024 3136.11 27.4835 3138.08 26.2673 3140.06H69.9903ZM138.585 3083.26L127.7 3084.12C126.727 3079.82 125.348 3076.7 123.565 3074.75C120.605 3071.63 116.956 3070.07 112.619 3070.07C109.132 3070.07 106.071 3071.04 103.436 3072.99C99.9903 3075.5 97.274 3079.17 95.2876 3083.99C93.3011 3088.82 92.2673 3095.69 92.1862 3104.61C94.8213 3100.6 98.0443 3097.62 101.855 3095.67C105.666 3093.72 109.659 3092.75 113.835 3092.75C121.132 3092.75 127.335 3095.45 132.443 3100.84C137.592 3106.19 140.166 3113.12 140.166 3121.64C140.166 3127.23 138.95 3132.44 136.517 3137.26C134.125 3142.05 130.821 3145.72 126.605 3148.27C122.389 3150.83 117.605 3152.1 112.254 3152.1C103.132 3152.1 95.693 3148.76 89.9362 3142.07C84.1794 3135.34 81.3011 3124.27 81.3011 3108.87C81.3011 3091.64 84.4835 3079.11 90.8484 3071.28C96.4024 3064.47 103.882 3061.07 113.288 3061.07C120.301 3061.07 126.038 3063.03 130.497 3066.97C134.997 3070.9 137.693 3076.33 138.585 3083.26ZM93.8889 3121.7C93.8889 3125.47 94.6794 3129.08 96.2605 3132.52C97.8822 3135.97 100.132 3138.6 103.011 3140.43C105.889 3142.21 108.909 3143.1 112.071 3143.1C116.693 3143.1 120.666 3141.24 123.99 3137.51C127.315 3133.78 128.977 3128.71 128.977 3122.31C128.977 3116.14 127.335 3111.3 124.051 3107.77C120.767 3104.2 116.632 3102.42 111.646 3102.42C106.7 3102.42 102.504 3104.2 99.0578 3107.77C95.6119 3111.3 93.8889 3115.94 93.8889 3121.7ZM152.754 3129.97L163.274 3128.99C164.166 3133.94 165.869 3137.53 168.382 3139.76C170.896 3141.99 174.119 3143.1 178.051 3143.1C181.416 3143.1 184.355 3142.33 186.869 3140.79C189.423 3139.25 191.511 3137.2 193.132 3134.65C194.754 3132.06 196.112 3128.57 197.206 3124.19C198.301 3119.81 198.848 3115.35 198.848 3110.81C198.848 3110.33 198.828 3109.6 198.788 3108.62C196.598 3112.11 193.598 3114.95 189.788 3117.14C186.017 3119.28 181.923 3120.36 177.504 3120.36C170.125 3120.36 163.882 3117.68 158.774 3112.33C153.666 3106.98 151.112 3099.93 151.112 3091.17C151.112 3082.13 153.767 3074.85 159.078 3069.34C164.429 3063.83 171.119 3061.07 179.146 3061.07C184.943 3061.07 190.234 3062.63 195.017 3065.75C199.842 3068.87 203.49 3073.33 205.963 3079.13C208.477 3084.89 209.734 3093.24 209.734 3104.18C209.734 3115.58 208.497 3124.66 206.024 3131.43C203.551 3138.16 199.862 3143.28 194.956 3146.81C190.092 3150.34 184.375 3152.1 177.808 3152.1C170.835 3152.1 165.139 3150.18 160.72 3146.33C156.301 3142.43 153.646 3136.98 152.754 3129.97ZM197.571 3090.62C197.571 3084.34 195.889 3079.35 192.524 3075.66C189.2 3071.97 185.186 3070.13 180.484 3070.13C175.619 3070.13 171.382 3072.12 167.774 3076.09C164.166 3080.06 162.362 3085.21 162.362 3091.53C162.362 3097.21 164.065 3101.83 167.47 3105.4C170.916 3108.93 175.152 3110.69 180.179 3110.69C185.247 3110.69 189.402 3108.93 192.646 3105.4C195.929 3101.83 197.571 3096.91 197.571 3090.62ZM69.9903 3283.06V3293.58H11.0646C10.9835 3290.95 11.4092 3288.41 12.3416 3285.98C13.8416 3281.97 16.2335 3278.01 19.5173 3274.12C22.8416 3270.23 27.6254 3265.73 33.8686 3260.62C43.5578 3252.68 50.1051 3246.39 53.5105 3241.77C56.9159 3237.11 58.6186 3232.71 58.6186 3228.58C58.6186 3224.24 57.0578 3220.59 53.9362 3217.63C50.8551 3214.63 46.8213 3213.13 41.8349 3213.13C36.5646 3213.13 32.3484 3214.71 29.1862 3217.87C26.024 3221.03 24.4227 3225.41 24.3821 3231.01L13.1321 3229.85C13.9024 3221.46 16.8011 3215.08 21.8281 3210.7C26.8551 3206.28 33.6051 3204.07 42.0781 3204.07C50.6322 3204.07 57.4024 3206.44 62.3889 3211.18C67.3754 3215.93 69.8686 3221.81 69.8686 3228.82C69.8686 3232.39 69.1389 3235.89 67.6794 3239.34C66.22 3242.78 63.7876 3246.41 60.3822 3250.22C57.0173 3254.03 51.4024 3259.26 43.5376 3265.91C36.97 3271.43 32.7538 3275.18 30.8889 3277.16C29.024 3279.11 27.4835 3281.08 26.2673 3283.06H69.9903ZM82.5173 3216.11V3205.59H140.227V3214.1C134.551 3220.14 128.916 3228.17 123.321 3238.18C117.767 3248.2 113.47 3258.49 110.429 3269.08C108.24 3276.53 106.842 3284.7 106.234 3293.58H94.9835C95.1051 3286.57 96.4835 3278.1 99.1186 3268.16C101.754 3258.23 105.524 3248.66 110.429 3239.46C115.375 3230.22 120.625 3222.43 126.179 3216.11H82.5173ZM152.754 3272.97L163.274 3271.99C164.166 3276.94 165.869 3280.53 168.382 3282.76C170.896 3284.99 174.119 3286.1 178.051 3286.1C181.416 3286.1 184.355 3285.33 186.869 3283.79C189.423 3282.25 191.511 3280.2 193.132 3277.65C194.754 3275.06 196.112 3271.57 197.206 3267.19C198.301 3262.81 198.848 3258.35 198.848 3253.81C198.848 3253.33 198.828 3252.6 198.788 3251.62C196.598 3255.11 193.598 3257.95 189.788 3260.14C186.017 3262.28 181.923 3263.36 177.504 3263.36C170.125 3263.36 163.882 3260.68 158.774 3255.33C153.666 3249.98 151.112 3242.93 151.112 3234.17C151.112 3225.13 153.767 3217.85 159.078 3212.34C164.429 3206.83 171.119 3204.07 179.146 3204.07C184.943 3204.07 190.234 3205.63 195.017 3208.75C199.842 3211.87 203.49 3216.33 205.963 3222.13C208.477 3227.89 209.734 3236.24 209.734 3247.18C209.734 3258.58 208.497 3267.66 206.024 3274.43C203.551 3281.16 199.862 3286.28 194.956 3289.81C190.092 3293.34 184.375 3295.1 177.808 3295.1C170.835 3295.1 165.139 3293.18 160.72 3289.33C156.301 3285.43 153.646 3279.98 152.754 3272.97ZM197.571 3233.62C197.571 3227.34 195.889 3222.35 192.524 3218.66C189.2 3214.97 185.186 3213.13 180.484 3213.13C175.619 3213.13 171.382 3215.12 167.774 3219.09C164.166 3223.06 162.362 3228.21 162.362 3234.53C162.362 3240.21 164.065 3244.83 167.47 3248.4C170.916 3251.93 175.152 3253.69 180.179 3253.69C185.247 3253.69 189.402 3251.93 192.646 3248.4C195.929 3244.83 197.571 3239.91 197.571 3233.62ZM69.9903 3426.06V3436.58H11.0646C10.9835 3433.95 11.4092 3431.41 12.3416 3428.98C13.8416 3424.97 16.2335 3421.01 19.5173 3417.12C22.8416 3413.23 27.6254 3408.73 33.8686 3403.62C43.5578 3395.68 50.1051 3389.39 53.5105 3384.77C56.9159 3380.11 58.6186 3375.71 58.6186 3371.58C58.6186 3367.24 57.0578 3363.59 53.9362 3360.63C50.8551 3357.63 46.8213 3356.13 41.8349 3356.13C36.5646 3356.13 32.3484 3357.71 29.1862 3360.87C26.024 3364.03 24.4227 3368.41 24.3821 3374.01L13.1321 3372.85C13.9024 3364.46 16.8011 3358.08 21.8281 3353.7C26.8551 3349.28 33.6051 3347.07 42.0781 3347.07C50.6322 3347.07 57.4024 3349.44 62.3889 3354.18C67.3754 3358.93 69.8686 3364.81 69.8686 3371.82C69.8686 3375.39 69.1389 3378.89 67.6794 3382.34C66.22 3385.78 63.7876 3389.41 60.3822 3393.22C57.0173 3397.03 51.4024 3402.26 43.5376 3408.91C36.97 3414.43 32.7538 3418.18 30.8889 3420.16C29.024 3422.11 27.4835 3424.08 26.2673 3426.06H69.9903ZM98.6322 3388.24C94.0916 3386.58 90.7267 3384.2 88.5376 3381.12C86.3484 3378.04 85.2538 3374.35 85.2538 3370.06C85.2538 3363.57 87.5849 3358.12 92.247 3353.7C96.9092 3349.28 103.112 3347.07 110.855 3347.07C118.639 3347.07 124.902 3349.34 129.646 3353.88C134.389 3358.38 136.761 3363.87 136.761 3370.36C136.761 3374.49 135.666 3378.1 133.477 3381.18C131.328 3384.22 128.044 3386.58 123.625 3388.24C129.098 3390.02 133.254 3392.9 136.092 3396.87C138.97 3400.85 140.409 3405.59 140.409 3411.1C140.409 3418.72 137.713 3425.13 132.321 3430.32C126.929 3435.51 119.835 3438.1 111.038 3438.1C102.24 3438.1 95.1457 3435.51 89.7538 3430.32C84.3619 3425.09 81.6659 3418.58 81.6659 3410.8C81.6659 3405 83.1254 3400.16 86.0443 3396.26C89.0038 3392.33 93.1997 3389.66 98.6322 3388.24ZM96.443 3369.69C96.443 3373.91 97.8011 3377.35 100.517 3380.03C103.234 3382.7 106.761 3384.04 111.098 3384.04C115.315 3384.04 118.761 3382.72 121.436 3380.09C124.152 3377.41 125.511 3374.15 125.511 3370.3C125.511 3366.28 124.112 3362.92 121.315 3360.2C118.558 3357.45 115.112 3356.07 110.977 3356.07C106.801 3356.07 103.335 3357.41 100.578 3360.08C97.8213 3362.76 96.443 3365.96 96.443 3369.69ZM92.9159 3410.86C92.9159 3413.98 93.6457 3417 95.1051 3419.92C96.6051 3422.84 98.8146 3425.11 101.734 3426.73C104.652 3428.31 107.794 3429.1 111.159 3429.1C116.389 3429.1 120.706 3427.42 124.112 3424.06C127.517 3420.69 129.22 3416.41 129.22 3411.22C129.22 3405.95 127.456 3401.6 123.929 3398.15C120.443 3394.7 116.065 3392.98 110.794 3392.98C105.646 3392.98 101.369 3394.68 97.9632 3398.09C94.5984 3401.49 92.9159 3405.75 92.9159 3410.86ZM152.754 3415.97L163.274 3414.99C164.166 3419.94 165.869 3423.53 168.382 3425.76C170.896 3427.99 174.119 3429.1 178.051 3429.1C181.416 3429.1 184.355 3428.33 186.869 3426.79C189.423 3425.25 191.511 3423.2 193.132 3420.65C194.754 3418.06 196.112 3414.57 197.206 3410.19C198.301 3405.81 198.848 3401.35 198.848 3396.81C198.848 3396.33 198.828 3395.6 198.788 3394.62C196.598 3398.11 193.598 3400.95 189.788 3403.14C186.017 3405.28 181.923 3406.36 177.504 3406.36C170.125 3406.36 163.882 3403.68 158.774 3398.33C153.666 3392.98 151.112 3385.93 151.112 3377.17C151.112 3368.13 153.767 3360.85 159.078 3355.34C164.429 3349.83 171.119 3347.07 179.146 3347.07C184.943 3347.07 190.234 3348.63 195.017 3351.75C199.842 3354.87 203.49 3359.33 205.963 3365.13C208.477 3370.89 209.734 3379.24 209.734 3390.18C209.734 3401.58 208.497 3410.66 206.024 3417.43C203.551 3424.16 199.862 3429.28 194.956 3432.81C190.092 3436.34 184.375 3438.1 177.808 3438.1C170.835 3438.1 165.139 3436.18 160.72 3432.33C156.301 3428.43 153.646 3422.98 152.754 3415.97ZM197.571 3376.62C197.571 3370.34 195.889 3365.35 192.524 3361.66C189.2 3357.97 185.186 3356.13 180.484 3356.13C175.619 3356.13 171.382 3358.12 167.774 3362.09C164.166 3366.06 162.362 3371.21 162.362 3377.53C162.362 3383.21 164.065 3387.83 167.47 3391.4C170.916 3394.93 175.152 3396.69 180.179 3396.69C185.247 3396.69 189.402 3394.93 192.646 3391.4C195.929 3387.83 197.571 3382.91 197.571 3376.62ZM69.9903 3569.06V3579.58H11.0646C10.9835 3576.95 11.4092 3574.41 12.3416 3571.98C13.8416 3567.97 16.2335 3564.01 19.5173 3560.12C22.8416 3556.23 27.6254 3551.73 33.8686 3546.62C43.5578 3538.68 50.1051 3532.39 53.5105 3527.77C56.9159 3523.11 58.6186 3518.71 58.6186 3514.58C58.6186 3510.24 57.0578 3506.59 53.9362 3503.63C50.8551 3500.63 46.8213 3499.13 41.8349 3499.13C36.5646 3499.13 32.3484 3500.71 29.1862 3503.87C26.024 3507.03 24.4227 3511.41 24.3821 3517.01L13.1321 3515.85C13.9024 3507.46 16.8011 3501.08 21.8281 3496.7C26.8551 3492.28 33.6051 3490.07 42.0781 3490.07C50.6322 3490.07 57.4024 3492.44 62.3889 3497.18C67.3754 3501.93 69.8686 3507.81 69.8686 3514.82C69.8686 3518.39 69.1389 3521.89 67.6794 3525.34C66.22 3528.78 63.7876 3532.41 60.3822 3536.22C57.0173 3540.03 51.4024 3545.26 43.5376 3551.91C36.97 3557.43 32.7538 3561.18 30.8889 3563.16C29.024 3565.11 27.4835 3567.08 26.2673 3569.06H69.9903ZM83.4294 3558.97L93.9497 3557.99C94.8416 3562.94 96.5443 3566.53 99.0578 3568.76C101.571 3570.99 104.794 3572.1 108.727 3572.1C112.092 3572.1 115.031 3571.33 117.544 3569.79C120.098 3568.25 122.186 3566.2 123.808 3563.65C125.429 3561.06 126.788 3557.57 127.882 3553.19C128.977 3548.81 129.524 3544.35 129.524 3539.81C129.524 3539.33 129.504 3538.6 129.463 3537.62C127.274 3541.11 124.274 3543.95 120.463 3546.14C116.693 3548.28 112.598 3549.36 108.179 3549.36C100.801 3549.36 94.5578 3546.68 89.4497 3541.33C84.3416 3535.98 81.7876 3528.93 81.7876 3520.17C81.7876 3511.13 84.443 3503.85 89.7538 3498.34C95.1051 3492.83 101.794 3490.07 109.821 3490.07C115.619 3490.07 120.909 3491.63 125.693 3494.75C130.517 3497.87 134.166 3502.33 136.639 3508.13C139.152 3513.89 140.409 3522.24 140.409 3533.18C140.409 3544.58 139.173 3553.66 136.7 3560.43C134.227 3567.16 130.538 3572.28 125.632 3575.81C120.767 3579.34 115.051 3581.1 108.484 3581.1C101.511 3581.1 95.8146 3579.18 91.3957 3575.33C86.9767 3571.43 84.3213 3565.98 83.4294 3558.97ZM128.247 3519.62C128.247 3513.34 126.565 3508.35 123.2 3504.66C119.875 3500.97 115.862 3499.13 111.159 3499.13C106.294 3499.13 102.058 3501.12 98.4497 3505.09C94.8416 3509.06 93.0376 3514.21 93.0376 3520.53C93.0376 3526.21 94.7403 3530.83 98.1457 3534.4C101.592 3537.93 105.828 3539.69 110.855 3539.69C115.923 3539.69 120.078 3537.93 123.321 3534.4C126.605 3530.83 128.247 3525.91 128.247 3519.62ZM152.754 3558.97L163.274 3557.99C164.166 3562.94 165.869 3566.53 168.382 3568.76C170.896 3570.99 174.119 3572.1 178.051 3572.1C181.416 3572.1 184.355 3571.33 186.869 3569.79C189.423 3568.25 191.511 3566.2 193.132 3563.65C194.754 3561.06 196.112 3557.57 197.206 3553.19C198.301 3548.81 198.848 3544.35 198.848 3539.81C198.848 3539.33 198.828 3538.6 198.788 3537.62C196.598 3541.11 193.598 3543.95 189.788 3546.14C186.017 3548.28 181.923 3549.36 177.504 3549.36C170.125 3549.36 163.882 3546.68 158.774 3541.33C153.666 3535.98 151.112 3528.93 151.112 3520.17C151.112 3511.13 153.767 3503.85 159.078 3498.34C164.429 3492.83 171.119 3490.07 179.146 3490.07C184.943 3490.07 190.234 3491.63 195.017 3494.75C199.842 3497.87 203.49 3502.33 205.963 3508.13C208.477 3513.89 209.734 3522.24 209.734 3533.18C209.734 3544.58 208.497 3553.66 206.024 3560.43C203.551 3567.16 199.862 3572.28 194.956 3575.81C190.092 3579.34 184.375 3581.1 177.808 3581.1C170.835 3581.1 165.139 3579.18 160.72 3575.33C156.301 3571.43 153.646 3565.98 152.754 3558.97ZM197.571 3519.62C197.571 3513.34 195.889 3508.35 192.524 3504.66C189.2 3500.97 185.186 3499.13 180.484 3499.13C175.619 3499.13 171.382 3501.12 167.774 3505.09C164.166 3509.06 162.362 3514.21 162.362 3520.53C162.362 3526.21 164.065 3530.83 167.47 3534.4C170.916 3537.93 175.152 3539.69 180.179 3539.69C185.247 3539.69 189.402 3537.93 192.646 3534.4C195.929 3530.83 197.571 3525.91 197.571 3519.62Z" fill="#2C3E4C"/>
<path d="M9.99997 19.4599C9.96085 19.4598 9.92219 19.4513 9.88668 19.4349C9.85117 19.4185 9.81965 19.3945 9.7943 19.3647C9.53781 19.0639 3.51349 11.9366 3.47673 7.06635C3.46864 6.21476 3.63045 5.3701 3.9527 4.58179C4.27495 3.79348 4.75116 3.07734 5.35349 2.47527C6.26392 1.55634 7.42676 0.928486 8.69452 0.671345C9.96228 0.414204 11.2778 0.539359 12.4744 1.03094C13.6709 1.52251 14.6945 2.35837 15.4153 3.43249C16.1362 4.50662 16.5218 5.77062 16.5232 7.06419C16.5232 11.9364 10.4632 19.0642 10.2054 19.3655C10.18 19.3952 10.1485 19.4189 10.113 19.4352C10.0776 19.4515 10.039 19.4599 9.99997 19.4599V19.4599ZM9.99997 1.08149C9.20717 1.07913 8.42185 1.23485 7.68993 1.53955C6.95801 1.84426 6.29419 2.29182 5.73727 2.85608C5.18546 3.40771 4.74915 4.06381 4.45387 4.78603C4.15859 5.50825 4.01026 6.28208 4.01754 7.0623C4.04889 11.2464 8.93078 17.4555 9.99997 18.7666C11.0748 17.4569 15.9821 11.2461 15.9821 7.06392C15.9803 5.4779 15.3494 3.95737 14.228 2.83585C13.1065 1.71434 11.586 1.08342 9.99997 1.08149V1.08149Z" fill="#2C3E4C"/>
<path d="M9.99997 11.0808C9.19816 11.0808 8.41435 10.843 7.74766 10.3975C7.08098 9.95207 6.56136 9.31891 6.25452 8.57813C5.94768 7.83735 5.8674 7.02222 6.02382 6.23581C6.18025 5.4494 6.56636 4.72703 7.13333 4.16006C7.7003 3.59309 8.42266 3.20698 9.20907 3.05056C9.99547 2.89413 10.8106 2.97441 11.5514 3.28125C12.2922 3.5881 12.9253 4.10771 13.3708 4.7744C13.8163 5.44109 14.054 6.2249 14.054 7.02671C14.0528 8.10154 13.6253 9.132 12.8653 9.89202C12.1053 10.652 11.0748 11.0796 9.99997 11.0808V11.0808ZM9.99997 3.5132C9.30507 3.5132 8.62576 3.71926 8.04797 4.10533C7.47018 4.4914 7.01984 5.04014 6.75391 5.68215C6.48799 6.32416 6.41841 7.03061 6.55398 7.71217C6.68954 8.39372 7.02417 9.01977 7.51555 9.51114C8.00692 10.0025 8.63297 10.3371 9.31452 10.4727C9.99607 10.6083 10.7025 10.5387 11.3445 10.2728C11.9865 10.0068 12.5353 9.55651 12.9213 8.97872C13.3074 8.40092 13.5135 7.72162 13.5135 7.02671C13.5124 6.0952 13.1419 5.20215 12.4832 4.54347C11.8245 3.88479 10.9315 3.51427 9.99997 3.5132Z" fill="#2C3E4C"/>
</g>
<defs>
<clipPath id="clip0_101_899">
<rect width="20" height="20" fill="white"/>
</clipPath>
</defs>
</svg>
