<svg width="20" height="20" viewBox="0 0 20 20" fill="none" xmlns="http://www.w3.org/2000/svg">
<path d="M15.2081 19.4602C14.2361 19.4275 13.2788 19.212 12.3865 18.8251C10.2487 17.9629 7.90543 16.3251 5.78921 14.2115C3.67299 12.098 2.03786 9.75208 1.1757 7.61425C0.286508 5.40614 0.332454 3.64398 1.30272 2.671L3.25948 0.71695C3.37098 0.605547 3.52214 0.542969 3.67975 0.542969C3.83736 0.542969 3.98853 0.605547 4.10002 0.71695L7.7811 4.39533C7.89267 4.50728 7.95532 4.65889 7.95532 4.81695C7.95532 4.975 7.89267 5.12662 7.7811 5.23857L6.41624 6.60614C5.60543 7.41695 6.8757 9.82235 8.52705 11.471C10.1784 13.1197 12.5811 14.3953 13.3919 13.5818L14.7595 12.2305C14.8714 12.1189 15.023 12.0562 15.1811 12.0562C15.3392 12.0562 15.4908 12.1189 15.6027 12.2305L19.2838 15.9007C19.3952 16.0122 19.4578 16.1634 19.4578 16.321C19.4578 16.4786 19.3952 16.6298 19.2838 16.7413L17.3298 18.698C17.0451 18.9605 16.7106 19.1632 16.3462 19.2941C15.9818 19.4251 15.5948 19.4815 15.2081 19.4602ZM3.6811 1.08181C3.67359 1.08155 3.6661 1.08286 3.65912 1.08565C3.65214 1.08844 3.64582 1.09266 3.64056 1.09803L1.68651 3.05208C0.889211 3.8629 0.875697 5.43857 1.68651 7.41154C2.51894 9.48452 4.11894 11.7656 6.1811 13.8278C8.24327 15.8899 10.5162 17.4899 12.5892 18.3224C14.5622 19.1169 16.1487 19.1115 16.9487 18.3224L18.9027 16.3683C18.9128 16.3577 18.9184 16.3437 18.9184 16.3291C18.9184 16.3145 18.9128 16.3005 18.9027 16.2899L15.2216 12.6007C15.2106 12.5917 15.1967 12.5868 15.1825 12.5868C15.1682 12.5868 15.1543 12.5917 15.1433 12.6007L13.7838 13.9683C12.7946 14.9548 10.3216 14.0278 8.14867 11.8575C5.9757 9.68722 5.04597 7.21154 6.03245 6.21695L7.40002 4.8656C7.40902 4.85452 7.41393 4.84068 7.41393 4.82641C7.41393 4.81214 7.40902 4.7983 7.40002 4.78722L3.71894 1.09803C3.70896 1.08785 3.69536 1.08202 3.6811 1.08181V1.08181Z" fill="#2C3E4C"/>
<path d="M17.7271 18.1861C17.6915 18.1863 17.6562 18.1795 17.6233 18.166C17.5904 18.1526 17.5604 18.1327 17.5352 18.1077L13.3946 13.9671C13.3437 13.9155 13.3154 13.8458 13.3159 13.7733C13.3164 13.7009 13.3457 13.6315 13.3973 13.5807C13.4489 13.5298 13.5186 13.5015 13.5911 13.502C13.6636 13.5025 13.7329 13.5317 13.7838 13.5834L17.919 17.7239C17.9443 17.749 17.9644 17.7789 17.9781 17.8119C17.9918 17.8448 17.9989 17.8801 17.9989 17.9158C17.9989 17.9515 17.9918 17.9868 17.9781 18.0197C17.9644 18.0527 17.9443 18.0826 17.919 18.1077C17.8937 18.1327 17.8638 18.1526 17.8308 18.166C17.7979 18.1795 17.7626 18.1863 17.7271 18.1861V18.1861Z" fill="#2C3E4C"/>
<path d="M6.21619 6.68414C6.18062 6.68435 6.14536 6.67753 6.11243 6.66408C6.0795 6.65063 6.04955 6.63081 6.0243 6.60576L1.89186 2.46522C1.84097 2.41433 1.81238 2.3453 1.81238 2.27333C1.81238 2.20136 1.84097 2.13233 1.89186 2.08144C1.94276 2.03054 2.01178 2.00195 2.08375 2.00195C2.15573 2.00195 2.22475 2.03054 2.27565 2.08144L6.41619 6.21657C6.44152 6.2417 6.46163 6.27159 6.47535 6.30453C6.48907 6.33746 6.49613 6.37279 6.49613 6.40846C6.49613 6.44414 6.48907 6.47947 6.47535 6.5124C6.46163 6.54534 6.44152 6.57523 6.41619 6.60036C6.39044 6.62737 6.35938 6.64877 6.32496 6.66319C6.29054 6.67761 6.2535 6.68474 6.21619 6.68414V6.68414Z" fill="#2C3E4C"/>
</svg>
