<svg width="117" height="24" viewBox="0 0 117 24" fill="none" xmlns="http://www.w3.org/2000/svg">
<path fill-rule="evenodd" clip-rule="evenodd" d="M97.8681 18.6825L97.6018 18.4545C96.9532 17.9007 96.8392 16.891 97.4303 16.2424L104.368 8.31264C104.922 7.66402 105.932 7.55003 106.581 8.14115L106.847 8.37014C107.496 8.92293 107.61 9.93369 107.018 10.5813L100.08 18.511C99.5265 19.1596 98.5551 19.2353 97.8681 18.6825V18.6825Z" fill="url(#paint0_linear_101_878)"/>
<path opacity="0.4" fill-rule="evenodd" clip-rule="evenodd" d="M103.435 9.68458L103.301 9.53125L102.234 10.7518L102.348 10.885C104.179 12.7148 103.397 14.5639 102.977 15.2125L103.13 15.041C103.378 14.7545 103.759 14.3167 104.159 13.8406C104.578 13.1153 105.169 11.3994 103.435 9.68458V9.68458Z" fill="url(#paint1_linear_101_878)"/>
<path opacity="0.4" fill-rule="evenodd" clip-rule="evenodd" d="M105.722 12.0677L106.009 11.7439C106.028 11.7056 106.065 11.6672 106.084 11.6289C105.78 11.9719 105.456 12.335 105.15 12.6962C105.379 12.449 105.57 12.2392 105.722 12.0677Z" fill="url(#paint2_radial_101_878)"/>
<path fill-rule="evenodd" clip-rule="evenodd" d="M107.057 8.55892L100.117 0.630206C99.5645 -0.019424 98.5537 -0.134421 97.9061 0.45872L97.6398 0.685687C96.9912 1.23848 96.8772 2.24924 97.4683 2.89685L103.32 9.53034L103.453 9.68367C105.188 11.4187 104.597 13.1336 104.159 13.8578C104.502 13.4574 104.845 13.0569 105.169 12.6948C105.475 12.3326 105.798 11.9705 106.103 11.6275C106.409 11.2845 106.694 10.9607 106.885 10.7499C107.552 10.1023 107.648 9.20654 107.056 8.55892H107.057Z" fill="url(#paint3_linear_101_878)"/>
<path fill-rule="evenodd" clip-rule="evenodd" d="M106.676 18.6825L106.409 18.4545C105.761 17.9007 105.647 16.891 106.238 16.2424L113.176 8.31264C113.729 7.66402 114.739 7.55003 115.387 8.14115L115.654 8.37014C116.302 8.92293 116.417 9.93369 115.826 10.5813L108.887 18.511C108.334 19.1596 107.362 19.2353 106.676 18.6825V18.6825Z" fill="url(#paint4_linear_101_878)"/>
<path opacity="0.4" fill-rule="evenodd" clip-rule="evenodd" d="M112.318 9.6074L112.185 9.45508L111.117 10.6757L111.232 10.8088C113.062 12.6387 112.281 14.4877 111.86 15.1363L112.014 14.9648C112.261 14.6783 112.642 14.2395 113.043 13.7634C113.462 13.0391 114.053 11.3223 112.318 9.6074V9.6074Z" fill="url(#paint5_linear_101_878)"/>
<path opacity="0.4" fill-rule="evenodd" clip-rule="evenodd" d="M114.51 12.0677L114.797 11.7439C114.815 11.7056 114.853 11.6672 114.873 11.6289C114.568 11.9719 114.244 12.335 113.938 12.6962C114.167 12.449 114.377 12.2392 114.51 12.0677Z" fill="url(#paint6_radial_101_878)"/>
<path fill-rule="evenodd" clip-rule="evenodd" d="M115.845 8.55892L108.906 0.630206C108.353 -0.019424 107.343 -0.134421 106.695 0.45872L106.428 0.685687C105.78 1.23949 105.666 2.25025 106.257 2.89786L112.108 9.53135L112.242 9.68468C113.977 11.4197 113.386 13.1346 112.948 13.8589C113.291 13.4584 113.634 13.0579 113.957 12.6958C114.262 12.3336 114.587 11.9715 114.892 11.6285C115.196 11.2856 115.483 10.9617 115.673 10.7509C116.34 10.1033 116.436 9.20754 115.845 8.55993V8.55892Z" fill="url(#paint7_linear_101_878)"/>
<path fill-rule="evenodd" clip-rule="evenodd" d="M30.7868 0C32.5975 0 34.1984 0.399462 35.533 1.16207C36.8867 1.96301 37.9156 3.08776 38.6399 4.51715C39.3652 5.96671 39.7273 7.68157 39.7273 9.64559C39.7273 11.7609 39.3077 13.61 38.4492 15.116C37.611 16.6412 36.3914 17.7468 34.8087 18.4529C35.6288 18.7192 36.2956 19.3295 36.8484 20.2253L37.8016 21.6547C37.9923 21.9795 38.1063 22.2841 38.1063 22.6079C38.1063 23.0084 37.9549 23.3514 37.6301 23.5995C37.3063 23.8477 36.924 24 36.5054 24C36.1816 24 35.8759 23.9233 35.5904 23.771C35.3231 23.6187 35.076 23.3897 34.8843 23.1042L33.3218 20.5118C33.0736 20.0921 32.7498 19.7865 32.3494 19.5958C31.9489 19.4052 31.4344 19.2912 30.7858 19.2912C28.9378 19.2912 27.3551 18.8907 26.0013 18.1281C24.6486 17.3282 23.6187 16.2034 22.8944 14.773C22.1701 13.3053 21.808 11.5894 21.808 9.64559C21.808 7.68157 22.1893 5.98487 22.8944 4.51715C23.6187 3.06859 24.6668 1.96301 26.0013 1.16207C27.3551 0.362139 28.9368 0 30.7878 0H30.7868ZM76.4425 0.0181574C76.8995 0.0181574 77.2616 0.209818 77.5854 0.60928L83.0568 7.3961L88.5081 0.60928C88.8309 0.227976 89.2324 0.0373235 89.6893 0.0373235C90.0898 0.0373235 90.4519 0.190652 90.7757 0.514459C91.1005 0.838265 91.2529 1.18124 91.2529 1.63921C91.2529 1.98218 91.1197 2.34432 90.8524 2.66812L84.7717 10.0834V17.4997C84.7717 18.0525 84.6194 18.4711 84.2946 18.7959C83.9708 19.1187 83.5703 19.2529 83.074 19.2529C82.5595 19.2529 82.1217 19.1005 81.7979 18.7959C81.4731 18.4902 81.3208 18.0716 81.3208 17.4997V10.0834L75.2784 2.64896C75.0111 2.32616 74.8779 1.98218 74.8779 1.62004C74.8779 1.2004 75.0303 0.819099 75.3541 0.495293C75.6789 0.171486 76.0602 0.0181574 76.4405 0.0181574H76.4425ZM51.6981 0.171486C53.7186 0.171486 55.2821 0.666779 56.4069 1.6957C57.5316 2.68729 58.1036 4.11668 58.1036 5.92838C58.1036 7.73907 57.5316 9.16846 56.4069 10.1792C55.2821 11.2081 53.7186 11.7044 51.6981 11.7044H46.9136V17.4613C46.9136 18.0141 46.7613 18.4338 46.4375 18.7384C46.1126 19.0622 45.694 19.2145 45.1594 19.2145C44.6449 19.1964 44.2071 19.043 43.9206 18.7202C43.5968 18.3954 43.4445 17.9758 43.4445 17.4422V1.79153C43.4445 1.27707 43.5958 0.876597 43.9015 0.591123C44.2071 0.323806 44.6076 0.171486 45.1221 0.171486H51.6991H51.6981ZM16.5272 0.0181574C17.0417 0.0181574 17.4997 0.171486 17.8043 0.495293C18.1291 0.819099 18.2814 1.21957 18.2814 1.73403V17.4422C18.2814 17.9566 18.1291 18.3954 17.8043 18.7192C17.4805 19.043 17.0609 19.1964 16.5272 19.1964C16.0319 19.1964 15.6123 19.043 15.2885 18.7192C14.9647 18.3954 14.8114 17.9758 14.8114 17.4422V1.73403C14.8114 1.21957 14.9647 0.819099 15.2885 0.495293C15.6123 0.171486 16.0128 0.0181574 16.5272 0.0181574V0.0181574ZM67.0057 0C67.387 0 67.73 0.0948218 68.0548 0.266308C68.3776 0.457969 68.6258 0.724277 68.7972 1.08642L76.2135 16.965C76.2892 17.2132 76.3467 17.423 76.3467 17.6711C76.3467 18.0716 76.1752 18.4146 75.8514 18.7202C75.5266 18.9866 75.1453 19.1389 74.7075 19.1389C74.4402 19.1389 74.1547 19.0622 73.9065 18.9099C73.6584 18.7576 73.4486 18.5094 73.3154 18.2038L71.6954 14.6207H62.3161L60.696 18.2048C60.5437 18.5286 60.3531 18.7576 60.1049 18.9099C59.8568 19.0622 59.5905 19.1389 59.2858 19.1389C58.8853 19.1389 58.4849 18.9865 58.1611 18.7192C57.8181 18.4529 57.6648 18.0898 57.6648 17.6701C57.6648 17.4422 57.7223 17.194 57.8171 16.965L65.2142 1.08642C65.3655 0.743443 65.6147 0.45696 65.9576 0.266308C66.2814 0.0756557 66.6244 0 67.0067 0H67.0057ZM1.71587 0.0373235C2.23033 0.0373235 2.68729 0.190652 2.99294 0.514459C3.31675 0.838265 3.46907 1.23874 3.46907 1.75319V16.2216H10.961C12.0282 16.2216 12.581 16.6987 12.581 17.6328C12.581 18.5669 12.0282 19.043 10.961 19.043H1.62004C1.10558 19.043 0.705111 18.8917 0.419637 18.6052C0.15232 18.3379 0 17.9375 0 17.4422V1.75319C0 1.23874 0.15232 0.838265 0.476126 0.514459C0.800942 0.190652 1.20141 0.0373235 1.71587 0.0373235ZM30.7475 2.70746C28.9943 2.70746 27.6406 3.29859 26.6691 4.48083C25.6967 5.68124 25.2014 7.35878 25.2014 9.60827C25.2014 11.8578 25.6957 13.5353 26.6691 14.7357C27.6406 15.9371 29.0135 16.5282 30.7485 16.5282C32.4835 16.5282 33.8362 15.9371 34.8087 14.7357C35.7811 13.5353 36.2764 11.8204 36.2764 9.60827C36.2764 7.35878 35.7811 5.68124 34.8087 4.48083C33.8362 3.27942 32.5017 2.70746 30.7485 2.70746H30.7475ZM67.0057 4.02287L63.4792 11.9526H70.5514L67.0057 4.02287V4.02287ZM51.2592 2.85878H46.9136V9.05447L51.2603 9.07364C53.6237 9.07364 54.8252 8.02455 54.8252 5.96671C54.8252 3.90787 53.6237 2.85978 51.2603 2.85978L51.2592 2.85878Z" fill="black"/>
<defs>
<linearGradient id="paint0_linear_101_878" x1="98.3176" y1="16.0896" x2="106.503" y2="11.3702" gradientUnits="userSpaceOnUse">
<stop stop-color="#1FADC3"/>
<stop offset="0.7072" stop-color="#36B98F"/>
</linearGradient>
<linearGradient id="paint1_linear_101_878" x1="103.369" y1="11.6948" x2="104.211" y2="10.9916" gradientUnits="userSpaceOnUse">
<stop stop-color="#123F06" stop-opacity="0"/>
<stop offset="1" stop-color="#123F06"/>
</linearGradient>
<radialGradient id="paint2_radial_101_878" cx="0" cy="0" r="1" gradientUnits="userSpaceOnUse" gradientTransform="translate(101.898 11.5848) scale(4.64796 4.64671)">
<stop offset="0.4185" stop-color="#123F06" stop-opacity="0"/>
<stop offset="1" stop-color="#123F06"/>
</radialGradient>
<linearGradient id="paint3_linear_101_878" x1="98.6843" y1="3.40245" x2="106.062" y2="7.91267" gradientUnits="userSpaceOnUse">
<stop stop-color="#9FDB57"/>
<stop offset="1" stop-color="#71CA5E"/>
</linearGradient>
<linearGradient id="paint4_linear_101_878" x1="107.118" y1="16.0945" x2="115.303" y2="11.3753" gradientUnits="userSpaceOnUse">
<stop stop-color="#1FADC3"/>
<stop offset="0.7072" stop-color="#36B98F"/>
</linearGradient>
<linearGradient id="paint5_linear_101_878" x1="112.253" y1="11.6186" x2="113.095" y2="10.9152" gradientUnits="userSpaceOnUse">
<stop stop-color="#123F06" stop-opacity="0"/>
<stop offset="1" stop-color="#123F06"/>
</linearGradient>
<radialGradient id="paint6_radial_101_878" cx="0" cy="0" r="1" gradientUnits="userSpaceOnUse" gradientTransform="translate(110.694 11.5848) scale(4.64796 4.64671)">
<stop offset="0.4185" stop-color="#123F06" stop-opacity="0"/>
<stop offset="1" stop-color="#123F06"/>
</radialGradient>
<linearGradient id="paint7_linear_101_878" x1="107.476" y1="3.40614" x2="114.854" y2="7.91621" gradientUnits="userSpaceOnUse">
<stop stop-color="#9FDB57"/>
<stop offset="1" stop-color="#71CA5E"/>
</linearGradient>
</defs>
</svg>
