<svg width="50" height="50" viewBox="0 0 50 50" fill="none" xmlns="http://www.w3.org/2000/svg">
<path fill-rule="evenodd" clip-rule="evenodd" d="M36.0538 14.1814C35.5784 13.9437 35.3407 14.0229 35.1822 14.4191C35.1822 14.4191 36.2123 8.63464 35.4992 6.17822C33.6767 -0.0816705 18.7797 -1.82492 18.7797 2.0578C12.4406 3.8803 13.5499 9.82323 14.4216 14.4983C14.4216 14.4983 13.9461 13.9437 13.4707 14.4191C12.6783 15.2115 13.5499 17.034 13.7877 17.8264C13.9461 18.4603 14.1839 18.8565 14.3423 19.2527C14.3423 19.3319 14.3423 19.4112 14.3423 19.4904C14.3423 20.1243 14.5801 20.5998 14.9762 20.5998H15.0555C16.4025 26.2257 20.9984 30.9801 24.8811 30.9801C28.6846 30.9801 33.122 26.2257 34.6276 20.5998C34.9445 20.5205 35.1822 20.0451 35.1822 19.4904V19.3319C35.42 18.9357 35.6577 18.4603 35.8161 17.8264C35.8954 17.034 36.8462 14.7361 36.0538 14.1814Z" fill="#14A8F2"/>
<path fill-rule="evenodd" clip-rule="evenodd" d="M17.6703 30.584C6.02217 37.1608 0 33.3574 0 49.4429H23.2963H24.6434H24.7226H25.2773H26.7036H49.366C49.366 44.1339 48.6529 41.0435 47.3058 39.0626C45.6418 40.2512 43.6608 40.9643 41.4421 40.9643C35.9746 40.9643 31.6165 36.6062 31.6165 31.2179V30.9802L27.3375 43.1038L26.1489 34.8629C26.1489 34.7837 26.2282 34.7836 26.3074 34.7044C26.7036 34.3875 27.3375 33.3574 27.3375 32.565C27.3375 31.6933 25.5943 32.4857 24.5641 32.4857C23.534 32.4857 21.9493 31.6933 21.9493 32.565C21.9493 33.3574 22.6624 34.3875 22.9794 34.7044L23.0586 34.7837L22.0285 42.2321L17.6703 30.584Z" fill="#14A8F2"/>
<path fill-rule="evenodd" clip-rule="evenodd" d="M41.5215 22.502C36.8463 22.502 33.1221 26.3054 33.1221 30.9806C33.1221 35.6557 36.8463 39.3799 41.5215 39.3799C46.1966 39.3799 50.0001 35.6557 50.0001 30.9806C50.0001 26.3054 46.1966 22.502 41.5215 22.502Z" fill="#14A8F2"/>
<path fill-rule="evenodd" clip-rule="evenodd" d="M47.385 29.9502L44.9286 32.4066L45.4833 35.7347C45.5625 35.9724 45.4833 36.2101 45.2456 36.3686C45.1663 36.4478 45.0078 36.5271 44.8494 36.5271C44.7701 36.5271 44.6116 36.5271 44.5324 36.4478L41.5213 34.863L38.5102 36.4478C38.2725 36.6063 37.9555 36.5271 37.7971 36.3686C37.5593 36.2101 37.4801 35.9724 37.5593 35.7347L38.114 32.4066L35.6576 29.9502C35.4991 29.7917 35.4199 29.4748 35.4991 29.2371C35.5783 28.9993 35.8161 28.8409 36.0538 28.7616L39.4611 28.2862L40.8874 25.1959C41.0459 24.9581 41.2836 24.8789 41.5213 24.8789C41.759 24.8789 41.9967 24.9581 42.1552 25.1959L43.6608 28.2862L47.0681 28.7616C47.3058 28.8409 47.4642 28.9993 47.5435 29.2371C47.6227 29.4748 47.5435 29.7917 47.385 29.9502Z" fill="white"/>
</svg>
