<svg width="50" height="50" viewBox="0 0 50 50" fill="none" xmlns="http://www.w3.org/2000/svg">
<path d="M6.94267 0.166016C6.75713 0.263672 6.52275 0.449219 6.42509 0.585938C6.32744 0.722656 4.84306 4.64844 3.11455 9.32617C-0.264358 18.5156 -0.195999 18.2617 0.272751 18.916C0.497361 19.2285 2.24541 20.5078 3.46611 21.2402C5.8001 22.6465 8.8958 23.9355 11.5813 24.6191L12.47 24.8438L13.4466 24.3945C14.6478 23.8379 16.5716 23.1348 18.0853 22.7051C20.4681 22.0215 22.7532 21.6699 26.0345 21.4844C29.804 21.2695 32.6263 20.5273 35.7903 18.9355C37.0013 18.3203 38.5247 17.373 39.4524 16.6406C39.97 16.2402 40.9759 15.7227 41.2493 15.7227C41.3958 15.7227 41.9817 14.2383 42.0599 13.6719C42.1478 12.959 41.6106 12.3926 39.5013 10.9961C37.0306 9.35547 34.5501 8.20312 31.5423 7.29492C29.2962 6.61133 27.4505 6.31836 24.1009 6.10352C20.8587 5.89844 18.9544 5.54688 16.4935 4.69727C13.7591 3.75 11.2884 2.41211 8.53447 0.371094C8.01689 0 7.41142 -0.0878906 6.94267 0.166016ZM13.6321 11.6309C14.0618 11.8945 14.2864 12.4121 14.2376 13.0078C14.1106 14.3164 12.304 14.7461 11.6204 13.623C11.3274 13.1348 11.2884 12.7539 11.5032 12.2852C11.7181 11.7969 11.8743 11.6504 12.3724 11.4648C12.802 11.3184 13.2024 11.3672 13.6321 11.6309ZM21.8841 11.5234C24.1985 11.9629 25.8001 14.2285 25.4095 16.5137C25.2435 17.4707 24.8626 18.2031 24.1692 18.9062C22.7728 20.3125 20.6829 20.6152 18.9251 19.6582C18.3587 19.3555 17.4895 18.457 17.1966 17.8906C16.3177 16.1621 16.6302 14.1406 17.9876 12.7637C19.0325 11.709 20.4583 11.2598 21.8841 11.5234ZM30.0579 17.5781C31.0345 18.1738 30.9856 19.6387 29.9798 20.1367C29.3157 20.4688 28.5735 20.2637 28.1438 19.6289C27.9485 19.3457 27.9192 19.1895 27.9485 18.7305C27.9778 18.3594 28.056 18.0957 28.1829 17.959C28.7005 17.373 29.4622 17.2168 30.0579 17.5781Z" fill="#14A8F2"/>
<path d="M20.4191 14.57C19.8625 14.8727 19.5988 15.3219 19.6574 15.9274C19.7844 17.3629 21.6105 17.7828 22.343 16.5426C23.0656 15.3121 21.6789 13.8961 20.4191 14.57Z" fill="#14A8F2"/>
<path d="M41.748 18.614C41.5918 18.6921 41.2891 18.907 41.0645 19.0828C39.8438 20.0691 37.4121 21.4949 35.6445 22.2468C32.5 23.5945 29.7949 24.2097 26.1719 24.4148C22.9199 24.6003 21.084 24.8835 18.6035 25.5964C15.1367 26.5828 11.7773 28.2624 8.91602 30.4402C8.22266 30.9675 7.91016 31.4363 7.91016 31.9343C7.91016 32.0906 12.7539 45.616 13.9746 48.8874C14.2871 49.7078 14.9512 50.1179 15.7031 49.9519C15.8691 49.9226 16.5234 49.5124 17.1582 49.0632C18.623 48.0085 19.5801 47.4226 21.1621 46.6413C24.5996 44.9421 27.8906 44.1023 31.9336 43.8972C37.0508 43.6335 41.1328 42.53 45.3613 40.2449C47.334 39.1804 49.4824 37.657 49.8047 37.1003C49.9121 36.905 50 36.612 50 36.446C50 36.0261 43.7793 19.2488 43.5156 18.9656C43.0566 18.4578 42.3242 18.3113 41.748 18.614ZM37.9688 29.9519C38.4375 30.3035 38.6133 30.6355 38.6133 31.1531C38.6133 32.237 37.4902 32.9304 36.5234 32.4421C35.4785 31.9245 35.4785 30.4304 36.5234 29.864C36.9434 29.6394 37.5977 29.6785 37.9688 29.9519ZM30.0293 29.9324C30.8496 30.1472 31.4648 30.5183 32.0703 31.1531C32.666 31.7781 32.9492 32.2663 33.1543 33.0769C33.7988 35.5574 32.1387 38.0671 29.5605 38.4968C26.6992 38.9656 24.1016 36.3484 24.5898 33.487C25.0293 30.8992 27.5195 29.2781 30.0293 29.9324ZM21.5039 35.9968C21.8945 36.28 22.0703 36.6511 22.0703 37.1785C22.0703 38.0281 21.4941 38.6042 20.6543 38.6042C20.4395 38.6042 20.1172 38.5359 19.9414 38.4382C18.9844 37.9402 19.0039 36.3874 19.9707 35.8894C20.3613 35.6843 21.1719 35.7429 21.5039 35.9968Z" fill="#14A8F2"/>
<path d="M28.2216 32.9021C27.2646 33.4099 27.2158 34.6892 28.1338 35.3728C29.0517 36.0662 30.4775 35.2068 30.3506 34.0349C30.2236 32.9802 29.1494 32.4041 28.2216 32.9021Z" fill="#14A8F2"/>
</svg>
