<svg width="50" height="50" viewBox="0 0 50 50" fill="none" xmlns="http://www.w3.org/2000/svg">
<path d="M34.9737 0.128222C32.1699 0.51899 29.6006 1.81829 27.5393 3.87959C23.0846 8.33435 22.391 15.1923 25.859 20.4482C26.7187 21.7475 28.2525 23.2812 29.5518 24.1409C33.3032 26.6223 37.9338 27.0228 42.1052 25.2253C45.036 23.9651 47.6248 21.3762 48.8851 18.4455C50.37 14.9872 50.37 11.353 48.8851 7.89474C47.6444 5.01282 45.0751 2.41422 42.2127 1.15399C39.8681 0.128222 37.4551 -0.213701 34.9737 0.128222ZM42.6914 10.2882L43.7171 11.314L39.5359 15.4952L35.3645 19.6666L32.6584 16.9508L29.9426 14.2447L30.9976 13.1994L32.043 12.1443L33.7037 13.8051L35.3645 15.4659L38.4711 12.3593C40.1709 10.6594 41.5875 9.26243 41.6168 9.26243C41.6461 9.26243 42.1248 9.72158 42.6914 10.2882Z" fill="#14A8F2"/>
<path d="M0 22.0601V38.1793H5.86152H11.723V44.0896V50H23.4949H35.2668V39.6544V29.3088L34.4657 29.1916C33.0101 28.9864 31.0368 28.4003 29.9719 27.863C29.7179 27.736 29.4835 27.6285 29.4541 27.6285C29.4248 27.6285 29.4053 28.0193 29.4053 28.5078V29.387H17.6334H5.86152V27.9216V26.4562L16.676 26.4367L27.4808 26.4074L26.9044 25.9775C26.5918 25.7333 25.8786 25.0885 25.3315 24.5317L24.3253 23.5255H15.0934H5.86152V22.0601V20.5947H14.1556H22.4594L22.137 19.8815C21.9612 19.5005 21.6974 18.8362 21.5509 18.4162L21.2773 17.6639H13.5694H5.86152V16.1986V14.7332H13.2666H20.6619L20.6716 13.0919C20.6716 10.7766 21.1015 8.76419 21.9807 6.8592C22.1956 6.39028 22.3715 5.99951 22.3715 5.97997C22.3715 5.96043 17.3403 5.9409 11.1857 5.9409H0V22.0601ZM29.4053 33.7831V35.2485H22.0296H14.6538V33.7831V32.3177H22.0296H29.4053V33.7831ZM29.4053 39.6446V41.11H22.0296H14.6538V39.6446V38.1793H22.0296H29.4053V39.6446Z" fill="#14A8F2"/>
<path d="M4.20094 44.5002C6.04732 46.3759 7.83508 48.1832 8.177 48.5349L8.79246 49.1699V45.1352V41.1103H4.8164H0.840332L4.20094 44.5002Z" fill="#14A8F2"/>
</svg>
