<svg width="70" height="70" viewBox="0 0 70 70" fill="none" xmlns="http://www.w3.org/2000/svg">
<path fill-rule="evenodd" clip-rule="evenodd" d="M59.4998 65.4492H46.8998H40.5998H27.9998H21.6998H9.09981C5.6348 65.4492 2.7998 62.6142 2.7998 59.1492V24.4992C2.7998 21.0342 5.6348 18.1992 9.09981 18.1992H59.4998C62.9648 18.1992 65.7998 21.0342 65.7998 24.4992V59.1492C65.7998 62.6142 62.9648 65.4492 59.4998 65.4492ZM18.5498 40.2492L34.2998 24.4992L50.0498 40.2492H40.5998V52.8492H27.9998V40.2492H18.5498Z" fill="#14A8F2"/>
<path d="M46.8997 18.1996V11.8996L40.5997 5.59961H27.9997L21.6997 11.8996V18.1996H27.9997V11.8996H40.5997V18.1996H46.8997Z" fill="#14A8F2"/>
</svg>
