<svg width="70" height="70" viewBox="0 0 70 70" fill="none" xmlns="http://www.w3.org/2000/svg">
<path d="M4.2002 22.7324H9.75269V26.4238H4.2002V22.7324Z" fill="#14A8F2"/>
<path d="M61.6484 22.7324H67.2009V26.4238H61.6484V22.7324Z" fill="#14A8F2"/>
<path d="M57.2471 39.1523L59.0928 35.9556L63.9012 38.7318L62.0555 41.9286L57.2471 39.1523Z" fill="#14A8F2"/>
<path d="M7.49658 10.4277L9.34228 7.23098L14.1507 10.0072L12.305 13.204L7.49658 10.4277Z" fill="#14A8F2"/>
<path d="M7.49805 38.7305L12.3065 35.9542L14.1522 39.151L9.34375 41.9272L7.49805 38.7305Z" fill="#14A8F2"/>
<path d="M57.248 10.0078L62.0565 7.23157L63.9022 10.4283L59.0937 13.2046L57.248 10.0078Z" fill="#14A8F2"/>
<path d="M36.0621 4.20119C35.966 4.19996 35.8709 4.19922 35.775 4.19922C30.4336 4.19922 25.4032 6.22679 21.5835 9.92582C17.694 13.6925 15.4995 18.767 15.404 24.2141C15.3209 28.9572 16.9021 33.604 19.8566 37.2982C22.6513 40.7929 24.6967 44.6146 25.9523 48.6807H45.6082C46.8652 44.6015 48.9038 40.7884 51.6833 37.3247C54.5702 33.7269 56.1601 29.2004 56.1601 24.5789C56.1601 19.1844 54.073 14.0996 50.2832 10.2612C46.4972 6.42637 41.4466 4.27415 36.0621 4.20119Z" fill="#14A8F2"/>
<path d="M31.064 19.6H26.816V23.8H24.248V19.6H20V17.2H24.248V13H26.816V17.2H31.064V19.6Z" fill="#FCFCFC"/>
<path d="M26.4409 52.3711H44.9595V56.5547H26.4409V52.3711Z" fill="#14A8F2"/>
<path d="M26.4409 62.4102L31.2289 67.1982H40.1715L44.9595 62.4102V60.2461H26.4409V62.4102Z" fill="#14A8F2"/>
</svg>
