<svg width="50" height="50" viewBox="0 0 50 50" fill="none" xmlns="http://www.w3.org/2000/svg">
<path d="M38.3569 3H24.7486C22.2363 3 20.2125 5.02379 20.2125 7.53608V14.5147C20.2125 15.8755 19.1308 16.9572 17.77 16.9572H11.4195C10.6868 16.9572 10.0936 16.364 10.0936 15.6312C10.0936 15.2474 10.268 14.8636 10.5472 14.6193L17.0722 9.03648C17.5258 8.65266 17.5607 7.98969 17.1768 7.57098C16.793 7.15226 16.1301 7.08247 15.7113 7.4663L9.18636 13.0143C8.45361 13.6423 8.03489 14.5496 8 15.5266V15.5964V42.4639C8 44.9762 10.0238 47 12.5361 47H38.3569C40.8691 47 42.8929 44.9762 42.8929 42.4639V7.53608C42.8929 5.02379 40.8691 3 38.3569 3ZM34.8676 32.659C34.8676 33.2522 34.414 33.7058 33.8208 33.7058C33.2276 33.7058 32.774 33.2522 32.774 32.659C32.774 32.0658 33.2276 31.6122 33.8208 31.6122C34.414 31.6122 34.8676 32.0658 34.8676 32.659ZM23.1086 30.042C23.7367 30.8097 24.5393 31.7867 25.0626 31.7518C25.4465 31.7169 25.935 31.2284 26.4235 30.7748C27.1911 30.042 28.1681 29.0999 29.5289 29.2395C29.9128 29.2744 30.2966 29.3791 30.6804 29.5884C31.2038 29.8327 31.4132 30.4607 31.1689 30.9841C30.9247 31.5075 30.2966 31.7169 29.7732 31.4726C29.5987 31.4029 29.4592 31.3331 29.3545 31.3331C28.9707 31.2982 28.4473 31.7867 27.9239 32.3101C27.226 32.973 26.4584 33.7407 25.3418 33.8454C25.2371 33.8454 25.1324 33.8454 25.0626 33.8454C23.5274 33.8454 22.4806 32.5194 21.5385 31.368C21.0849 30.7748 20.387 29.9374 19.9683 29.8327C19.6891 30.0769 19.2006 30.7748 18.7819 31.368C18.4679 31.7867 18.119 32.2752 17.7351 32.7637C17.3862 33.2173 16.7232 33.2871 16.2696 32.9381C15.816 32.5892 15.7462 31.9263 16.0952 31.4726C16.4441 31.019 16.793 30.5305 17.1071 30.1118C18.1887 28.6463 18.747 27.8438 19.6193 27.7391C21.0849 27.5297 22.1665 28.8906 23.1086 30.042Z" fill="#14A8F2"/>
</svg>
