<svg width="70" height="70" viewBox="0 0 70 70" fill="none" xmlns="http://www.w3.org/2000/svg">
<g clip-path="url(#clip0_109_1725)">
<path d="M67.9402 26.7967H65.8897V17.6513L66.7918 18.2666C67.7763 18.8818 69.0475 18.5947 69.6625 17.6923C70.2778 16.7492 70.0317 15.4779 69.0885 14.8216L56.6487 6.61958C55.9514 6.16847 55.0493 6.16847 54.3519 6.61958L42.0488 14.8216C41.1057 15.4779 40.8597 16.7492 41.4748 17.6923C42.1308 18.6357 43.4022 18.8818 44.3455 18.2666L45.2476 17.6513V26.7967H43.1971C42.0487 26.7967 41.1466 27.6988 41.1466 28.8472C41.1466 29.9954 42.0487 30.8977 43.1971 30.8977H53.4497V37.0493C53.4497 38.1974 52.5476 39.0998 51.3992 39.0998H40.7689C39.9196 36.7182 37.6648 34.9988 34.9951 34.9988C32.3253 34.9988 30.0706 36.7182 29.2213 39.0998H18.5913C17.4599 39.0998 16.5408 38.1806 16.5408 37.0493V30.8977H26.7933C27.9267 30.8977 28.8438 29.9806 28.8438 28.8472V22.6957H0V28.8472C0 29.9806 0.917124 30.8977 2.05051 30.8977H12.4398V37.0493C12.4398 40.4414 15.1992 43.2008 18.5913 43.2008H29.2215C29.8411 44.938 31.2077 46.3046 32.9448 46.9241V59.6049H22.6923C19.2949 59.6049 16.5408 62.359 16.5408 65.7564C16.5408 66.8888 17.4589 67.8069 18.5913 67.8069H51.3994C52.5319 67.8069 53.4499 66.8888 53.4499 65.7564C53.4499 62.359 50.6958 59.6049 47.2984 59.6049H37.0459V46.9241C38.7831 46.3046 40.1497 44.938 40.7692 43.2008H51.3994C54.8034 43.2008 57.551 40.4528 57.551 37.0493V30.8977H67.9402C69.0886 30.8977 69.9907 29.9954 69.9907 28.8472C69.9907 27.6988 69.0886 26.7967 67.9402 26.7967Z" fill="#14A8F2"/>
<path d="M28.8438 15.1783C28.8438 14.0449 27.9267 13.1278 26.7933 13.1278H20.6418V11.0773C20.6418 7.68522 17.8824 4.92578 14.4903 4.92578C11.0982 4.92578 8.33874 7.68522 8.33874 11.0773V13.1278H2.05051C0.917124 13.1278 0 14.0449 0 15.1783V21.3298H28.8438V15.1783ZM12.4398 11.0773C12.4398 9.94597 13.3589 9.0268 14.4903 9.0268C15.6216 9.0268 16.5408 9.94597 16.5408 11.0773V13.1278H12.4398V11.0773Z" fill="#14A8F2"/>
</g>
<defs>
<clipPath id="clip0_109_1725">
<rect width="70" height="70" fill="white"/>
</clipPath>
</defs>
</svg>
