<svg width="50" height="50" viewBox="0 0 50 50" fill="none" xmlns="http://www.w3.org/2000/svg">
<path d="M17.5298 0.0585251C17.3735 0.0780563 16.8853 0.146416 16.4556 0.205009C8.93604 1.18157 2.51025 6.89447 0.635254 14.2577C0.17627 16.0644 0.059082 17.0214 0.059082 19.0429C0.059082 21.0644 0.17627 22.0214 0.635254 23.8281C1.46533 27.0605 3.16455 30.0195 5.61572 32.4706C9.02393 35.8886 13.3599 37.8027 18.2134 38.0468C22.5493 38.2714 27.3442 36.7284 30.7329 34.0331L31.397 33.496L32.6079 34.707L33.8188 35.9179L33.2134 36.5917C32.5591 37.3242 32.3638 37.7734 32.4614 38.3495C32.52 38.6816 33.0864 39.2773 37.7739 43.9648C42.6177 48.8085 43.0669 49.2284 43.6724 49.5117C45.4302 50.332 47.3638 50.0195 48.6919 48.6913C49.9907 47.3827 50.3228 45.4882 49.5513 43.7304C49.3071 43.164 48.8774 42.705 44.0044 37.8124C41.0942 34.8925 38.604 32.4413 38.4575 32.3632C38.145 32.1972 37.6177 32.1874 37.2466 32.3242C37.1001 32.3827 36.7095 32.7148 36.3872 33.0663L35.7915 33.7011L34.6489 32.5488L33.4966 31.3964L34.0337 30.7324C36.7388 27.3339 38.272 22.5488 38.0474 18.2128C37.8032 13.3593 35.8892 9.02337 32.4712 5.61517C29.5708 2.70501 26.1138 0.937431 21.9731 0.244072C21.0845 0.0975876 18.145 -0.0293655 17.5298 0.0585251ZM21.3872 9.13079C24.3755 9.9511 27.4028 12.2167 30.186 15.7226C31.5435 17.4316 32.2271 18.5449 32.2271 19.0429C32.2271 19.5409 31.5435 20.6542 30.186 22.3632C27.3833 25.8984 24.395 28.1249 21.3286 28.9745C20.4985 29.2089 20.1763 29.2382 19.0435 29.2382C17.9106 29.2382 17.5884 29.2089 16.7583 28.9745C13.6919 28.1249 10.7036 25.8984 7.90088 22.3632C6.54346 20.6542 5.85986 19.5409 5.85986 19.0429C5.85986 18.5449 6.54346 17.4316 7.90088 15.7226C11.0161 11.7968 14.2974 9.52142 17.7642 8.87688C18.5845 8.7304 20.3716 8.85735 21.3872 9.13079Z" fill="#14A8F2"/>
<path d="M17.9795 11.8257C16.9443 12.0308 15.6846 12.5777 14.6006 13.3101C12.9307 14.4234 10.8799 16.4937 9.4248 18.5347L9.06348 19.0523L9.89355 20.146C13.0771 24.3355 16.5635 26.5816 19.4834 26.3375C22.335 26.0933 25.8311 23.5054 28.6631 19.5503L29.0244 19.0328L28.1943 17.939C24.7861 13.4566 21.0557 11.2203 17.9795 11.8257ZM19.835 14.7457C22.1299 15.1851 23.7314 17.4312 23.3604 19.6871C23.0479 21.6011 21.6025 23.0464 19.6885 23.3589C16.8662 23.8277 14.2588 21.2203 14.7275 18.398C15.1377 15.9371 17.4326 14.2964 19.835 14.7457Z" fill="#14A8F2"/>
<path d="M18.3398 17.7832C17.9199 17.998 17.5781 18.5742 17.5781 19.043C17.5781 19.5313 17.9199 20.0879 18.3594 20.3125C18.5645 20.4199 18.877 20.5078 19.043 20.5078C19.7852 20.5078 20.5078 19.7852 20.5078 19.043C20.5078 18.5547 20.166 17.998 19.7266 17.7734C19.248 17.5293 18.8086 17.5293 18.3398 17.7832Z" fill="#14A8F2"/>
</svg>
