<svg width="40" height="24" viewBox="0 0 40 24" fill="none" xmlns="http://www.w3.org/2000/svg">
<path d="M14.6493 2.49414H25.2467V21.3513H14.6493V2.49414Z" fill="#FF5F00"/>
<path d="M15.2521 12C15.2521 8.16666 17.1032 4.76593 19.948 2.56702C17.8572 0.966927 15.2191 0 12.3399 0C5.51869 0 0 5.36612 0 12C0 18.6325 5.51869 24 12.3399 24C15.2177 24 17.8572 23.033 19.948 21.433C17.1032 19.2656 15.2521 15.8333 15.2521 12Z" fill="#EB001B"/>
<path d="M39.7403 12C39.7403 18.6325 34.2647 24 27.4982 24C24.6415 24 22.0227 23.033 19.9481 21.433C22.8049 19.2327 24.6073 15.8333 24.6073 12C24.6073 8.16666 22.7707 4.76593 19.9481 2.56702C22.0227 0.966927 24.6415 0 27.4982 0C34.2647 0 39.7403 5.40046 39.7403 12Z" fill="#F79E1B"/>
</svg>
