<svg width="24" height="24" viewBox="0 0 24 24" fill="none" xmlns="http://www.w3.org/2000/svg">
<path d="M23.0919 16.7681C23.6723 17.3502 23.9983 18.1387 23.9983 18.9607C23.9983 19.7828 23.6723 20.5713 23.0919 21.1533L22.1804 22.2041C13.9769 30.058 -5.98591 10.1002 1.74679 1.87067L2.89868 0.869024C3.48141 0.304775 4.26286 -0.00736605 5.07396 0.000132026C5.88507 0.00763011 6.66061 0.334164 7.2328 0.90909C7.26386 0.940141 9.1199 3.3511 9.1199 3.3511C9.67064 3.92968 9.97722 4.69824 9.97591 5.49703C9.97461 6.29582 9.66551 7.06337 9.11289 7.64015L7.95299 9.09854C8.59489 10.6582 9.53866 12.0757 10.7301 13.2695C11.9215 14.4633 13.337 15.4099 14.8954 16.055L16.3628 14.8881C16.9397 14.3359 17.7071 14.0271 18.5056 14.026C19.3042 14.0249 20.0724 14.3315 20.6508 14.882C20.6508 14.882 23.0608 16.7371 23.0919 16.7681ZM21.7136 18.2245C21.7136 18.2245 19.3167 16.3805 19.2856 16.3495C19.0792 16.1448 18.8004 16.0301 18.5098 16.0301C18.2192 16.0301 17.9404 16.1448 17.7341 16.3495C17.707 16.3775 15.6867 17.9871 15.6867 17.9871C15.5505 18.0955 15.3885 18.1665 15.2166 18.1932C15.0446 18.2199 14.8687 18.2014 14.7061 18.1394C12.6872 17.3877 10.8535 16.211 9.32908 14.6888C7.80468 13.1666 6.62521 11.3346 5.87057 9.3169C5.80365 9.15209 5.78184 8.97242 5.80737 8.79638C5.83289 8.62035 5.90484 8.45428 6.01581 8.31526C6.01581 8.31526 7.62545 6.29394 7.65249 6.26789C7.8571 6.06154 7.9719 5.78271 7.9719 5.49212C7.9719 5.20153 7.8571 4.9227 7.65249 4.71634C7.62144 4.68629 5.77741 2.28735 5.77741 2.28735C5.56797 2.09955 5.29462 1.99898 5.01341 2.00624C4.73219 2.0135 4.4644 2.12806 4.26493 2.32642L3.11304 3.32806C-2.53825 10.1232 14.7612 26.4631 20.716 20.8358L21.6285 19.7841C21.8423 19.586 21.9707 19.3126 21.9866 19.0215C22.0025 18.7305 21.9046 18.4447 21.7136 18.2245Z" fill="#2C3E4C"/>
</svg>
