<svg width="23" height="23" viewBox="0 0 23 23" fill="none" xmlns="http://www.w3.org/2000/svg">
<path d="M22.3374 17.7734C22.2857 17.4535 22.0851 17.1801 21.7847 17.0177L17.3409 14.3994L17.3043 14.3789C17.1179 14.2857 16.9122 14.2379 16.7038 14.2394C16.3315 14.2394 15.9759 14.3805 15.7292 14.6279L14.4175 15.9401C14.3614 15.9934 14.1785 16.0706 14.1231 16.0734C14.1079 16.0722 12.5969 15.9634 9.81529 13.1814C7.03862 10.4054 6.92082 8.88978 6.91989 8.88978C6.92144 8.81228 6.9977 8.63 7.05195 8.57358L8.17043 7.45541C8.56444 7.06047 8.68255 6.40575 8.44881 5.89859L5.97873 1.25076C5.79924 0.881236 5.45049 0.653076 5.06361 0.653076C4.78988 0.653076 4.52576 0.766536 4.3193 0.972686L1.27045 4.01472C0.978122 4.3055 0.726402 4.8139 0.671532 5.2231C0.644872 5.41871 0.103922 10.0879 6.50542 16.4904C11.94 21.9243 16.1777 22.3466 17.348 22.3466C17.4905 22.3484 17.633 22.3411 17.7745 22.3246C18.1825 22.27 18.6903 22.0189 18.9808 21.7278L22.0271 18.6817C22.2757 18.4319 22.3892 18.1017 22.3374 17.7734V17.7734Z" fill="#14A8F2"/>
</svg>
