<svg width="1920" height="1005" viewBox="0 0 1920 1005" fill="none" xmlns="http://www.w3.org/2000/svg">
<path opacity="0.5" d="M1932 567V306.243H1895.68V338.391H1876.23V319.32H1840.34L1838.45 299.442H1835.05V281.808H1827.7V264.315H1824.2V243.526H1819.83V264.315H1816.32V281.808H1808.98V299.442H1805.57L1804.58 309.819H1750V274.902L1722.71 295.235V281.598H1718.34V298.496L1699.03 312.869V250.783H1640.08V281.808H1636.28V279.004H1628.9V261.51H1625.39V254.148H1621.03V261.51H1617.52V279.004H1610.18V281.808H1605.05V306.243H1569.89V338.391H1550.44V319.32H1514.51L1512.63 299.442H1509.22V281.808H1501.88V264.315H1498.37V243.526H1494.01V264.315H1490.5V281.808H1483.16V299.442H1479.75L1478.76 309.819H1424.21V274.902L1396.89 295.235V281.598H1392.52V298.496L1373.2 312.869V250.783H1314.26V281.808H1310.45V250.502H1303.11V233.008H1299.6V225.646H1295.2V233.008H1291.7V250.502H1284.35V253.307H1279.26V306.243H1247.5V338.391H1228.05V319.32H1192.13L1190.24 299.442H1186.84V281.808H1179.49V264.315H1175.99V243.526H1171.62V264.315H1168.11V281.808H1160.77V299.442H1157.36L1156.37 309.819H1101.82V274.902L1074.5 295.235V281.598H1070.14V298.496L1050.82 312.869V236.058L991.871 204.507V235.533H988.067V232.763H980.724V215.269H977.217V207.907H972.818V215.269H969.312V232.763H961.968V235.533H956.841V306.243H929.32V338.391H909.869V319.32H873.979L872.093 299.442H868.686V281.808H861.343V264.315H857.837V243.526H853.47V264.315H849.964V281.808H842.587V299.442H839.18L838.221 309.819H783.641V274.902L756.351 295.235V281.598H751.985V298.496L732.667 312.869V250.783H673.721V281.808H669.884V279.004H662.54V261.51H659.034V254.148H654.667V261.51H651.161V279.004H643.818V281.808H638.69V306.243H603.495V338.391H584.044V319.32H548.154L546.269 299.442H542.862V281.808H535.518V264.315H532.012V243.526H527.645V264.315H524.139V281.808H516.796V299.442H513.388L512.396 309.819H457.816V274.902L430.526 295.235V281.598H426.16V298.496L406.842 312.869V250.783H347.896V281.808H344.092V279.004H336.715V261.51H333.209V254.148H328.843V261.51H325.336V279.004H317.993V281.808H312.866V306.243H281.11V338.391H261.66V319.32H225.769L223.884 237.917H220.477V220.283H213.133V202.789H209.627V182H205.261V202.789H201.754V220.283H194.411V237.917H191.004L190.011 309.819H135.432V274.902L108.142 295.235V281.598H103.775V298.496L84.4574 312.869V250.783H25.5112V281.808H21.7072V279.004H14.3306V261.51H10.8243V254.148H6.45789V261.51H2.95156V279.004H-4.39191V281.808H-9.5191V345.963H-12V555.712H2.09151V559.498L1932 567Z" fill="#EAECED"/>
<rect y="539" width="1920" height="466" fill="url(#paint0_linear_347_9)"/>
<defs>
<linearGradient id="paint0_linear_347_9" x1="960" y1="521.214" x2="960" y2="1031.68" gradientUnits="userSpaceOnUse">
<stop stop-color="#F3F4F4"/>
<stop offset="0.996324" stop-color="#D4DADE"/>
</linearGradient>
</defs>
</svg>
