<svg width="20" height="15" viewBox="0 0 20 15" fill="none" xmlns="http://www.w3.org/2000/svg">
<path d="M19.7573 0.276005C19.9187 0.446315 20.0059 0.673783 19.9997 0.90838C19.9934 1.14298 19.8943 1.36549 19.724 1.52697L6.27272 14.2703C6.18791 14.3507 6.088 14.4136 5.97876 14.4552C5.86953 14.4968 5.75313 14.5164 5.63629 14.5128C5.51945 14.5091 5.40448 14.4824 5.29803 14.4341C5.19158 14.3858 5.09576 14.3169 5.01609 14.2313L0.237346 9.09862C0.0773717 8.92682 -0.00780176 8.69851 0.000562664 8.4639C0.0047043 8.34774 0.0316853 8.23353 0.0799654 8.12779C0.128246 8.02206 0.196879 7.92687 0.281947 7.84766C0.367016 7.76845 0.466853 7.70677 0.575759 7.66614C0.684664 7.62551 0.800506 7.60673 0.916669 7.61087C1.15127 7.61924 1.37294 7.72045 1.53292 7.89226L5.70281 12.3715L18.5063 0.242731C18.6766 0.0812723 18.9041 -0.00592672 19.1387 0.000313253C19.3733 0.00655322 19.5958 0.105721 19.7573 0.276005Z" fill="#6C8AA0"/>
</svg>
