<svg width="24" height="23" viewBox="0 0 24 23" fill="none" xmlns="http://www.w3.org/2000/svg">
<path d="M11.7979 16.0749C11.8219 16.1055 11.8525 16.1304 11.8876 16.1474C11.9226 16.1645 11.961 16.1734 12 16.1734C12.039 16.1734 12.0774 16.1645 12.1124 16.1474C12.1474 16.1304 12.1781 16.1055 12.2021 16.0749L15.7957 11.5283C15.9273 11.3615 15.8086 11.1144 15.5936 11.1144H13.216V0.256685C13.216 0.115508 13.1005 0 12.9594 0H11.0342C10.893 0 10.7775 0.115508 10.7775 0.256685V11.1112H8.40642C8.19144 11.1112 8.07273 11.3583 8.20428 11.5251L11.7979 16.0749ZM23.7433 14.9519H21.8182C21.677 14.9519 21.5615 15.0674 21.5615 15.2086V20.1497H2.4385V15.2086C2.4385 15.0674 2.32299 14.9519 2.18182 14.9519H0.256684C0.115508 14.9519 0 15.0674 0 15.2086V21.5615C0 22.1294 0.458824 22.5882 1.02674 22.5882H22.9733C23.5412 22.5882 24 22.1294 24 21.5615V15.2086C24 15.0674 23.8845 14.9519 23.7433 14.9519Z" fill="white"/>
</svg>
