<svg width="50" height="50" viewBox="0 0 50 50" fill="none" xmlns="http://www.w3.org/2000/svg">
<path fill-rule="evenodd" clip-rule="evenodd" d="M11.8103 13.325C14.992 10.1432 19.3876 8.17518 24.2427 8.17518C28.7352 8.17518 32.8341 9.86034 35.9421 12.6329L36.0303 12.5447L35.2421 8.17157C35.0765 7.25282 35.3331 6.33661 35.9429 5.64325C32.5057 3.63944 28.5083 2.4913 24.2427 2.4913C17.8179 2.4913 12.0013 5.0954 7.79102 9.30575C3.58066 13.5159 0.976562 19.3325 0.976562 25.7573C0.976562 32.1821 3.58066 37.9987 7.79102 42.209C12.0013 46.4193 17.8179 49.0234 24.2427 49.0234C30.6675 49.0234 36.4841 46.4193 40.6943 42.2091C44.9046 37.9988 47.5088 32.1822 47.5088 25.7574C47.5088 21.4918 46.3607 17.4945 44.3569 14.0573C43.6636 14.6671 42.7474 14.9237 41.8286 14.7581L37.4556 13.9699L37.3674 14.0581C40.1398 17.1661 41.825 21.2649 41.825 25.7574C41.825 30.6125 39.857 35.0081 36.6752 38.1898C33.4934 41.3716 29.0979 43.3396 24.2428 43.3396C19.3877 43.3396 14.9922 41.3717 11.8104 38.1898C8.62861 35.0081 6.66055 30.6125 6.66055 25.7574C6.66045 20.9022 8.62842 16.5067 11.8103 13.325V13.325ZM44.1543 1.39237L44.8344 5.16571L48.6076 5.84579C48.797 5.87987 48.9416 6.00751 48.9991 6.1911C49.0566 6.37469 49.0106 6.562 48.8745 6.69803L43.0774 12.4951C42.8366 12.7359 42.5212 12.8348 42.186 12.7743L37.9832 12.0168L37.2257 7.81395C37.1653 7.4788 37.2641 7.16337 37.5049 6.92255L43.302 1.12538C43.438 0.989343 43.6253 0.943347 43.8089 1.00077C43.9926 1.05829 44.1202 1.20302 44.1543 1.39237V1.39237ZM24.2427 10.1909C28.1786 10.1909 31.7732 11.6518 34.5142 14.0607L30.4377 18.1372C28.7478 16.7616 26.5915 15.9367 24.2427 15.9367C21.531 15.9367 19.0757 17.036 17.2984 18.8132C15.5213 20.5903 14.422 23.0456 14.422 25.7574C14.422 28.4692 15.5213 30.9244 17.2984 32.7016C19.0757 34.4789 21.5309 35.5781 24.2427 35.5781C26.9545 35.5781 29.4097 34.4788 31.1869 32.7016C32.9642 30.9244 34.0634 28.4692 34.0634 25.7574C34.0634 23.4086 33.2386 21.2524 31.863 19.5624L35.9395 15.4859C38.3482 18.2268 39.8092 21.8215 39.8092 25.7573C39.8092 30.0559 38.0668 33.9476 35.2499 36.7645C32.433 39.5814 28.5413 41.3237 24.2427 41.3237C19.944 41.3237 16.0523 39.5814 13.2354 36.7645C10.4186 33.9476 8.67627 30.0559 8.67627 25.7573C8.67627 21.4587 10.4186 17.567 13.2354 14.7501C16.0523 11.9333 19.944 10.1909 24.2427 10.1909V10.1909ZM29.003 19.5718L23.5301 25.0447C23.1365 25.4383 23.1365 26.0764 23.5301 26.4699C23.9236 26.8635 24.5617 26.8635 24.9553 26.4699L30.4283 20.997C31.4437 22.3143 32.0476 23.9653 32.0476 25.7573C32.0476 27.9126 31.1739 29.864 29.7616 31.2763C28.3492 32.6886 26.398 33.5622 24.2427 33.5622C22.0873 33.5622 20.136 32.6886 18.7237 31.2763C17.3114 29.8639 16.4378 27.9126 16.4378 25.7573C16.4378 23.602 17.3114 21.6507 18.7237 20.2383C20.136 18.826 22.0874 17.9523 24.2427 17.9523C26.0347 17.9524 27.6856 18.5564 29.003 19.5718V19.5718Z" fill="#14A8F2"/>
</svg>
