<svg width="32" height="32" viewBox="0 0 32 32" fill="none" xmlns="http://www.w3.org/2000/svg">
<g clip-path="url(#clip0_101_933)">
<path d="M32 16C32 7.16344 24.8366 0 16 0C7.16344 0 0 7.16344 0 16C0 24.8366 7.16344 32 16 32C24.8366 32 32 24.8366 32 16Z" fill="url(#paint0_linear_101_933)"/>
<path opacity="0.1" d="M28.042 5.47466C25.7094 9.75676 22.4105 14.1736 18.2884 18.2957C14.1663 22.4178 9.74942 25.7104 5.47363 28.0431C5.20556 27.8101 4.94521 27.5673 4.69257 27.3147C3.16554 25.8386 1.94764 24.0733 1.10991 22.1217C0.272184 20.1701 -0.168619 18.0712 -0.186792 15.9475C-0.204965 13.8237 0.199856 11.7176 1.00407 9.75195C1.80828 7.78628 2.99578 6.00039 4.49733 4.49842C5.99889 2.99644 7.78445 1.80844 9.74989 1.00368C11.7153 0.198924 13.8213 -0.206485 15.9451 -0.188905C18.0688 -0.171325 20.1678 0.268892 22.1196 1.10608C24.0715 1.94326 25.8371 3.16066 27.3136 4.68729C27.5663 4.93992 27.8091 5.20238 28.042 5.47466V5.47466Z" fill="white"/>
<path d="M19.7894 7.58008H12.2104C10.9821 7.58008 9.804 8.06805 8.93542 8.93664C8.06683 9.80523 7.57886 10.9833 7.57886 12.2117V19.7906C7.57886 21.019 8.06683 22.197 8.93542 23.0656C9.804 23.9342 10.9821 24.4222 12.2104 24.4222H19.7894C21.0178 24.4222 22.1958 23.9342 23.0644 23.0656C23.933 22.197 24.421 21.019 24.421 19.7906V12.2117C24.421 10.9833 23.933 9.80523 23.0644 8.93664C22.1958 8.06805 21.0178 7.58008 19.7894 7.58008ZM22.9473 19.1253C22.9473 20.1393 22.5445 21.1117 21.8275 21.8287C21.1105 22.5457 20.1381 22.9485 19.1241 22.9485H12.8757C11.8617 22.9485 10.8893 22.5457 10.1723 21.8287C9.45534 21.1117 9.05254 20.1393 9.05254 19.1253V12.8769C9.05254 11.863 9.45534 10.8905 10.1723 10.1735C10.8893 9.45656 11.8617 9.05376 12.8757 9.05376H19.1241C20.1381 9.05376 21.1105 9.45656 21.8275 10.1735C22.5445 10.8905 22.9473 11.863 22.9473 12.8769V19.1253Z" fill="white"/>
<path d="M19.0714 12.96L19.0315 12.92L18.9978 12.8863C18.2018 12.0931 17.1236 11.6479 15.9999 11.6484C15.4324 11.6523 14.8712 11.7679 14.3484 11.9887C13.8256 12.2095 13.3515 12.5312 12.953 12.9353C12.5546 13.3394 12.2397 13.8181 12.0263 14.3439C11.8129 14.8698 11.7052 15.4325 11.7093 16C11.7085 17.1517 12.1625 18.2571 12.9725 19.0758C13.3693 19.4774 13.8421 19.7959 14.3633 20.0128C14.8845 20.2297 15.4437 20.3406 16.0083 20.339C16.8551 20.3212 17.6785 20.0574 18.3779 19.5798C19.0774 19.1021 19.6228 18.4312 19.9475 17.6489C20.2722 16.8667 20.3623 16.0068 20.2068 15.1742C20.0512 14.3416 19.6567 13.5723 19.0714 12.96V12.96ZM15.9999 18.8548C15.4336 18.8627 14.8778 18.702 14.4031 18.3932C13.9284 18.0844 13.5563 17.6414 13.3341 17.1205C13.1119 16.5996 13.0496 16.0244 13.1552 15.468C13.2608 14.9116 13.5295 14.3992 13.9271 13.996C14.3247 13.5927 14.8332 13.3168 15.3881 13.2034C15.9429 13.09 16.5189 13.1441 17.0429 13.359C17.5669 13.5738 18.0151 13.9396 18.3306 14.4099C18.6461 14.8802 18.8146 15.4337 18.8146 16C18.8174 16.3723 18.7468 16.7415 18.6068 17.0865C18.4668 17.4315 18.2602 17.7455 17.9988 18.0107C17.7374 18.2758 17.4263 18.4868 17.0833 18.6316C16.7403 18.7765 16.3722 18.8523 15.9999 18.8548V18.8548Z" fill="white"/>
<path d="M21.5642 11.4495C21.5653 11.5846 21.5397 11.7186 21.489 11.8438C21.4382 11.969 21.3633 12.083 21.2685 12.1792C21.1736 12.2754 21.0607 12.352 20.9363 12.4045C20.8118 12.457 20.6782 12.4845 20.5431 12.4853C20.4091 12.4853 20.2765 12.4586 20.1529 12.407C20.0293 12.3553 19.9172 12.2796 19.8231 12.1843C19.6805 12.0396 19.5835 11.8562 19.5441 11.6569C19.5047 11.4575 19.5247 11.251 19.6016 11.063C19.6785 10.8749 19.8089 10.7135 19.9766 10.5989C20.1444 10.4842 20.3421 10.4213 20.5452 10.418C20.783 10.4179 21.0132 10.5014 21.1957 10.6538L21.2168 10.6748C21.2507 10.7024 21.2818 10.7335 21.3094 10.7674L21.3326 10.7927C21.4833 10.9784 21.5651 11.2104 21.5642 11.4495V11.4495Z" fill="white"/>
</g>
<defs>
<linearGradient id="paint0_linear_101_933" x1="4.68632" y1="4.68632" x2="27.3137" y2="27.3137" gradientUnits="userSpaceOnUse">
<stop stop-color="#FAE100"/>
<stop offset="0.15" stop-color="#FCB720"/>
<stop offset="0.3" stop-color="#FF7950"/>
<stop offset="0.5" stop-color="#FF1C74"/>
<stop offset="1" stop-color="#6C1CD1"/>
</linearGradient>
<clipPath id="clip0_101_933">
<rect width="32" height="32" fill="white"/>
</clipPath>
</defs>
</svg>
