<svg width="50" height="50" viewBox="0 0 50 50" fill="none" xmlns="http://www.w3.org/2000/svg">
<g clip-path="url(#clip0_101_982)">
<path d="M17.2401 27.8106C10.3001 27.8106 3.32003 26.6206 0 24.3105V29.5706C0 31.4306 6.72001 34.1406 17.2401 34.1406C18.7501 34.1406 20.2601 34.0706 21.7501 33.9506C22.2101 31.4806 23.2702 29.2096 24.7702 27.3106C22.4101 27.6296 19.8701 27.8106 17.2401 27.8106Z" fill="#14A8F2"/>
<path d="M17.2301 9.15008C27.7502 9.15008 34.4702 6.44004 34.4702 4.57003C34.4702 2.71004 27.7502 0 17.2301 0C6.71 0 0 2.71004 0 4.57003C0 6.44004 6.71 9.15008 17.2301 9.15008Z" fill="#14A8F2"/>
<path d="M17.2301 17.4805C27.7502 17.4805 34.4702 14.7704 34.4702 12.9004V7.65039C31.1501 9.9604 24.1701 11.1504 17.2301 11.1504C10.3 11.1504 3.32003 9.9604 0 7.65039V12.9004V12.9104C0.0199586 14.7804 6.73002 17.4805 17.2301 17.4805Z" fill="#14A8F2"/>
<path d="M17.2401 25.8106C20.8101 25.8106 24.2301 25.4905 27.1601 24.8905C29.1902 23.2405 31.6402 22.1205 34.3302 21.6905C34.4702 21.4605 34.4702 21.3005 34.4702 21.2405V15.9805C32.3002 17.4905 28.5602 18.5305 24.2701 19.0605C22.0201 19.3405 19.6201 19.4805 17.2301 19.4805C14.8401 19.4805 12.4501 19.3405 10.2001 19.0605C5.91001 18.5305 2.18001 17.4905 0 15.9805V21.2405C0 23.1005 6.72001 25.8106 17.2401 25.8106Z" fill="#14A8F2"/>
<path d="M36.7401 23.4902C29.43 23.4902 23.48 29.4313 23.48 36.7403C23.48 44.0504 29.43 50.0004 36.7401 50.0004C44.0501 50.0004 50.0002 44.0504 50.0002 36.7403C50.0002 29.4313 44.0501 23.4902 36.7401 23.4902ZM44.4002 32.5403L34.5801 42.3604C34.3901 42.5504 34.1401 42.6604 33.8701 42.6604C33.6001 42.6604 33.3501 42.5504 33.1601 42.3604L29.0801 38.2804C28.69 37.8913 28.69 37.2603 29.0801 36.8703C29.4701 36.4804 30.1001 36.4804 30.49 36.8703L33.8701 40.2403L42.9901 31.1203C43.3801 30.7303 44.0101 30.7303 44.4002 31.1203C44.8001 31.5103 44.8001 32.1503 44.4002 32.5403Z" fill="#14A8F2"/>
</g>
<defs>
<clipPath id="clip0_101_982">
<rect width="50" height="50" fill="white"/>
</clipPath>
</defs>
</svg>
