<svg width="65" height="70" viewBox="0 0 65 70" fill="none" xmlns="http://www.w3.org/2000/svg">
<path d="M20.5193 43.6182V61.2062H2.93132V43.6182C2.93132 42.8408 3.24016 42.0952 3.78989 41.5455C4.33962 40.9958 5.08521 40.6869 5.86265 40.6869H17.5879C18.3654 40.6869 19.111 40.9958 19.6607 41.5455C20.2104 42.0952 20.5193 42.8408 20.5193 43.6182ZM38.1072 28.9616H26.3819C25.6045 28.9616 24.8589 29.2705 24.3092 29.8202C23.7594 30.3699 23.4506 31.1155 23.4506 31.8929V61.2062H41.0385V31.8929C41.0385 31.1155 40.7297 30.3699 40.18 29.8202C39.6302 29.2705 38.8846 28.9616 38.1072 28.9616ZM58.6265 17.2363H46.9012C46.1237 17.2363 45.3781 17.5452 44.8284 18.0949C44.2787 18.6446 43.9698 19.3902 43.9698 20.1677V61.2062H61.5578V20.1677C61.5578 19.3902 61.249 18.6446 60.6992 18.0949C60.1495 17.5452 59.4039 17.2363 58.6265 17.2363ZM64.4891 64.1375H0V70.0001H64.4891V64.1375Z" fill="#14A8F2"/>
<path d="M60.0064 6.09025C60.1642 5.97272 60.2812 5.80877 60.3411 5.62138C60.4009 5.43399 60.4007 5.23255 60.3403 5.04532C60.2799 4.85809 60.1624 4.69445 60.0044 4.57735C59.8463 4.46025 59.6555 4.39555 59.4588 4.39234L55.6385 4.24802C55.6198 4.24672 55.6017 4.24002 55.5867 4.22873C55.5716 4.21743 55.5601 4.20202 55.5536 4.18435L54.2335 0.61874C54.1672 0.437335 54.0467 0.280694 53.8884 0.170023C53.7301 0.0593531 53.5416 0 53.3485 0C53.1553 0 52.9668 0.0593531 52.8085 0.170023C52.6502 0.280694 52.5298 0.437335 52.4634 0.61874L51.1476 4.19708C51.1411 4.21475 51.1296 4.23016 51.1145 4.24146C51.0995 4.25276 51.0815 4.25946 51.0627 4.26075L47.2424 4.40508C47.0457 4.40829 46.8549 4.47298 46.6968 4.59008C46.5388 4.70719 46.4213 4.87082 46.3609 5.05805C46.3005 5.24529 46.3003 5.44672 46.3601 5.63411C46.42 5.8215 46.537 5.98546 46.6948 6.10298L49.6916 8.45883C49.7066 8.47064 49.7178 8.48658 49.7239 8.50468C49.7299 8.52279 49.7305 8.54227 49.7256 8.56071L48.6941 12.2155C48.6406 12.4016 48.6458 12.5996 48.7089 12.7827C48.772 12.9657 48.89 13.1249 49.0468 13.2386C49.2035 13.3522 49.3915 13.4148 49.5851 13.4178C49.7787 13.4208 49.9686 13.3641 50.1288 13.2554L53.2954 11.133C53.311 11.1223 53.3295 11.1165 53.3485 11.1165C53.3674 11.1165 53.3859 11.1223 53.4015 11.133L56.5681 13.2554C56.7262 13.3678 56.9154 13.4282 57.1094 13.4282C57.3033 13.4282 57.4925 13.3678 57.6506 13.2554C57.8074 13.1429 57.9255 12.9845 57.9885 12.802C58.0516 12.6196 58.0566 12.4221 58.0029 12.2367L56.9629 8.5692C56.9574 8.55079 56.9577 8.53112 56.9638 8.51289C56.9699 8.49466 56.9814 8.47875 56.9969 8.46732L60.0064 6.09025Z" fill="#14A8F2"/>
</svg>
