<svg width="50" height="50" viewBox="0 0 50 50" fill="none" xmlns="http://www.w3.org/2000/svg">
<path d="M11.7188 14.3457V28.6914L14.8926 30.5078L18.0664 32.3242H25.0195L31.9824 32.3145L35.1074 30.5273L38.2324 28.7402L38.2617 14.3652L38.2812 0H25H11.7188V14.3457ZM32.3242 10.3027V16.2109H25H17.6758V10.3027V4.39453H25H32.3242V10.3027ZM26.2598 19.3262C27.0703 19.5801 27.5977 19.9121 28.1934 20.5273C29.2578 21.6602 29.6387 23.1445 29.2383 24.6582C28.8574 26.1426 27.6074 27.3926 26.123 27.7832C22.4219 28.7402 19.3652 24.873 21.1133 21.4453C21.377 20.9277 22.207 20.0586 22.7344 19.7559C23.7695 19.1504 25.1465 18.9746 26.2598 19.3262Z" fill="#14A8F2"/>
<path d="M20.6055 10.3027V13.2812H25H29.3945V10.3027V7.32422H25H20.6055V10.3027Z" fill="#14A8F2"/>
<path d="M24.3364 22.2352C23.3208 22.7333 23.2817 24.2079 24.2778 24.7743C25.0102 25.1942 25.8989 24.9403 26.2798 24.1981C26.9243 22.9383 25.6059 21.6005 24.3364 22.2352Z" fill="#14A8F2"/>
<path d="M5.85938 11.7676V19.1406H7.32422H8.78906V11.7676V4.39453H7.32422H5.85938V11.7676Z" fill="#14A8F2"/>
<path d="M41.2109 11.7676V19.1406H42.6758H44.1406V11.7676V4.39453H42.6758H41.2109V11.7676Z" fill="#14A8F2"/>
<path d="M22.0703 41.1621V47.0703H19.873H17.6758V48.5352V50H25H32.3242V48.5352V47.0703H30.127H27.9297V41.1621V35.2539H25H22.0703V41.1621Z" fill="#14A8F2"/>
</svg>
