<svg width="50" height="50" viewBox="0 0 50 50" fill="none" xmlns="http://www.w3.org/2000/svg">
<path fill-rule="evenodd" clip-rule="evenodd" d="M10.2593 33.5176L6 45.7398L13.963 43.1472L18.2222 49.999L22.4815 37.5916L18.2222 34.0731L10.2593 33.5176Z" fill="#14A8F2"/>
<path fill-rule="evenodd" clip-rule="evenodd" d="M38.0372 30.9259L38.4075 23.7037L43.0371 17.963L38.4075 12.4074L38.0372 5.18519L30.4446 4.62963L25.0742 0L19.5187 4.62963L12.1112 5.18519L11.7409 12.4074L6.92603 17.963L11.7409 23.7037L12.1112 30.9259L19.5187 31.4815L25.0742 36.1111L30.4446 31.4815L38.0372 30.9259Z" fill="#14A8F2"/>
<path fill-rule="evenodd" clip-rule="evenodd" d="M39.8891 33.5176L31.7409 34.0731L27.4817 37.5916L31.9261 49.999L36.3706 43.1472L44.1484 45.7398L39.8891 33.5176Z" fill="#14A8F2"/>
<path fill-rule="evenodd" clip-rule="evenodd" d="M24.8889 27.9625C19.3333 27.9625 14.8889 23.3329 14.8889 17.9625C14.8889 12.2218 19.5185 7.77734 24.8889 7.77734C30.6296 7.77734 35.0741 12.2218 35.0741 17.9625C35.0741 23.5181 30.4445 27.9625 24.8889 27.9625Z" fill="white"/>
<path fill-rule="evenodd" clip-rule="evenodd" d="M21.7407 13.7041L22.1111 15.7412L24.1482 14.63H24.3333V23.7041H26.7407V12.2227H24.7037L21.7407 13.7041Z" fill="#14A8F2"/>
</svg>
