<svg width="50" height="50" viewBox="0 0 50 50" fill="none" xmlns="http://www.w3.org/2000/svg">
<path fill-rule="evenodd" clip-rule="evenodd" d="M4.86919 12.9325H43.519C44.3629 12.9325 45.038 13.27 45.5443 13.7764C46.0506 14.2827 46.3882 14.9578 46.3882 15.8017V21.5401V21.7089H46.2194H34.4051C33.3924 21.7089 32.5485 22.0464 31.8734 22.7215C31.1983 23.3966 30.8608 24.2405 30.8608 25.2532V32.6793C30.8608 33.692 31.1983 34.5359 31.8734 35.211C32.5485 35.8861 33.3924 36.2236 34.4051 36.2236H46.2194H46.3882V36.3924V42.1308C46.3882 42.8059 46.0506 43.6498 45.5443 44.1561C45.038 44.6624 44.3629 45 43.519 45H4.86919C4.02531 45 3.35021 44.6624 2.84388 44.1561C2.33755 43.6498 2 42.9747 2 42.1308V15.6329C2 14.789 2.33755 14.1139 2.84388 13.6076C3.35021 13.2701 4.02531 12.9325 4.86919 12.9325ZM34.0675 23.7342H46.557C47.4008 23.7342 48.076 24.4093 48.076 25.2532V32.6793C48.076 33.5232 47.4008 34.1983 46.557 34.1983H34.0675C33.2236 34.1983 32.5485 33.5232 32.5485 32.6793V25.2532C32.5485 24.4093 33.2236 23.7342 34.0675 23.7342ZM37.1055 26.2658C38.6245 26.2658 39.9747 27.4473 39.9747 29.135C39.9747 30.654 38.7933 32.0042 37.1055 32.0042C35.5865 32.0042 34.2363 30.8228 34.2363 29.135C34.2363 27.4473 35.4177 26.2658 37.1055 26.2658ZM11.4515 11.4135C20.0591 9.21942 28.6667 7.02532 37.2743 5C37.9494 5 38.4557 5.33756 38.7933 6.01267C39.2996 7.86921 39.8059 9.72575 40.3122 11.5823C30.692 11.4135 21.0717 11.4135 11.4515 11.4135Z" fill="#14A8F2"/>
</svg>
