<svg width="50" height="50" viewBox="0 0 50 50" fill="none" xmlns="http://www.w3.org/2000/svg">
<path fill-rule="evenodd" clip-rule="evenodd" d="M6.62461 49.5268L5.36278 42.429L14.6688 38.3281V49.5268V50H14.0379H7.25552H6.78233L6.62461 49.5268ZM5.04732 40.8517L3.47003 32.9653L14.511 28.0757V36.5931L5.04732 40.8517ZM3.3123 31.7035L2.05047 23.817L14.6688 18.4543V26.6562L3.3123 31.7035ZM1.73502 22.3975L0 13.7224V13.2492L0.157729 13.0915L13.5647 5.36278L14.511 4.88959V5.83596V17.0347L1.73502 22.3975ZM36.2776 17.3502L50 20.5047L49.5268 23.9748L35.0158 31.2303L36.2776 17.3502ZM49.3691 25.7098L48.4227 31.7035L34.3849 38.3281L34.858 32.8076L49.3691 25.7098ZM47.9495 33.2808L47.1609 39.4322L33.4385 45.5836L34.0694 40.0631L47.9495 33.2808ZM46.8454 40.8517L45.5836 49.8423H36.5931H33.123L33.2808 47.0032L46.8454 40.8517ZM15.7729 0V18.9274L35.3312 16.877L35.9621 8.51735L15.7729 0ZM15.7729 20.1893V25.2366L34.7003 23.5016L35.1735 18.2965L15.7729 20.1893ZM15.7729 26.6562V31.7035L34.0694 30.4416L34.5426 24.9211L15.7729 26.6562ZM15.7729 32.9653V49.8423H32.0189L33.7539 31.5457L15.7729 32.9653Z" fill="#14A8F2"/>
</svg>
