<svg width="70" height="70" viewBox="0 0 70 70" fill="none" xmlns="http://www.w3.org/2000/svg">
<path d="M43.2029 3.08424C41.753 1.67822 39.5079 0 37.0505 0C33.0631 0 29.6345 4.41793 29.258 4.9227C28.7914 5.54354 28.7173 6.37465 29.0637 7.06959L35.7829 20.6445H50.6221L57.3422 7.06959C57.6887 6.37465 57.6145 5.54354 57.1479 4.9227C56.7713 4.41793 53.3426 0 49.3552 0C46.8978 0 44.6528 1.67822 43.2029 3.08424Z" fill="#14A8F2"/>
<path d="M45.2542 24.7461V25.0986C45.2542 28.2449 46.5299 31.325 48.7549 33.55C49.5559 34.351 49.5559 35.6489 48.7549 36.4499C47.9538 37.2509 46.656 37.2509 45.8549 36.4499C44.8075 35.4046 43.9183 34.2169 43.2033 32.9331C42.4884 34.2169 41.5991 35.4044 40.5516 36.4499C39.7506 37.2509 38.4527 37.2509 37.6517 36.4499C36.8506 35.6489 36.8506 34.351 37.6517 33.55C39.8769 31.325 41.1526 28.2449 41.1526 25.0986V24.7461H33.4688C28.7383 29.2169 24.0447 35.2934 20.8975 41.1523H39.1018C42.4944 41.1523 45.2542 43.9121 45.2542 47.3047V67.9492C45.2542 68.6762 45.1053 69.3521 44.8726 70H47.6053C59.4147 70 70.0003 67.3672 70.0003 55.5078C70.0003 46.0199 60.7467 32.5149 52.7924 24.7461H45.2542Z" fill="#14A8F2"/>
<path d="M20.6445 59.6094C21.7771 59.6094 22.6953 58.6912 22.6953 57.5586C22.6953 56.426 21.7771 55.5078 20.6445 55.5078C19.5119 55.5078 18.5938 56.426 18.5938 57.5586C18.5938 58.6912 19.5119 59.6094 20.6445 59.6094Z" fill="#14A8F2"/>
<path d="M2.05078 70H39.1016C40.2351 70 41.1523 69.0828 41.1523 67.9492V47.3047C41.1523 46.1712 40.2351 45.2539 39.1016 45.2539H2.05078C0.917246 45.2539 0 46.1712 0 47.3047V67.9492C0 69.0828 0.917246 70 2.05078 70ZM32.9492 55.5078C34.0818 55.5078 35 56.4257 35 57.5586C35 58.6912 34.0818 59.6094 32.9492 59.6094C31.8166 59.6094 30.8984 58.6912 30.8984 57.5586C30.8984 56.4257 31.8166 55.5078 32.9492 55.5078ZM20.6445 51.4062C24.0371 51.4062 26.7969 54.1661 26.7969 57.5586C26.7969 60.9511 24.0371 63.7109 20.6445 63.7109C17.252 63.7109 14.4922 60.9511 14.4922 57.5586C14.4922 54.1661 17.252 51.4062 20.6445 51.4062ZM8.33984 55.5078C9.47242 55.5078 10.3906 56.4257 10.3906 57.5586C10.3906 58.6912 9.47242 59.6094 8.33984 59.6094C7.20727 59.6094 6.28906 58.6912 6.28906 57.5586C6.28906 56.4257 7.20727 55.5078 8.33984 55.5078Z" fill="#14A8F2"/>
</svg>
