<svg width="32" height="32" viewBox="0 0 32 32" fill="none" xmlns="http://www.w3.org/2000/svg">
<path d="M16 32C24.8366 32 32 24.8366 32 16C32 7.16344 24.8366 0 16 0C7.16344 0 0 7.16344 0 16C0 24.8366 7.16344 32 16 32Z" fill="#0084FF"/>
<path d="M26 15.6233C26 20.7378 21.5218 24.8833 16 24.8833C15.0306 24.8839 14.0655 24.7536 13.1309 24.496L9.72545 26.3633V22.8324C7.45455 21.136 6 18.5451 6 15.6233C6 10.5087 10.4782 6.36328 16 6.36328C21.5218 6.36328 26 10.5106 26 15.6233V15.6233Z" fill="white"/>
<path d="M22.46 13.0312L16.9927 18.8313L14.4472 16.1167L9.47815 18.8331L14.9454 13.0312L17.5545 15.7458L22.46 13.0312Z" fill="#2196F3"/>
</svg>
