<svg width="51" height="60" viewBox="0 0 51 60" fill="none" xmlns="http://www.w3.org/2000/svg">
<path d="M4.65622 1.63409C3.26288 2.53916 2.072 3.36087 2.01245 3.44424C1.95291 3.53951 1.90527 3.76578 1.90527 3.95632C1.90527 4.2064 4.26323 8.6246 9.43168 18.1041L16.9581 31.8945H18.0061C18.5777 31.8945 19.054 31.8707 19.054 31.835C19.054 31.7993 18.804 31.3229 18.5062 30.7632L17.9584 29.7509H22.6505L27.3307 29.7628L28.0929 30.8227L28.8551 31.8945H30.0459C30.9748 31.8945 31.2011 31.8588 31.1177 31.7516C31.0463 31.6683 25.8897 24.5706 19.6614 15.9962C13.4212 7.40989 8.20507 0.300293 8.07407 0.181206C7.62153 -0.211788 7.28808 -0.068882 4.65622 1.63409ZM5.59702 4.7423C5.38266 5.59974 5.1683 6.26664 5.12067 6.20709C5.07303 6.15946 4.82295 5.70692 4.54904 5.19484L4.04887 4.28977L4.97776 3.69432C5.47794 3.37278 5.91856 3.1227 5.94238 3.14651C5.9662 3.17033 5.81138 3.88486 5.59702 4.7423ZM9.75322 5.62356C10.6821 6.89781 11.4324 7.96961 11.4324 8.00533C11.4324 8.04106 10.3844 8.07679 9.09823 8.07679C6.93082 8.07679 6.76409 8.06488 6.81173 7.86243C6.84746 7.75525 7.09754 6.68345 7.38335 5.48065C7.66917 4.28977 7.94307 3.31324 7.99071 3.31324C8.03834 3.31324 8.83624 4.34931 9.75322 5.62356ZM12.0278 10.1251C12.0278 10.4943 10.432 15.8176 10.3487 15.7342C10.2891 15.6746 9.56268 14.3647 8.70524 12.8046L7.16899 9.98221H9.5984C11.4443 9.98221 12.0278 10.0179 12.0278 10.1251ZM16.1364 14.3885L18.3395 17.4253L15.2313 17.461C13.5164 17.4729 12.0874 17.461 12.0516 17.4372C12.0278 17.4014 12.3851 15.9843 12.8733 14.2694C13.3497 12.5664 13.7784 11.2088 13.838 11.2684C13.8856 11.316 14.9217 12.7212 16.1364 14.3885ZM18.7801 19.5927C18.6611 20.0452 16.2912 26.2378 16.2078 26.3212C16.1364 26.4045 12.3851 19.676 12.3851 19.4736C12.3851 19.4259 13.838 19.3902 15.6124 19.3902C18.6372 19.3902 18.8397 19.4021 18.7801 19.5927ZM23.2698 24.1895C24.6869 26.1425 25.8421 27.7622 25.8421 27.786C25.8421 27.8217 24.02 27.8455 21.7812 27.8455C18.5777 27.8455 17.7322 27.8098 17.7679 27.6907C18.9588 24.4634 20.5427 20.4739 20.6022 20.5454C20.6498 20.593 21.8526 22.2364 23.2698 24.1895Z" fill="#14A8F2"/>
<path d="M1.8816 22.9164L1.84588 37.4333L1.40525 37.469C0.905074 37.5167 0.476355 37.9335 0.476355 38.386C0.476355 38.8266 0.905074 39.2554 1.42906 39.3387L1.90542 39.4221V40.5415V41.661H0.95271H0V44.8168V47.9727H2.91767H5.83535V44.8168V41.661H4.82309H3.81084V40.5296V39.4102L4.22765 39.3268C4.704 39.2435 5.12082 38.7909 5.12082 38.386C5.12082 37.9335 4.68019 37.4928 4.21574 37.4928H3.81084V24.6313V11.7816L2.91767 10.1382C2.4175 9.245 1.98878 8.48283 1.96496 8.44711C1.92924 8.42329 1.89351 14.9255 1.8816 22.9164Z" fill="#14A8F2"/>
<path d="M34.6548 39.219V60H42.4551H50.2554V44.7566V29.5133L47.5521 29.4895L44.8369 29.4537L44.8011 23.9399L44.7773 18.438H39.7161H34.6548V39.219ZM44.7773 37.3136V38.6831H42.6933H40.6092V37.3136V35.9441H42.6933H44.7773V37.3136ZM44.7773 45.888V47.2575H42.6933H40.6092V45.888V44.5185H42.6933H44.7773V45.888ZM44.7773 54.4624V55.8319H42.6933H40.6092V54.4624V53.0929H42.6933H44.7773V54.4624Z" fill="#14A8F2"/>
<path d="M17.5059 36.1827V38.5645H25.1275H32.7492V36.1827V33.8009H25.1275H17.5059V36.1827Z" fill="#14A8F2"/>
<path d="M14.6479 50.2347V60H23.6987H32.7494V50.2347V40.4694H23.6987H14.6479V50.2347ZM29.8675 46.6263L29.9032 47.972H25.0682H20.2451V46.6025V45.233L25.0444 45.2568L29.8318 45.2925L29.8675 46.6263ZM29.8675 54.1885L29.8318 55.5342L25.0444 55.5699L20.2451 55.5937V54.2242V52.8547H25.0682H29.9032L29.8675 54.1885Z" fill="#14A8F2"/>
</svg>
