<svg width="50" height="16" viewBox="0 0 50 16" fill="none" xmlns="http://www.w3.org/2000/svg">
<g clip-path="url(#clip0_101_871)">
<path d="M32.0896 0.0253906C28.5941 0.0253906 25.4704 1.83717 25.4704 5.18456C25.4704 9.02339 31.0105 9.28854 31.0105 11.2171C31.0105 12.0291 30.0799 12.756 28.4905 12.756C26.2349 12.756 24.549 11.7403 24.549 11.7403L23.8276 15.1182C23.8276 15.1182 25.7697 15.9761 28.3482 15.9761C32.1698 15.9761 35.177 14.0754 35.177 10.6707C35.177 6.61433 29.6139 6.35707 29.6139 4.56708C29.6139 3.93098 30.3778 3.234 31.9627 3.234C33.7508 3.234 35.2097 3.97268 35.2097 3.97268L35.9157 0.710202C35.9157 0.710202 34.3283 0.0253906 32.0896 0.0253906V0.0253906ZM0.109298 0.271615L0.0246582 0.764064C0.0246582 0.764064 1.49521 1.0332 2.81969 1.57006C4.52506 2.18569 4.64654 2.54407 4.93376 3.6572L8.0635 15.7222H12.2589L18.7223 0.271615H14.5365L10.3834 10.7765L8.68868 1.87207C8.53326 0.852964 7.746 0.271615 6.78236 0.271615H0.109298V0.271615ZM20.4055 0.271615L17.1219 15.7222H21.1134L24.3855 0.271615H20.4055V0.271615ZM42.6676 0.271615C41.7051 0.271615 41.1952 0.786921 40.821 1.68741L34.9731 15.7222H39.1589L39.9688 13.3831H45.0683L45.5608 15.7222H49.2541L46.0321 0.271615H42.6676V0.271615ZM43.212 4.44589L44.4528 10.2437H41.1287L43.212 4.44589V4.44589Z" fill="url(#paint0_linear_101_871)"/>
</g>
<defs>
<linearGradient id="paint0_linear_101_871" x1="0.00628812" y1="5.4759" x2="49.2573" y2="5.4759" gradientUnits="userSpaceOnUse">
<stop stop-color="#20225F"/>
<stop offset="0.2" stop-color="#1A1F61"/>
<stop offset="0.410233" stop-color="#172272"/>
<stop offset="0.595197" stop-color="#152682"/>
<stop offset="0.802083" stop-color="#12288E"/>
<stop offset="1" stop-color="#0E2C9A"/>
</linearGradient>
<clipPath id="clip0_101_871">
<rect width="49.2788" height="16" fill="white"/>
</clipPath>
</defs>
</svg>
