<svg width="24" height="24" viewBox="0 0 24 24" fill="none" xmlns="http://www.w3.org/2000/svg">
<path d="M21.72 6H2.28C1.08 6 0 7.08 0 8.28V21.72C0 22.92 1.08 24 2.28 24H21.72C23.04 24 24 23.04 24 21.72V20.4H18C15.36 20.4 13.2 18.24 13.2 15.6C13.2 12.96 15.36 10.8 18 10.8H24V8.28C24 7.08 22.92 6 21.72 6Z" fill="#6C8AA0"/>
<path d="M15.6001 15.5992C15.6001 16.9192 16.6801 17.9992 18.0001 17.9992H24.0001V13.1992H18.0001C16.6801 13.1992 15.6001 14.2792 15.6001 15.5992ZM19.2001 14.3992C19.9201 14.3992 20.4001 14.8792 20.4001 15.5992C20.4001 16.3192 19.9201 16.7992 19.2001 16.7992C18.4801 16.7992 18.0001 16.3192 18.0001 15.5992C18.0001 14.8792 18.6001 14.3992 19.2001 14.3992Z" fill="#6C8AA0"/>
<path d="M19.2001 4.8L14.4001 0L9.6001 4.8H19.2001Z" fill="#6C8AA0"/>
<path d="M10.9198 1.32L9.5998 0L4.7998 4.8H7.4398L10.9198 1.32Z" fill="#6C8AA0"/>
</svg>
