<svg width="345" height="100" viewBox="0 0 345 100" fill="none" xmlns="http://www.w3.org/2000/svg">
<g clip-path="url(#clip0_101_1131)">
<path d="M130.451 18.4912C135.235 18.4912 141.582 18.9512 145.538 22.999C148.39 25.8509 148.942 29.3468 148.942 31.7387C148.942 38.0864 145.906 40.5703 144.618 41.6743C146.458 42.5022 148.574 43.7902 150.506 46.8261C151.978 49.494 152.53 51.9779 152.53 54.7378C152.53 60.3495 150.322 63.9374 148.022 66.2373C143.79 70.5611 138.638 71.1131 133.947 71.1131H101.748V18.4912H130.451ZM131.371 38.1784C132.935 38.1784 135.143 37.9944 136.339 37.1665C137.167 36.7065 138.362 35.5105 138.362 32.8426C138.362 31.7387 138.27 30.0827 136.339 28.9788C135.143 28.4268 133.395 28.0588 132.199 28.0588H131.371H112.052V38.1784H131.371ZM132.567 61.4535C134.867 61.4535 137.626 61.4535 139.282 59.9815C140.754 58.7856 141.582 56.3937 141.582 54.4618C141.582 51.4259 140.11 49.954 139.742 49.678C138.27 48.39 135.511 47.93 133.395 47.93H112.052V61.5455H132.567V61.4535Z" fill="white"/>
<path d="M166.145 18.4912H208.372V28.5188H176.541V38.1784H195.86V48.206H176.541V61.0855H210.396V71.1131H166.145V18.4912Z" fill="white"/>
<path d="M248.39 52.6218L233.303 71.1131H220.607L242.042 44.7102L220.791 18.4912H233.855L276.909 71.0211H263.385L248.39 52.6218Z" fill="white"/>
<path d="M326.587 58.0496H302.668L296.412 71.0211H284.913L310.672 18.4912H318.491L344.434 71.0211H333.027L326.587 58.0496ZM307.636 48.022H321.619L314.535 33.9466L307.636 48.022Z" fill="white"/>
<path d="M249.862 36.7065L264.673 18.4912H277.645L262.558 36.7065H249.862Z" fill="#14A8F2"/>
<path d="M67.4333 47.5621V67.8933L61.0856 72.2171V29.2548L54.5538 32.1067V32.4747V39.0984V76.4489L48.2061 80.7728V13.4315L41.6743 16.2833V32.4747V39.0984V85.0046L36.9825 88.2245L35.2346 87.0285V0L25.575 4.32383V14.5354L28.7949 16.5593V82.7967L22.3551 78.4729V13.4315L12.6955 17.6633V30.5428L15.9154 32.4747V74.149L9.65961 70.0092V28.6109L0 32.9347V63.5695V67.5253V75.437L36.9825 100L73.965 75.437V72.6771V63.5695V44.7102L67.4333 47.5621Z" fill="#14A8F2"/>
</g>
<defs>
<clipPath id="clip0_101_1131">
<rect width="344.526" height="100" fill="white"/>
</clipPath>
</defs>
</svg>
