<svg width="346" height="200" viewBox="0 0 346 200" fill="none" xmlns="http://www.w3.org/2000/svg">
<g opacity="0.5">
<mask id="mask0_115_4627" style="mask-type:alpha" maskUnits="userSpaceOnUse" x="0" y="0" width="346" height="200">
<rect width="346" height="200" fill="#14A8F2"/>
</mask>
<g mask="url(#mask0_115_4627)">
<rect width="49.6586" height="296.886" transform="matrix(-0.296437 0.955052 -0.241322 -0.970445 66.6066 181.445)" fill="url(#paint0_linear_115_4627)"/>
<rect width="49.5841" height="297.253" transform="matrix(0.297305 -0.954783 0.240594 0.970626 299.429 69.8025)" fill="url(#paint1_linear_115_4627)"/>
<rect width="49.6586" height="296.886" transform="matrix(-0.296437 0.955052 -0.241322 -0.970445 56.0364 206.962)" fill="url(#paint2_linear_115_4627)"/>
<rect width="49.5841" height="297.253" transform="matrix(0.297305 -0.954783 0.240594 0.970626 310.011 44.3452)" fill="url(#paint3_linear_115_4627)"/>
<rect width="49.6586" height="296.886" transform="matrix(-0.296437 0.955052 -0.241322 -0.970445 46.3372 231.351)" fill="url(#paint4_linear_115_4627)"/>
<rect width="49.5841" height="297.253" transform="matrix(0.297305 -0.954783 0.240594 0.970626 319.721 20.0126)" fill="url(#paint5_linear_115_4627)"/>
<rect width="49.6586" height="296.886" transform="matrix(-0.296437 0.955052 -0.241322 -0.970445 32.6534 258.544)" fill="url(#paint6_linear_115_4627)"/>
<rect width="49.5841" height="297.253" transform="matrix(0.297305 -0.954783 0.240594 0.970626 333.416 -7.10242)" fill="url(#paint7_linear_115_4627)"/>
</g>
</g>
<defs>
<linearGradient id="paint0_linear_115_4627" x1="1.32222e-06" y1="10.2374" x2="59.5965" y2="294.804" gradientUnits="userSpaceOnUse">
<stop stop-color="#14A8F2"/>
<stop offset="1" stop-color="white"/>
</linearGradient>
<linearGradient id="paint1_linear_115_4627" x1="1.32024e-06" y1="10.2501" x2="59.8201" y2="295.104" gradientUnits="userSpaceOnUse">
<stop stop-color="#14A8F2"/>
<stop offset="1" stop-color="white"/>
</linearGradient>
<linearGradient id="paint2_linear_115_4627" x1="1.32222e-06" y1="10.2374" x2="59.5965" y2="294.804" gradientUnits="userSpaceOnUse">
<stop stop-color="#14A8F2"/>
<stop offset="1" stop-color="white"/>
</linearGradient>
<linearGradient id="paint3_linear_115_4627" x1="1.32024e-06" y1="10.2501" x2="59.8201" y2="295.104" gradientUnits="userSpaceOnUse">
<stop stop-color="#14A8F2"/>
<stop offset="1" stop-color="white"/>
</linearGradient>
<linearGradient id="paint4_linear_115_4627" x1="1.32222e-06" y1="10.2374" x2="59.5965" y2="294.804" gradientUnits="userSpaceOnUse">
<stop stop-color="#14A8F2"/>
<stop offset="1" stop-color="white"/>
</linearGradient>
<linearGradient id="paint5_linear_115_4627" x1="1.32024e-06" y1="10.2501" x2="59.8201" y2="295.104" gradientUnits="userSpaceOnUse">
<stop stop-color="#14A8F2"/>
<stop offset="1" stop-color="white"/>
</linearGradient>
<linearGradient id="paint6_linear_115_4627" x1="1.32222e-06" y1="10.2374" x2="59.5965" y2="294.804" gradientUnits="userSpaceOnUse">
<stop stop-color="#14A8F2"/>
<stop offset="1" stop-color="white"/>
</linearGradient>
<linearGradient id="paint7_linear_115_4627" x1="1.32024e-06" y1="10.2501" x2="59.8201" y2="295.104" gradientUnits="userSpaceOnUse">
<stop stop-color="#14A8F2"/>
<stop offset="1" stop-color="white"/>
</linearGradient>
</defs>
</svg>
